<svg width="54" height="60" viewBox="0 0 54 60" fill="none" xmlns="http://www.w3.org/2000/svg">
<path d="M30 2V14.4444C30 15.2696 30.3278 16.0609 30.9112 16.6443C31.4947 17.2278 32.286 17.5556 33.1111 17.5556H45.5556" stroke="white" stroke-width="4" stroke-linecap="round" stroke-linejoin="round"/>
<path d="M17.5556 58H8.22222C6.57199 58 4.98934 57.3444 3.82245 56.1776C2.65555 55.0107 2 53.428 2 51.7778V8.22222C2 6.57199 2.65555 4.98934 3.82245 3.82245C4.98934 2.65555 6.57199 2 8.22222 2H30L45.5556 17.5556V30" stroke="white" stroke-width="4" stroke-linecap="round" stroke-linejoin="round"/>
<path d="M30 57.9999V45.5555C30 43.9052 30.6556 42.3226 31.8224 41.1557C32.9893 39.9888 34.572 39.3333 36.2222 39.3333C37.8725 39.3333 39.4551 39.9888 40.622 41.1557C41.7889 42.3226 42.4444 43.9052 42.4444 45.5555V57.9999M30 51.7777H42.4444M51.7778 39.3333V57.9999" stroke="white" stroke-width="4" stroke-linecap="round" stroke-linejoin="round"/>
</svg>
