<svg width="52" height="56" viewBox="0 0 52 56" fill="none" xmlns="http://www.w3.org/2000/svg">
<path d="M37.667 1.25389e-08C39.7258 -0.000114674 41.7068 0.7865 43.2047 2.1989C44.7026 3.6113 45.6042 5.54271 45.725 7.59796L45.7384 8.07149V34.9765H47.7563C49.4971 34.9765 50.9311 36.3002 51.1033 37.9952L51.1194 38.3396V43.048C51.1196 45.1067 50.3329 47.0878 48.9205 48.5857C47.5081 50.0836 45.5767 50.9852 43.5215 51.106L43.048 51.1194H16.143C14.0842 51.1196 12.1032 50.3329 10.6052 48.9205C9.10731 47.5081 8.20573 45.5767 8.08494 43.5215L8.07149 43.048V16.143H3.36312C2.53053 16.1434 1.72739 15.8349 1.10912 15.2773C0.490845 14.7196 0.101401 13.9525 0.0161431 13.1242L1.25389e-08 12.7799V8.07149C-0.000114674 6.01269 0.7865 4.03167 2.1989 2.53375C3.6113 1.03582 5.54271 0.134236 7.59796 0.0134528L8.07149 1.25389e-08H37.667ZM45.7384 40.3575H21.524V43.048C21.524 43.9896 21.3625 44.8963 21.0666 45.7384H43.048C43.7615 45.7384 44.4459 45.455 44.9504 44.9504C45.455 44.4459 45.7384 43.7615 45.7384 43.048V40.3575ZM26.905 24.2145H21.524C20.8382 24.2152 20.1786 24.4778 19.68 24.9486C19.1813 25.4193 18.8813 26.0627 18.8411 26.7473C18.8009 27.4319 19.0236 28.106 19.4638 28.6318C19.9039 29.1577 20.5282 29.4956 21.2092 29.5766L21.524 29.5955H26.905C27.5907 29.5947 28.2503 29.3321 28.749 28.8614C29.2476 28.3906 29.5477 27.7472 29.5879 27.0626C29.628 26.3781 29.4053 25.704 28.9652 25.1781C28.525 24.6523 27.9007 24.3143 27.2198 24.2333L26.905 24.2145ZM32.286 13.4525H21.524C20.8104 13.4525 20.1261 13.7359 19.6215 14.2405C19.1169 14.7451 18.8335 15.4294 18.8335 16.143C18.8335 16.8565 19.1169 17.5409 19.6215 18.0455C20.1261 18.55 20.8104 18.8335 21.524 18.8335H32.286C32.9995 18.8335 33.6839 18.55 34.1884 18.0455C34.693 17.5409 34.9765 16.8565 34.9765 16.143C34.9765 15.4294 34.693 14.7451 34.1884 14.2405C33.6839 13.7359 32.9995 13.4525 32.286 13.4525ZM8.07149 5.38099C7.35793 5.38099 6.67359 5.66446 6.16902 6.16902C5.66446 6.67359 5.38099 7.35793 5.38099 8.07149V10.762H8.07149V5.38099Z" fill="white"/>
</svg>
