<svg width="46" height="57" viewBox="0 0 46 57" fill="none" xmlns="http://www.w3.org/2000/svg">
<path d="M25.425 19.775H40.9625L25.425 4.2375V19.775ZM5.65 0H28.25L45.2 16.95V50.85C45.2 52.3485 44.6047 53.7856 43.5452 54.8452C42.4856 55.9047 41.0485 56.5 39.55 56.5H5.65C4.15153 56.5 2.71443 55.9047 1.65485 54.8452C0.595266 53.7856 0 52.3485 0 50.85V5.65C0 2.51425 2.51425 0 5.65 0ZM28.25 50.85V48.025C28.25 44.2677 20.7073 42.375 16.95 42.375C13.1927 42.375 5.65 44.2677 5.65 48.025V50.85H28.25ZM16.95 28.25C15.4515 28.25 14.0144 28.8453 12.9548 29.9048C11.8953 30.9644 11.3 32.4015 11.3 33.9C11.3 35.3985 11.8953 36.8356 12.9548 37.8952C14.0144 38.9547 15.4515 39.55 16.95 39.55C18.4485 39.55 19.8856 38.9547 20.9452 37.8952C22.0047 36.8356 22.6 35.3985 22.6 33.9C22.6 32.4015 22.0047 30.9644 20.9452 29.9048C19.8856 28.8453 18.4485 28.25 16.95 28.25Z" fill="white"/>
</svg>
