<svg width="1312" height="319" viewBox="0 0 1312 319" fill="none" xmlns="http://www.w3.org/2000/svg">
<rect x="0.5" y="0.5" width="1311" height="318" fill="url(#paint0_radial_2012_183)" stroke="white"/>
<g clip-path="url(#clip0_2012_183)">
<path d="M538.79 349.95C522.779 349.915 507.074 345.565 493.33 337.36C479.587 329.154 468.314 317.397 460.702 303.327C453.089 289.257 449.418 273.397 450.075 257.417C450.732 241.438 455.694 225.931 464.437 212.533L606.74 -5.54949C619.356 -24.845 639.12 -38.3532 661.695 -43.1099C684.27 -47.8667 707.813 -43.4833 727.156 -30.9218C737.551 -24.1256 746.487 -15.3297 753.442 -5.0472C760.397 5.23527 765.233 16.7984 767.666 28.9674L780.586 94.4407C784.393 113.971 794.132 131.855 808.476 145.66L815.543 152.469C826.211 162.762 840.319 170.795 857.466 176.342C894.899 188.435 920 222.427 920 260.916C920 310.037 879.052 350 828.7 350C778.347 350 737.4 310.024 737.4 260.916C737.4 256.187 737.785 251.466 738.55 246.8L739.251 242.552C740.589 234.47 741.864 226.824 742.44 219.254L743.966 199.453C744.365 194.3 743.056 189.159 740.24 184.823C737.425 180.487 733.259 177.196 728.386 175.459C723.513 173.721 718.203 173.633 713.275 175.208C708.347 176.783 704.075 179.934 701.117 184.175L613.319 309.874C606.957 319.613 598.733 328.001 589.118 334.557C579.502 341.113 568.685 345.707 557.288 348.077C551.204 349.339 545.004 349.967 538.79 349.95Z" fill="#6987DF" fill-opacity="0.2"/>
</g>
<g clip-path="url(#clip1_2012_183)">
<path d="M1018.79 349.95C1002.78 349.915 987.074 345.565 973.33 337.36C959.587 329.154 948.314 317.397 940.702 303.327C933.089 289.257 929.418 273.397 930.075 257.417C930.732 241.438 935.694 225.931 944.437 212.533L1086.74 -5.54949C1099.36 -24.845 1119.12 -38.3532 1141.7 -43.1099C1164.27 -47.8667 1187.81 -43.4833 1207.16 -30.9218C1217.55 -24.1256 1226.49 -15.3297 1233.44 -5.0472C1240.4 5.23527 1245.23 16.7984 1247.67 28.9674L1260.59 94.4407C1264.39 113.971 1274.13 131.855 1288.48 145.66L1295.54 152.469C1306.21 162.762 1320.32 170.795 1337.47 176.342C1374.9 188.435 1400 222.427 1400 260.916C1400 310.037 1359.05 350 1308.7 350C1258.35 350 1217.4 310.024 1217.4 260.916C1217.4 256.187 1217.79 251.466 1218.55 246.8L1219.25 242.552C1220.59 234.47 1221.86 226.824 1222.44 219.254L1223.97 199.453C1224.36 194.3 1223.06 189.159 1220.24 184.823C1217.42 180.487 1213.26 177.196 1208.39 175.459C1203.51 173.721 1198.2 173.633 1193.28 175.208C1188.35 176.783 1184.07 179.934 1181.12 184.175L1093.32 309.874C1086.96 319.613 1078.73 328.001 1069.12 334.557C1059.5 341.113 1048.69 345.707 1037.29 348.077C1031.2 349.339 1025 349.967 1018.79 349.95Z" fill="#733DC2" fill-opacity="0.6"/>
</g>
<defs>
<radialGradient id="paint0_radial_2012_183" cx="0" cy="0" r="1" gradientUnits="userSpaceOnUse" gradientTransform="translate(1324.94 -1.80169e-05) rotate(167.126) scale(1281.24 1355.83)">
<stop stop-color="#7D16C4"/>
<stop offset="0.812012" stop-color="#3358C3"/>
<stop offset="1" stop-color="#3358C3"/>
</radialGradient>
<clipPath id="clip0_2012_183">
<path d="M450 2H880C902.091 2 920 19.9086 920 42V277C920 299.091 902.091 317 880 317H450V2Z" fill="white"/>
</clipPath>
<clipPath id="clip1_2012_183">
<path d="M930 2H1269C1291.09 2 1309 19.9086 1309 42V277C1309 299.091 1291.09 317 1269 317H930V2Z" fill="white"/>
</clipPath>
</defs>
</svg>
