<svg width="1512" height="792" viewBox="0 0 1512 792" fill="none" xmlns="http://www.w3.org/2000/svg">
<path d="M-5 470V0H1516V661C1507.5 670.1 1499 679.16 1490.51 688.31C1462.41 718.76 1432.83 747.47 1397.04 769.04C1358.16 792.47 1317.4 798.04 1274.42 782.1C1257.72 775.9 1241.13 769.407 1224.65 762.62C1184.29 746.08 1143.14 740.18 1100.01 750.44C1077.39 755.923 1053.84 756.418 1031.01 751.89C1010.01 747.7 991.2 738 972.19 728.65C954.87 720.14 937.48 711.5 919.43 704.81C869.3 686.24 817.06 684.81 764.55 688.72C739.99 690.54 715.61 694.63 691.08 696.98C653.6 700.56 616.08 703.52 578.55 706.73C538.55 710.143 498.55 713.547 458.55 716.94C413.08 720.84 367.55 724.41 322.14 728.83C286.236 732.424 249.976 728.858 215.46 718.34C158 700.91 111.6 667.19 73.84 621.07C44.84 585.67 23.67 545.76 7.22 503.24C3 492.24 -0.94 481.09 -5 470Z" fill="url(#paint0_radial_2_1634)"/>
<defs>
<radialGradient id="paint0_radial_2_1634" cx="0" cy="0" r="1" gradientUnits="userSpaceOnUse" gradientTransform="translate(1531 -4.46839e-05) rotate(153.944) scale(1611.82 3098.74)">
<stop stop-color="#7D16C4"/>
<stop offset="0.812012" stop-color="#3358C3"/>
<stop offset="1" stop-color="#3358C3"/>
</radialGradient>
</defs>
</svg>
