<svg width="20" height="20" viewBox="0 0 20 20" fill="none" xmlns="http://www.w3.org/2000/svg">
<path fill-rule="evenodd" clip-rule="evenodd" d="M13.5308 2.76153C10.3285 1.4806 6.44219 2.21102 4.18402 4.69825L4.18384 4.69845C3.07208 5.92236 2.3748 7.46583 2.19128 9.10908C2.00776 10.7523 2.34736 12.4116 3.16172 13.8506C3.97607 15.2896 5.22368 16.4351 6.72689 17.1238C8.2301 17.8125 9.91228 18.0094 11.5339 17.6865L11.5342 17.6864C14.797 17.0375 17.2288 14.0874 17.8779 10.8418C17.9939 10.2616 18.5583 9.88534 19.1385 10.0014C19.7188 10.1174 20.095 10.6818 19.979 11.2621C19.1996 15.1589 16.246 18.9341 11.9521 19.788C9.88832 20.1989 7.74748 19.9483 5.83439 19.0718C3.92121 18.1952 2.33335 16.7374 1.29689 14.906C0.260435 13.0745 -0.171779 10.9627 0.0617928 8.87126C0.295355 6.77993 1.18274 4.8156 2.5976 3.25792M2.59778 3.25772C5.52217 0.0368927 10.3866 -0.803948 14.3266 0.772057C14.876 0.991808 15.1432 1.61531 14.9235 2.16469C14.7037 2.71406 14.0802 2.98128 13.5308 2.76153" fill="#9885FF"/>
<path fill-rule="evenodd" clip-rule="evenodd" d="M19.6552 3.12202C20.09 3.52335 20.1171 4.20116 19.7158 4.63594L11.1449 13.9211C10.9471 14.1353 10.6706 14.2597 10.3791 14.2656C10.0876 14.2714 9.80626 14.1581 9.60009 13.952L6.02888 10.3808C5.61049 9.96237 5.61049 9.28402 6.02888 8.86563C6.44728 8.44723 7.12563 8.44723 7.54402 8.86563L10.3268 11.6484L18.1413 3.18257C18.5427 2.74779 19.2205 2.72068 19.6552 3.12202Z" fill="#9885FF"/>
</svg>
