<svg width="52" height="60" viewBox="0 0 52 60" fill="none" xmlns="http://www.w3.org/2000/svg">
<path fill-rule="evenodd" clip-rule="evenodd" d="M6.36371 6.36371C4.93629 7.79114 4.18605 10.4502 4.18605 16.0465V46.7442C4.18605 47.9001 3.24897 48.8372 2.09302 48.8372C0.937078 48.8372 0 47.9001 0 46.7442V16.0465C0 10.4801 0.64511 6.16235 3.40373 3.40373C6.16235 0.64511 10.4801 0 16.0465 0H35.5814C41.1478 0 45.4656 0.64511 48.2242 3.40373C50.9828 6.16235 51.6279 10.4801 51.6279 16.0465V43.9814C51.6279 44.3546 51.628 44.8089 51.5947 45.2747C51.5123 46.4277 50.5109 47.2956 49.3579 47.2133C48.2048 47.1309 47.3369 46.1295 47.4193 44.9765C47.441 44.6726 47.4419 44.3565 47.4419 43.9535V16.0465C47.4419 10.4502 46.6916 7.79114 45.2642 6.36371C43.8368 4.93629 41.1777 4.18605 35.5814 4.18605H16.0465C10.4502 4.18605 7.79114 4.93629 6.36371 6.36371Z" fill="black"/>
<path fill-rule="evenodd" clip-rule="evenodd" d="M10.0465 40.4653C6.82106 40.4653 4.18605 43.1004 4.18605 46.3258V48.1398C4.18605 52.3699 7.63036 55.8142 11.8605 55.8142H39.7674C43.9975 55.8142 47.4419 52.3699 47.4419 48.1398V40.4653H10.0465ZM0 46.3258C0 40.7885 4.50917 36.2793 10.0465 36.2793H49.5349C50.6908 36.2793 51.6279 37.2164 51.6279 38.3723V48.1398C51.6279 54.6818 46.3094 60.0002 39.7674 60.0002H11.8605C5.31847 60.0002 0 54.6818 0 48.1398V46.3258Z" fill="black"/>
<path fill-rule="evenodd" clip-rule="evenodd" d="M12.5581 16.0466C12.5581 14.8907 13.4952 13.9536 14.6511 13.9536H36.9767C38.1327 13.9536 39.0697 14.8907 39.0697 16.0466C39.0697 17.2026 38.1327 18.1397 36.9767 18.1397H14.6511C13.4952 18.1397 12.5581 17.2026 12.5581 16.0466Z" fill="black"/>
<path fill-rule="evenodd" clip-rule="evenodd" d="M12.5581 25.8137C12.5581 24.6578 13.4952 23.7207 14.6511 23.7207H28.6046C29.7606 23.7207 30.6976 24.6578 30.6976 25.8137C30.6976 26.9697 29.7606 27.9067 28.6046 27.9067H14.6511C13.4952 27.9067 12.5581 26.9697 12.5581 25.8137Z" fill="black"/>
</svg>
