<svg width="110" height="106" viewBox="0 0 110 106" fill="none" xmlns="http://www.w3.org/2000/svg">
<path d="M9 2H53C57.4183 2 61 5.58172 61 10V39.0303C61 39.4062 60.9694 39.7817 60.9092 40.1523L60.8398 40.5215L52.5986 78.3281L49.1982 85.1309C48.0124 87.5021 45.5887 89 42.9375 89H10C5.58172 89 2 85.4183 2 81V9C2 5.13401 5.13401 2 9 2Z" stroke="#9885FF" stroke-width="4"/>
<path d="M100 45.3684V40.3158L70 10H20C14.45 10 10 14.4968 10 20.1053V90.8421C10 93.5222 11.0536 96.0925 12.9289 97.9876C14.8043 99.8827 17.3478 100.947 20 100.947H50V91.4989L91.95 49.1074C94.15 46.8842 96.95 45.6716 100 45.3684ZM65 17.5789L92.5 45.3684H65V17.5789ZM109.25 66.5389L104.35 71.4905L94.15 61.1832L99.05 56.2316C100 55.2211 101.65 55.2211 102.65 56.2316L109.25 62.9011C110.25 63.9116 110.25 65.5789 109.25 66.5389ZM90.65 64.72L100.85 75.0274L70.2 106H60V95.6926L90.65 64.72Z" fill="#9885FF"/>
</svg>
