<svg width="55" height="64" viewBox="0 0 55 64" fill="none" xmlns="http://www.w3.org/2000/svg">
<path d="M29 2H29.819C39.599 2 44.495 2 47.891 4.394C48.863 5.078 49.727 5.894 50.456 6.809C53 10.007 53 14.609 53 23.819V31.454C53 40.343 53 44.789 51.593 48.338C49.331 54.047 44.549 58.547 38.483 60.677C34.712 62 29.993 62 20.543 62C15.149 62 12.449 62 10.295 61.244C6.83 60.026 4.097 57.455 2.804 54.194C2 52.166 2 49.625 2 44.546V32" stroke="black" stroke-width="4" stroke-linecap="round" stroke-linejoin="round"/>
<path d="M53 32C53 34.6519 51.9465 37.1952 50.0714 39.0704C48.1962 40.9455 45.6529 41.999 43.001 41.999C41.003 41.999 38.648 41.651 36.707 42.17C35.8592 42.398 35.0863 42.8447 34.4655 43.4655C33.8447 44.0863 33.398 44.8592 33.17 45.707C32.651 47.648 32.999 50.003 32.999 52.001C32.999 53.3141 32.7404 54.6143 32.2379 55.8275C31.7354 57.0406 30.9989 58.1429 30.0704 59.0714C29.1419 59.9999 28.0396 60.7364 26.8265 61.2389C25.6133 61.7414 24.3131 62 23 62M5 18.5C6.476 20.018 10.4 26 12.5 26M12.5 26C14.6 26 18.524 20.018 20 18.5M12.5 26V2" stroke="black" stroke-width="4" stroke-linecap="round" stroke-linejoin="round"/>
</svg>
