<svg width="59" height="48" viewBox="0 0 59 48" fill="none" xmlns="http://www.w3.org/2000/svg">
<path d="M24 12.5674C24 17.7539 24 20.3444 22.3885 21.9559C20.777 23.5674 18.1865 23.5674 13 23.5674C7.8135 23.5674 5.223 23.5674 3.6115 21.9559C2 20.3444 2 17.7539 2 12.5674C2 7.38088 2 4.79038 3.6115 3.17888C5.223 1.56738 7.8135 1.56738 13 1.56738C18.1865 1.56738 20.777 1.56738 22.3885 3.17888C24 4.79038 24 7.38088 24 12.5674Z" stroke="black" stroke-width="3" stroke-linecap="round" stroke-linejoin="round"/>
<path d="M24 12.5674L24 23.9441C24 34.0284 17.081 42.5809 7.5 45.5674M57 12.5674C57 17.7539 57 20.3444 55.3885 21.9559C53.777 23.5674 51.1865 23.5674 46 23.5674C40.8135 23.5674 38.223 23.5674 36.6115 21.9559C35 20.3444 35 17.7539 35 12.5674C35 7.38088 35 4.79038 36.6115 3.17888C38.223 1.56738 40.8135 1.56738 46 1.56738C51.1865 1.56738 53.777 1.56738 55.3885 3.17888C57 4.79038 57 7.38088 57 12.5674Z" stroke="black" stroke-width="3" stroke-linecap="round" stroke-linejoin="round"/>
<path d="M57 12.5674L57 23.9441C57 34.0284 50.081 42.5809 40.5 45.5674" stroke="black" stroke-width="3" stroke-linecap="round" stroke-linejoin="round"/>
</svg>
