<svg width="61" height="61" viewBox="0 0 61 61" fill="none" xmlns="http://www.w3.org/2000/svg">
<path fill-rule="evenodd" clip-rule="evenodd" d="M53.2613 4.58537C48.1443 6.63348 41.9879 10.2944 36.1956 14.5881C30.3951 18.8878 25.0918 23.7241 21.642 28.0421C21.6411 28.0433 21.6401 28.0445 21.6392 28.0456L17.8369 32.8473C20.0954 33.4408 22.2311 34.6568 24.023 36.4487C25.7728 38.1985 26.944 40.2156 27.5293 42.4023L32.2554 38.6119L32.2556 38.6117C40.9851 31.6119 51.5384 17.3416 55.7022 6.95904L55.7107 6.9378L55.7108 6.93784C56.0133 6.20692 55.8167 5.50726 55.2918 4.99616L55.2518 4.95616C54.8288 4.52143 54.121 4.27255 53.2613 4.58537ZM15.7657 36.6936C15.6318 36.6866 15.5129 36.6797 15.4055 36.6734C15.0007 36.6498 14.7592 36.6358 14.4923 36.6624C13.7792 36.7338 13.0791 36.4351 12.637 35.871C12.1949 35.3069 12.0722 34.5558 12.3119 33.8803C12.6998 32.7872 13.2949 31.7625 14.0405 30.8997L18.3635 25.4404L18.369 25.4335C22.1181 20.7399 27.7234 15.6583 33.7032 11.2257C39.6831 6.79305 46.1695 2.91141 51.7341 0.688478L51.7793 0.671033C54.1931 -0.229021 56.6481 0.405378 58.2316 2.01712C59.8115 3.56957 60.6082 6.03515 59.583 8.52638C55.1504 19.572 44.1666 34.4255 34.8738 41.877L29.3772 46.2854C29.349 46.3081 29.3201 46.33 29.2907 46.3512C28.5441 46.8888 27.6801 47.4543 26.6567 47.8563C26.0125 48.1094 25.2849 48.0276 24.713 47.6378C24.1411 47.248 23.7989 46.6007 23.7989 45.9085C23.7989 45.4747 23.7741 45.0327 23.7128 44.6445L23.705 44.5898C23.4606 42.7239 22.6219 40.9666 21.0635 39.4082C19.5029 37.8476 17.638 36.9531 15.7657 36.6936Z" fill="black"/>
<path fill-rule="evenodd" clip-rule="evenodd" d="M15.7927 36.6936C15.2871 36.6675 14.83 36.6496 14.4163 36.6703C14.3959 36.6713 14.3754 36.6721 14.355 36.6725C9.87906 36.7648 5.74636 39.9802 5.20317 44.9368L4.44798 51.8174C4.15969 54.2679 6.2319 56.3196 8.63804 56.0502L8.64253 56.0497L15.4835 55.2989C17.7962 54.9908 19.6729 54.0205 21.0308 52.6647C22.8398 50.8304 23.7987 48.4332 23.7987 45.9086C23.7987 45.6225 23.7818 45.3881 23.7604 45.091C23.7485 44.9252 23.7352 44.74 23.7226 44.5154C23.4658 42.6772 22.6288 40.9459 21.0912 39.4083L21.0804 39.3975C19.5335 37.8278 17.6774 36.9539 15.7927 36.6936ZM14.2385 32.4887C14.9081 32.4572 15.5824 32.4913 16.096 32.5184C16.149 32.5211 16.2019 32.5259 16.2545 32.5328C19.0852 32.8991 21.8298 34.1976 24.0561 36.4541C26.2333 38.6336 27.5134 41.2271 27.8826 44.0465C27.8896 44.1002 27.8946 44.1541 27.8974 44.2082C27.903 44.3134 27.9122 44.4468 27.9227 44.5973C27.9494 44.9828 27.984 45.4812 27.984 45.9086C27.984 49.5205 26.6007 52.9808 24.0042 55.6103L23.9949 55.6196C21.9532 57.6614 19.2069 59.0313 16.0073 59.4514L15.9632 59.4567L9.10364 60.2096C9.10282 60.2097 9.10447 60.2095 9.10364 60.2096C4.03586 60.7753 -0.308365 56.4713 0.290203 51.337L1.04271 44.4809C1.0427 44.481 1.04272 44.4807 1.04271 44.4809C1.83773 37.2279 7.89926 32.6335 14.2385 32.4887Z" fill="black"/>
<path fill-rule="evenodd" clip-rule="evenodd" d="M21.2319 23.9213C21.2319 22.7655 22.1689 21.8286 23.3246 21.8286C31.7629 21.8286 38.6152 28.6809 38.6152 37.1192C38.6152 38.2749 37.6782 39.2118 36.5225 39.2118C35.3667 39.2118 34.4298 38.2749 34.4298 37.1192C34.4298 30.9924 29.4514 26.014 23.3246 26.014C22.1689 26.014 21.2319 25.0771 21.2319 23.9213Z" fill="black"/>
</svg>
