<svg width="186" height="61" viewBox="0 0 186 61" fill="none" xmlns="http://www.w3.org/2000/svg">
<path d="M13.4722 60.5627C11.0428 60.5574 8.65979 59.8966 6.5745 58.6502C4.48921 57.4037 2.77886 55.6177 1.62377 53.4804C0.468681 51.3432 -0.0883563 48.9338 0.0113865 46.5065C0.111129 44.0791 0.863957 41.7236 2.1905 39.6883L23.7823 6.56058C25.6964 3.62951 28.6952 1.57755 32.1206 0.854976C35.546 0.132404 39.1181 0.798253 42.0531 2.70641C43.6303 3.73878 44.9861 5.07493 46.0414 6.63689C47.0967 8.19884 47.8304 9.95533 48.1996 11.8039L50.1599 21.7496C50.7377 24.7162 52.2153 27.4329 54.3918 29.53L55.4639 30.5643C57.0827 32.128 59.2232 33.3482 61.8249 34.1907C67.5047 36.0277 71.3133 41.1913 71.3133 47.038C71.3133 54.4997 65.1003 60.5703 57.4603 60.5703C49.8202 60.5703 43.6073 54.4978 43.6073 47.038C43.6074 46.3197 43.6658 45.6025 43.7818 44.8936L43.8881 44.2484C44.0912 43.0206 44.2847 41.8592 44.372 40.7092L44.6035 37.7014C44.6641 36.9187 44.4655 36.1378 44.0383 35.4791C43.6111 34.8204 42.9791 34.3205 42.2397 34.0566C41.5003 33.7927 40.6946 33.7793 39.9469 34.0186C39.1992 34.2578 38.5509 34.7364 38.1021 35.3806L24.7804 54.475C23.8152 55.9544 22.5673 57.2285 21.1084 58.2244C19.6494 59.2203 18.0082 59.9182 16.2788 60.2781C15.3557 60.4699 14.4151 60.5653 13.4722 60.5627ZM41.0264 28.6818C42.2295 28.6821 43.4196 28.9306 44.5222 29.412C45.6248 29.8933 46.6162 30.5971 47.4343 31.4791C48.2525 32.3612 48.8797 33.4027 49.2769 34.5383C49.674 35.674 49.8325 36.8794 49.7424 38.0791L49.5109 41.085C49.4047 42.4627 49.1845 43.7892 48.972 45.0701L48.8676 45.702C48.797 46.1368 48.7615 46.5766 48.7613 47.0171C48.7613 51.6399 52.6649 55.401 57.4641 55.401C62.2633 55.401 66.1668 51.6399 66.1668 47.0171C66.1668 43.4115 63.7833 40.214 60.2347 39.0659C56.8796 37.9804 54.0691 36.3598 51.8849 34.2458L50.8127 33.2229C47.8804 30.399 45.8881 26.7411 45.1064 22.7459L43.1461 12.7982C42.9116 11.6242 42.4457 10.5085 41.7755 9.51645C41.1053 8.52435 40.2443 7.67564 39.2426 7.01982C37.4519 5.85489 35.2721 5.44819 33.1818 5.88902C31.0915 6.32985 29.2615 7.58218 28.0938 9.37104L6.50392 42.5007C5.89409 43.4191 5.47219 44.4492 5.26257 45.5316C5.05294 46.614 5.05973 47.7271 5.28256 48.8069C5.50539 49.8866 5.93983 50.9115 6.56083 51.8224C7.18182 52.7334 7.97707 53.5123 8.90068 54.1143C9.82429 54.7163 10.858 55.1295 11.9421 55.3299C13.0262 55.5303 14.1393 55.5141 15.217 55.2821C16.2948 55.0501 17.316 54.6069 18.2216 53.9782C19.1273 53.3495 19.8995 52.5477 20.4936 51.619L20.5391 51.5526L33.8893 32.4259C34.6891 31.2729 35.7563 30.3308 36.9995 29.6801C38.2427 29.0294 39.6251 28.6895 41.0283 28.6894L41.0264 28.6818Z" fill="white"/>
<path fill-rule="evenodd" clip-rule="evenodd" d="M182.519 8.94646C183.63 10.0731 184.499 11.415 185.073 12.8898C185.685 14.4799 185.989 16.1715 185.971 17.875C185.993 19.5773 185.691 21.2684 185.083 22.8583C184.509 24.3337 183.64 25.6763 182.528 26.8036C181.414 27.9258 180.076 28.8018 178.602 29.3749C175.393 30.5724 171.86 30.5724 168.651 29.3749C167.183 28.7988 165.852 27.923 164.742 26.8036C163.63 25.6766 162.762 24.3339 162.189 22.8583C161.576 21.2694 161.27 19.5782 161.29 17.875C161.271 16.1713 161.576 14.4795 162.189 12.8898C162.758 11.4159 163.624 10.075 164.734 8.95114C165.844 7.82725 167.174 6.94448 168.641 6.35803C171.846 5.13586 175.388 5.13586 178.593 6.35803C180.066 6.94083 181.403 7.82211 182.519 8.94646ZM177.289 24.3195C178.352 23.7148 179.225 22.824 179.807 21.7482C180.418 20.645 180.724 19.3419 180.724 17.839C180.755 16.4907 180.44 15.1569 179.807 13.9658C179.227 12.8929 178.354 12.007 177.289 11.4115C176.158 10.819 174.9 10.5109 173.623 10.5139C172.347 10.5169 171.09 10.8308 169.962 11.4286C168.902 12.0305 168.031 12.9148 167.444 13.9829C166.834 15.0747 166.529 16.3721 166.529 17.875C166.497 19.2231 166.812 20.5569 167.444 21.7482C168.026 22.824 168.899 23.7148 169.962 24.3195C171.089 24.9212 172.348 25.236 173.626 25.236C174.903 25.236 176.162 24.9212 177.289 24.3195ZM158.024 18.6855C158.81 17.4407 159.202 15.9491 159.202 14.2108C159.202 12.4966 158.81 11.0177 158.024 9.77406C157.242 8.53449 156.133 7.53499 154.819 6.8858C153.389 6.18663 151.814 5.83673 150.223 5.86485H141.376V29.8496H146.518V22.5587H149.993L153.809 29.8496H159.444L155.039 21.4334C156.259 20.7971 157.289 19.849 158.024 18.6855ZM146.524 10.8311H149.834C151.125 10.8311 152.129 11.1182 152.845 11.6926C153.561 12.267 153.919 13.1064 153.919 14.2108C153.919 15.3153 153.561 16.1553 152.845 16.7309C152.129 17.3066 151.125 17.5937 149.834 17.5925H146.524V10.8311ZM86.5419 5.86523L78.0176 29.85H83.1963L84.7353 25.3771H93.6677L95.1004 29.85H100.313L92.2122 5.86523H86.5419ZM86.373 20.6216L89.3638 11.9321L92.1458 20.6216H86.373ZM107.604 5.86523H102.462V29.8518H107.604V5.86523ZM129.688 5.86524C131.497 5.86397 133.07 6.21631 134.407 6.92224C135.718 7.59993 136.802 8.64611 137.525 9.93195C138.264 11.2363 138.633 12.7804 138.633 14.5642C138.633 16.348 138.264 17.8921 137.525 19.1964C136.801 20.4837 135.71 21.5257 134.39 22.189C133.039 22.8823 131.472 23.229 129.688 23.229H126.13V29.85H120.989V5.86524H129.688ZM129.308 18.2627C130.599 18.2627 131.602 17.9395 132.32 17.293H132.312C133.028 16.6542 133.386 15.7445 133.386 14.5642C133.39 13.3206 133.032 12.3875 132.312 11.7651C131.592 11.1427 130.6 10.8315 129.335 10.8315H126.13V18.2627H129.308ZM91.9543 45.8419C92.6147 44.7981 92.9443 43.5495 92.943 42.0958C92.9418 40.6422 92.6122 39.403 91.9543 38.3783C91.3004 37.34 90.3716 36.5032 89.271 35.9607C88.074 35.3748 86.755 35.0814 85.4225 35.1048H78.0216V55.1917H82.3293V49.085H85.2385L88.4304 55.1917H93.1499L89.457 48.1361C90.4772 47.605 91.3388 46.8135 91.9543 45.8419ZM82.3255 39.2626H85.098C86.1797 39.2626 87.0185 39.5036 87.6201 39.9856C88.2216 40.4676 88.5195 41.1717 88.5195 42.0958C88.5195 43.02 88.2197 43.7222 87.6201 44.2042C87.0204 44.6862 86.1797 44.9272 85.098 44.9272H82.3255V39.2626ZM108.486 55.1914H95.7147V35.1045H108.486V39.2054H100.021V43.069H106.864V47.168H100.021V51.0905H108.486V55.1914ZM122.821 44.4548C121.818 43.8855 120.489 43.4035 118.836 43.0088C117.458 42.6951 116.534 42.356 116.063 41.9916C115.843 41.8373 115.664 41.6318 115.541 41.3928C115.417 41.1538 115.354 40.8885 115.356 40.6196C115.345 40.3511 115.402 40.0843 115.524 39.8445C115.645 39.6046 115.825 39.3998 116.048 39.2495C116.51 38.9256 117.163 38.7631 118.009 38.7618C118.744 38.7676 119.47 38.9178 120.147 39.204C120.88 39.5122 121.517 40.0116 121.992 40.65L125.354 38.3196C124.641 37.2303 123.676 36.3288 122.54 35.6914C121.371 35.0234 119.941 34.6888 118.25 34.6875C116.754 34.6875 115.466 34.9532 114.386 35.4845C113.369 35.9599 112.505 36.7106 111.892 37.6517C111.305 38.5931 111.003 39.6847 111.023 40.7942C111.009 41.7363 111.211 42.6691 111.613 43.5212C112.007 44.3372 112.68 45.0406 113.632 45.6314C114.585 46.2222 115.878 46.7137 117.511 47.1059C118.302 47.272 119.073 47.5187 119.813 47.8422C120.241 48.0208 120.62 48.2993 120.918 48.6544C121.129 48.9509 121.238 49.3078 121.229 49.6715C121.238 49.9531 121.181 50.2329 121.063 50.4887C120.945 50.7446 120.769 50.9696 120.55 51.146C120.098 51.5256 119.429 51.7153 118.544 51.7153C117.569 51.7282 116.61 51.4728 115.771 50.9771C114.907 50.4441 114.189 49.7038 113.684 48.8233L110.321 50.9107C110.812 51.9342 111.498 52.8521 112.34 53.613C113.132 54.3086 114.055 54.8401 115.054 55.1767C116.105 55.5266 117.206 55.701 118.314 55.6929C119.832 55.6929 121.14 55.4221 122.237 54.8807C123.273 54.3974 124.155 53.6376 124.787 52.685C125.392 51.7441 125.704 50.6455 125.687 49.5273C125.716 48.4935 125.483 47.4692 125.009 46.5499C124.554 45.7225 123.824 45.0241 122.821 44.4548ZM138.985 50.191C139.634 49.4104 139.959 48.3243 139.959 46.9327V35.1045H144.306V46.8435C144.306 48.7715 143.99 50.3789 143.358 51.6655C142.774 52.9054 141.807 53.9243 140.598 54.5708C139.388 55.2198 137.898 55.5443 136.129 55.5443C134.361 55.5443 132.872 55.2198 131.662 54.5708C130.454 53.9243 129.486 52.9054 128.903 51.6655C128.27 50.3789 127.954 48.7715 127.954 46.8435V35.1045H132.268V46.9327C132.264 48.3281 132.591 49.4142 133.249 50.191C133.906 50.9678 134.865 51.3562 136.124 51.3562C137.382 51.36 138.336 50.9716 138.985 50.191ZM163.408 35.1035L158.703 48.5523L153.999 35.1035H150.133L146.594 55.1904H150.902L152.287 46.2239C152.485 45.0246 152.652 43.8297 152.788 42.6392L152.805 42.4836L152.862 42.698C153.167 43.829 153.526 44.9847 153.938 46.1651L157.007 54.9532H160.398L163.466 46.1651C163.879 45.0037 164.238 43.8531 164.542 42.7132L164.611 42.457C164.611 42.4972 164.617 42.5374 164.623 42.5798C164.626 42.6014 164.629 42.6237 164.632 42.6468C164.78 43.836 164.942 45.0309 165.117 46.2315L166.505 55.198H170.841L167.271 35.1035H163.408ZM185.971 35.1035V39.2044H177.505V43.0681H184.348V47.167H177.505V51.0895H185.971V55.1904H173.199V35.1035H185.971Z" fill="white"/>
</svg>
