<svg width="36" height="36" viewBox="0 0 36 36" fill="none" xmlns="http://www.w3.org/2000/svg">
<circle cx="18" cy="18" r="18" fill="url(#paint0_linear_1044_276)"/>
<path d="M8.81762 19.39C8.95116 19.4991 9.1181 19.5535 9.31842 19.5535C9.64715 19.5535 9.87316 19.3827 9.99643 19.0409L10.9749 16.3812H15.3743L16.3605 19.0409C16.4837 19.3827 16.7098 19.5535 17.0385 19.5535C17.2388 19.5535 17.4032 19.4991 17.5316 19.39C17.6652 19.2761 17.7319 19.135 17.7319 18.9666C17.7319 18.8676 17.7037 18.7437 17.6471 18.5952L14.0645 9.26392C13.9001 8.83797 13.6099 8.625 13.1939 8.625C12.7521 8.625 12.4491 8.84045 12.2847 9.27135L8.70975 18.5952C8.65325 18.7437 8.625 18.8676 8.625 18.9666C8.625 19.135 8.6892 19.2761 8.81762 19.39ZM14.9814 15.2445H11.3756L13.1553 10.356H13.2016L14.9814 15.2445ZM18.6426 18.7387L20.235 17.1463C20.0256 16.7071 19.921 16.1843 19.921 15.5782C19.921 14.7309 20.1278 14.0462 20.5416 13.524C20.9603 12.9969 21.4973 12.7334 22.1524 12.7334C22.8322 12.7334 23.3691 12.9895 23.7632 13.5018C24.0879 13.9239 24.2788 14.4681 24.336 15.1344C24.7227 15.2615 25.0861 15.4788 25.3937 15.7863L25.6538 16.0464C25.6642 15.8946 25.6695 15.7385 25.6695 15.5782C25.6695 14.3762 25.3715 13.4132 24.7755 12.689C24.1794 11.9649 23.3962 11.6028 22.4258 11.6028C21.8889 11.6028 21.4037 11.7284 20.9702 11.9797C20.5416 12.2309 20.2042 12.5782 19.9578 13.0215H19.9283V9.31219C19.9283 9.11022 19.8668 8.9452 19.7436 8.81711C19.6253 8.68904 19.4726 8.625 19.2855 8.625C19.0982 8.625 18.9431 8.68904 18.8199 8.81711C18.7017 8.9452 18.6426 9.11022 18.6426 9.31219V18.7387ZM22.2685 26.3839H25.0192C25.3964 26.3839 25.7022 26.6897 25.7022 27.067C25.7022 27.4442 25.3964 27.75 25.0192 27.75H20.0091L20.0113 27.7433C19.61 27.7084 19.2183 27.5374 18.9112 27.2304L16.4305 24.7497C15.7372 24.0563 15.7379 22.9314 16.4321 22.2372L22.2374 16.4319C22.9315 15.7376 24.0564 15.7369 24.7497 16.4303L27.2304 18.911C27.9238 19.6044 27.9231 20.7292 27.2289 21.4235L22.2685 26.3839ZM23.2033 17.3978L19.4176 21.1836L22.4773 24.2432L26.2629 20.4575C26.4248 20.2957 26.4232 20.0357 26.2645 19.877L23.7838 17.3962C23.625 17.2375 23.3651 17.2359 23.2033 17.3978ZM18.4516 22.1495L17.3981 23.2032C17.2361 23.365 17.2377 23.6249 17.3965 23.7837L19.8772 26.2645C20.0359 26.4232 20.2958 26.4247 20.4577 26.2629L21.5113 25.2092L18.4516 22.1495Z" fill="white"/>
<defs>
<linearGradient id="paint0_linear_1044_276" x1="0" y1="18" x2="36" y2="18" gradientUnits="userSpaceOnUse">
<stop stop-color="#8E7BFE"/>
<stop offset="1" stop-color="#7FA7FF"/>
</linearGradient>
</defs>
</svg>
