<svg width="571" height="239" viewBox="0 0 571 239" fill="none" xmlns="http://www.w3.org/2000/svg">
<rect width="571" height="239" rx="20" fill="#D8E6FE"/>
<path d="M49.0299 41.216C48.0819 41.216 47.1939 41.048 46.3659 40.712C45.5379 40.364 44.8119 39.878 44.1879 39.254C43.5759 38.63 43.0959 37.898 42.7479 37.058C42.3999 36.206 42.2259 35.282 42.2259 34.286C42.2259 33.278 42.3999 32.354 42.7479 31.514C43.0959 30.674 43.5759 29.942 44.1879 29.318C44.8119 28.694 45.5319 28.214 46.3479 27.878C47.1759 27.542 48.0699 27.374 49.0299 27.374C49.9899 27.374 50.8779 27.548 51.6939 27.896C52.5219 28.232 53.2419 28.712 53.8539 29.336C54.4779 29.948 54.9639 30.674 55.3119 31.514C55.6719 32.354 55.8519 33.278 55.8519 34.286C55.8519 35.282 55.6719 36.206 55.3119 37.058C54.9639 37.898 54.4779 38.63 53.8539 39.254C53.2419 39.878 52.5219 40.364 51.6939 40.712C50.8779 41.048 49.9899 41.216 49.0299 41.216ZM49.0299 39.578C49.7739 39.578 50.4519 39.446 51.0639 39.182C51.6759 38.906 52.2039 38.528 52.6479 38.048C53.1039 37.556 53.4519 36.992 53.6919 36.356C53.9439 35.708 54.0699 35.018 54.0699 34.286C54.0699 33.554 53.9439 32.87 53.6919 32.234C53.4519 31.598 53.1039 31.04 52.6479 30.56C52.2039 30.068 51.6759 29.69 51.0639 29.426C50.4519 29.15 49.7739 29.012 49.0299 29.012C48.2979 29.012 47.6259 29.15 47.0139 29.426C46.4019 29.69 45.8679 30.068 45.4119 30.56C44.9679 31.04 44.6199 31.598 44.3679 32.234C44.1159 32.87 43.9899 33.554 43.9899 34.286C43.9899 35.018 44.1159 35.708 44.3679 36.356C44.6199 36.992 44.9679 37.556 45.4119 38.048C45.8679 38.528 46.4019 38.906 47.0139 39.182C47.6259 39.446 48.2979 39.578 49.0299 39.578ZM62.8347 41.216C61.8987 41.216 61.0527 41 60.2967 40.568C59.5407 40.124 58.9407 39.518 58.4967 38.75C58.0527 37.982 57.8307 37.112 57.8307 36.14C57.8307 35.168 58.0467 34.304 58.4787 33.548C58.9227 32.792 59.5227 32.192 60.2787 31.748C61.0347 31.304 61.8867 31.082 62.8347 31.082C63.7707 31.082 64.6167 31.304 65.3727 31.748C66.1287 32.18 66.7227 32.774 67.1547 33.53C67.5987 34.286 67.8207 35.156 67.8207 36.14C67.8207 37.124 67.5927 38 67.1367 38.768C66.6807 39.524 66.0747 40.124 65.3187 40.568C64.5747 41 63.7467 41.216 62.8347 41.216ZM62.8347 39.596C63.4347 39.596 63.9747 39.446 64.4547 39.146C64.9467 38.846 65.3307 38.432 65.6067 37.904C65.8947 37.376 66.0387 36.788 66.0387 36.14C66.0387 35.48 65.8947 34.898 65.6067 34.394C65.3307 33.878 64.9467 33.47 64.4547 33.17C63.9747 32.858 63.4347 32.702 62.8347 32.702C62.2227 32.702 61.6707 32.858 61.1787 33.17C60.6987 33.47 60.3147 33.878 60.0267 34.394C59.7387 34.898 59.5947 35.48 59.5947 36.14C59.5947 36.788 59.7387 37.376 60.0267 37.904C60.3147 38.432 60.6987 38.846 61.1787 39.146C61.6707 39.446 62.2227 39.596 62.8347 39.596ZM70.004 44.6V31.298H71.642V33.386L71.426 32.972C71.786 32.396 72.278 31.94 72.902 31.604C73.526 31.256 74.24 31.082 75.044 31.082C75.956 31.082 76.772 31.304 77.492 31.748C78.224 32.192 78.8 32.798 79.22 33.566C79.64 34.322 79.85 35.186 79.85 36.158C79.85 37.106 79.64 37.964 79.22 38.732C78.8 39.5 78.224 40.106 77.492 40.55C76.772 40.994 75.95 41.216 75.026 41.216C74.246 41.216 73.532 41.042 72.884 40.694C72.248 40.346 71.756 39.854 71.408 39.218L71.678 38.93V44.6H70.004ZM74.9 39.596C75.512 39.596 76.058 39.446 76.538 39.146C77.018 38.846 77.39 38.438 77.654 37.922C77.93 37.394 78.068 36.806 78.068 36.158C78.068 35.486 77.93 34.898 77.654 34.394C77.39 33.878 77.018 33.47 76.538 33.17C76.058 32.858 75.512 32.702 74.9 32.702C74.288 32.702 73.736 32.852 73.244 33.152C72.764 33.452 72.38 33.866 72.092 34.394C71.816 34.91 71.678 35.498 71.678 36.158C71.678 36.806 71.816 37.394 72.092 37.922C72.38 38.438 72.764 38.846 73.244 39.146C73.736 39.446 74.288 39.596 74.9 39.596ZM85.519 41.216C84.547 41.216 83.701 40.976 82.981 40.496C82.261 40.016 81.751 39.368 81.451 38.552L82.783 37.904C83.059 38.48 83.437 38.936 83.917 39.272C84.397 39.608 84.931 39.776 85.519 39.776C86.047 39.776 86.485 39.65 86.833 39.398C87.181 39.146 87.355 38.816 87.355 38.408C87.355 38.12 87.271 37.892 87.103 37.724C86.947 37.544 86.755 37.406 86.527 37.31C86.299 37.202 86.089 37.124 85.897 37.076L84.439 36.662C83.563 36.41 82.921 36.05 82.513 35.582C82.117 35.114 81.919 34.568 81.919 33.944C81.919 33.368 82.063 32.87 82.351 32.45C82.651 32.018 83.053 31.682 83.557 31.442C84.073 31.202 84.649 31.082 85.285 31.082C86.137 31.082 86.899 31.298 87.571 31.73C88.255 32.162 88.741 32.768 89.029 33.548L87.661 34.178C87.445 33.674 87.121 33.278 86.689 32.99C86.257 32.69 85.771 32.54 85.231 32.54C84.739 32.54 84.349 32.666 84.061 32.918C83.773 33.158 83.629 33.464 83.629 33.836C83.629 34.112 83.701 34.34 83.845 34.52C83.989 34.688 84.163 34.82 84.367 34.916C84.571 35 84.769 35.072 84.961 35.132L86.545 35.6C87.337 35.828 87.949 36.182 88.381 36.662C88.825 37.142 89.047 37.718 89.047 38.39C89.047 38.93 88.897 39.416 88.597 39.848C88.297 40.28 87.883 40.616 87.355 40.856C86.827 41.096 86.215 41.216 85.519 41.216ZM91.9764 37.076L91.8684 27.59H93.6324L93.5064 37.076H91.9764ZM91.8684 41V38.84H93.6324V41H91.8684ZM100.155 41V27.59H101.919V41H100.155ZM108.645 41.108C107.697 41.108 106.965 40.838 106.449 40.298C105.945 39.758 105.693 38.996 105.693 38.012V32.9H103.929V31.298H104.289C104.721 31.298 105.063 31.166 105.315 30.902C105.567 30.638 105.693 30.29 105.693 29.858V29.066H107.367V31.298H109.545V32.9H107.367V37.958C107.367 38.282 107.415 38.564 107.511 38.804C107.619 39.044 107.793 39.236 108.033 39.38C108.273 39.512 108.591 39.578 108.987 39.578C109.071 39.578 109.173 39.572 109.293 39.56C109.425 39.548 109.545 39.536 109.653 39.524V41C109.497 41.036 109.323 41.06 109.131 41.072C108.939 41.096 108.777 41.108 108.645 41.108ZM115.149 41V27.59H116.913V39.38H122.799V41H115.149ZM129.192 41.216C128.256 41.216 127.41 41 126.654 40.568C125.898 40.124 125.298 39.518 124.854 38.75C124.41 37.982 124.188 37.112 124.188 36.14C124.188 35.168 124.404 34.304 124.836 33.548C125.28 32.792 125.88 32.192 126.636 31.748C127.392 31.304 128.244 31.082 129.192 31.082C130.128 31.082 130.974 31.304 131.73 31.748C132.486 32.18 133.08 32.774 133.512 33.53C133.956 34.286 134.178 35.156 134.178 36.14C134.178 37.124 133.95 38 133.494 38.768C133.038 39.524 132.432 40.124 131.676 40.568C130.932 41 130.104 41.216 129.192 41.216ZM129.192 39.596C129.792 39.596 130.332 39.446 130.812 39.146C131.304 38.846 131.688 38.432 131.964 37.904C132.252 37.376 132.396 36.788 132.396 36.14C132.396 35.48 132.252 34.898 131.964 34.394C131.688 33.878 131.304 33.47 130.812 33.17C130.332 32.858 129.792 32.702 129.192 32.702C128.58 32.702 128.028 32.858 127.536 33.17C127.056 33.47 126.672 33.878 126.384 34.394C126.096 34.898 125.952 35.48 125.952 36.14C125.952 36.788 126.096 37.376 126.384 37.904C126.672 38.432 127.056 38.846 127.536 39.146C128.028 39.446 128.58 39.596 129.192 39.596ZM140.969 41.216C140.033 41.216 139.187 41 138.431 40.568C137.675 40.124 137.075 39.518 136.631 38.75C136.187 37.982 135.965 37.112 135.965 36.14C135.965 35.168 136.181 34.304 136.613 33.548C137.057 32.792 137.657 32.192 138.413 31.748C139.169 31.304 140.021 31.082 140.969 31.082C141.905 31.082 142.751 31.304 143.507 31.748C144.263 32.18 144.857 32.774 145.289 33.53C145.733 34.286 145.955 35.156 145.955 36.14C145.955 37.124 145.727 38 145.271 38.768C144.815 39.524 144.209 40.124 143.453 40.568C142.709 41 141.881 41.216 140.969 41.216ZM140.969 39.596C141.569 39.596 142.109 39.446 142.589 39.146C143.081 38.846 143.465 38.432 143.741 37.904C144.029 37.376 144.173 36.788 144.173 36.14C144.173 35.48 144.029 34.898 143.741 34.394C143.465 33.878 143.081 33.47 142.589 33.17C142.109 32.858 141.569 32.702 140.969 32.702C140.357 32.702 139.805 32.858 139.313 33.17C138.833 33.47 138.449 33.878 138.161 34.394C137.873 34.898 137.729 35.48 137.729 36.14C137.729 36.788 137.873 37.376 138.161 37.904C138.449 38.432 138.833 38.846 139.313 39.146C139.805 39.446 140.357 39.596 140.969 39.596ZM148.139 41V27.374H149.813V36.716L149.129 36.554L154.277 31.298H156.419L152.693 35.204L156.671 41H154.691L151.055 35.744L152.099 35.69L149.273 38.642L149.813 37.418V41H148.139ZM161.65 41.216C160.678 41.216 159.832 40.976 159.112 40.496C158.392 40.016 157.882 39.368 157.582 38.552L158.914 37.904C159.19 38.48 159.568 38.936 160.048 39.272C160.528 39.608 161.062 39.776 161.65 39.776C162.178 39.776 162.616 39.65 162.964 39.398C163.312 39.146 163.486 38.816 163.486 38.408C163.486 38.12 163.402 37.892 163.234 37.724C163.078 37.544 162.886 37.406 162.658 37.31C162.43 37.202 162.22 37.124 162.028 37.076L160.57 36.662C159.694 36.41 159.052 36.05 158.644 35.582C158.248 35.114 158.05 34.568 158.05 33.944C158.05 33.368 158.194 32.87 158.482 32.45C158.782 32.018 159.184 31.682 159.688 31.442C160.204 31.202 160.78 31.082 161.416 31.082C162.268 31.082 163.03 31.298 163.702 31.73C164.386 32.162 164.872 32.768 165.16 33.548L163.792 34.178C163.576 33.674 163.252 33.278 162.82 32.99C162.388 32.69 161.902 32.54 161.362 32.54C160.87 32.54 160.48 32.666 160.192 32.918C159.904 33.158 159.76 33.464 159.76 33.836C159.76 34.112 159.832 34.34 159.976 34.52C160.12 34.688 160.294 34.82 160.498 34.916C160.702 35 160.9 35.072 161.092 35.132L162.676 35.6C163.468 35.828 164.08 36.182 164.512 36.662C164.956 37.142 165.178 37.718 165.178 38.39C165.178 38.93 165.028 39.416 164.728 39.848C164.428 40.28 164.014 40.616 163.486 40.856C162.958 41.096 162.346 41.216 161.65 41.216ZM170.679 41V27.59H172.443V39.38H178.329V41H170.679ZM180.113 41V31.298H181.787V41H180.113ZM180.113 29.75V27.59H181.787V29.75H180.113ZM184.385 41V27.374H186.059V36.716L185.375 36.554L190.523 31.298H192.665L188.939 35.204L192.917 41H190.937L187.301 35.744L188.345 35.69L185.519 38.642L186.059 37.418V41H184.385ZM198.71 41.216C197.774 41.216 196.94 40.994 196.208 40.55C195.476 40.106 194.9 39.5 194.48 38.732C194.06 37.952 193.85 37.082 193.85 36.122C193.85 35.15 194.054 34.286 194.462 33.53C194.882 32.774 195.446 32.18 196.154 31.748C196.874 31.304 197.678 31.082 198.566 31.082C199.286 31.082 199.922 31.214 200.474 31.478C201.038 31.73 201.512 32.078 201.896 32.522C202.292 32.954 202.592 33.452 202.796 34.016C203.012 34.568 203.12 35.144 203.12 35.744C203.12 35.876 203.108 36.026 203.084 36.194C203.072 36.35 203.054 36.5 203.03 36.644H195.074V35.204H202.058L201.266 35.852C201.374 35.228 201.314 34.67 201.086 34.178C200.858 33.686 200.522 33.296 200.078 33.008C199.634 32.72 199.13 32.576 198.566 32.576C198.002 32.576 197.486 32.72 197.018 33.008C196.55 33.296 196.184 33.71 195.92 34.25C195.668 34.778 195.566 35.408 195.614 36.14C195.566 36.848 195.674 37.472 195.938 38.012C196.214 38.54 196.598 38.954 197.09 39.254C197.594 39.542 198.14 39.686 198.728 39.686C199.376 39.686 199.922 39.536 200.366 39.236C200.81 38.936 201.17 38.552 201.446 38.084L202.85 38.804C202.658 39.248 202.358 39.656 201.95 40.028C201.554 40.388 201.08 40.676 200.528 40.892C199.988 41.108 199.382 41.216 198.71 41.216ZM211.96 41V34.862L207.316 27.59H209.314L213.202 33.692H212.482L216.352 27.59H218.35L213.742 34.862V41H211.96ZM222.708 41.216C221.772 41.216 220.926 41 220.17 40.568C219.414 40.124 218.814 39.518 218.37 38.75C217.926 37.982 217.704 37.112 217.704 36.14C217.704 35.168 217.92 34.304 218.352 33.548C218.796 32.792 219.396 32.192 220.152 31.748C220.908 31.304 221.76 31.082 222.708 31.082C223.644 31.082 224.49 31.304 225.246 31.748C226.002 32.18 226.596 32.774 227.028 33.53C227.472 34.286 227.694 35.156 227.694 36.14C227.694 37.124 227.466 38 227.01 38.768C226.554 39.524 225.948 40.124 225.192 40.568C224.448 41 223.62 41.216 222.708 41.216ZM222.708 39.596C223.308 39.596 223.848 39.446 224.328 39.146C224.82 38.846 225.204 38.432 225.48 37.904C225.768 37.376 225.912 36.788 225.912 36.14C225.912 35.48 225.768 34.898 225.48 34.394C225.204 33.878 224.82 33.47 224.328 33.17C223.848 32.858 223.308 32.702 222.708 32.702C222.096 32.702 221.544 32.858 221.052 33.17C220.572 33.47 220.188 33.878 219.9 34.394C219.612 34.898 219.468 35.48 219.468 36.14C219.468 36.788 219.612 37.376 219.9 37.904C220.188 38.432 220.572 38.846 221.052 39.146C221.544 39.446 222.096 39.596 222.708 39.596ZM233.315 41.216C232.619 41.216 231.989 41.054 231.425 40.73C230.873 40.406 230.441 39.956 230.129 39.38C229.829 38.792 229.679 38.12 229.679 37.364V31.298H231.353V37.184C231.353 37.664 231.449 38.084 231.641 38.444C231.845 38.804 232.121 39.086 232.469 39.29C232.829 39.494 233.237 39.596 233.693 39.596C234.149 39.596 234.551 39.494 234.899 39.29C235.259 39.086 235.535 38.792 235.727 38.408C235.931 38.024 236.033 37.568 236.033 37.04V31.298H237.725V41H236.087V39.11L236.357 39.272C236.129 39.884 235.739 40.364 235.187 40.712C234.647 41.048 234.023 41.216 233.315 41.216ZM240.84 31.91L240.588 27.59H242.244L242.01 31.91H240.84ZM245.117 41V31.298H246.755V33.08L246.575 32.828C246.803 32.276 247.151 31.868 247.619 31.604C248.087 31.328 248.657 31.19 249.329 31.19H249.923V32.774H249.077C248.393 32.774 247.841 32.99 247.421 33.422C247.001 33.842 246.791 34.442 246.791 35.222V41H245.117ZM255.874 41.216C254.938 41.216 254.104 40.994 253.372 40.55C252.64 40.106 252.064 39.5 251.644 38.732C251.224 37.952 251.014 37.082 251.014 36.122C251.014 35.15 251.218 34.286 251.626 33.53C252.046 32.774 252.61 32.18 253.318 31.748C254.038 31.304 254.842 31.082 255.73 31.082C256.45 31.082 257.086 31.214 257.638 31.478C258.202 31.73 258.676 32.078 259.06 32.522C259.456 32.954 259.756 33.452 259.96 34.016C260.176 34.568 260.284 35.144 260.284 35.744C260.284 35.876 260.272 36.026 260.248 36.194C260.236 36.35 260.218 36.5 260.194 36.644H252.238V35.204H259.222L258.43 35.852C258.538 35.228 258.478 34.67 258.25 34.178C258.022 33.686 257.686 33.296 257.242 33.008C256.798 32.72 256.294 32.576 255.73 32.576C255.166 32.576 254.65 32.72 254.182 33.008C253.714 33.296 253.348 33.71 253.084 34.25C252.832 34.778 252.73 35.408 252.778 36.14C252.73 36.848 252.838 37.472 253.102 38.012C253.378 38.54 253.762 38.954 254.254 39.254C254.758 39.542 255.304 39.686 255.892 39.686C256.54 39.686 257.086 39.536 257.53 39.236C257.974 38.936 258.334 38.552 258.61 38.084L260.014 38.804C259.822 39.248 259.522 39.656 259.114 40.028C258.718 40.388 258.244 40.676 257.692 40.892C257.152 41.108 256.546 41.216 255.874 41.216ZM270.636 41.216C269.664 41.216 268.8 41.012 268.044 40.604C267.3 40.196 266.718 39.638 266.298 38.93C265.89 38.21 265.686 37.394 265.686 36.482V27.59H267.468V36.446C267.468 37.058 267.6 37.604 267.864 38.084C268.14 38.552 268.512 38.918 268.98 39.182C269.46 39.446 270.012 39.578 270.636 39.578C271.26 39.578 271.806 39.446 272.274 39.182C272.754 38.918 273.126 38.552 273.39 38.084C273.666 37.604 273.804 37.058 273.804 36.446V27.59H275.586V36.482C275.586 37.394 275.376 38.21 274.956 38.93C274.548 39.638 273.972 40.196 273.228 40.604C272.484 41.012 271.62 41.216 270.636 41.216ZM281.761 41.216C280.789 41.216 279.943 40.976 279.223 40.496C278.503 40.016 277.993 39.368 277.693 38.552L279.025 37.904C279.301 38.48 279.679 38.936 280.159 39.272C280.639 39.608 281.173 39.776 281.761 39.776C282.289 39.776 282.727 39.65 283.075 39.398C283.423 39.146 283.597 38.816 283.597 38.408C283.597 38.12 283.513 37.892 283.345 37.724C283.189 37.544 282.997 37.406 282.769 37.31C282.541 37.202 282.331 37.124 282.139 37.076L280.681 36.662C279.805 36.41 279.163 36.05 278.755 35.582C278.359 35.114 278.161 34.568 278.161 33.944C278.161 33.368 278.305 32.87 278.593 32.45C278.893 32.018 279.295 31.682 279.799 31.442C280.315 31.202 280.891 31.082 281.527 31.082C282.379 31.082 283.141 31.298 283.813 31.73C284.497 32.162 284.983 32.768 285.271 33.548L283.903 34.178C283.687 33.674 283.363 33.278 282.931 32.99C282.499 32.69 282.013 32.54 281.473 32.54C280.981 32.54 280.591 32.666 280.303 32.918C280.015 33.158 279.871 33.464 279.871 33.836C279.871 34.112 279.943 34.34 280.087 34.52C280.231 34.688 280.405 34.82 280.609 34.916C280.813 35 281.011 35.072 281.203 35.132L282.787 35.6C283.579 35.828 284.191 36.182 284.623 36.662C285.067 37.142 285.289 37.718 285.289 38.39C285.289 38.93 285.139 39.416 284.839 39.848C284.539 40.28 284.125 40.616 283.597 40.856C283.069 41.096 282.457 41.216 281.761 41.216ZM287.481 41V31.298H289.155V41H287.481ZM287.481 29.75V27.59H289.155V29.75H287.481ZM291.752 41V31.298H293.39V33.188L293.12 33.026C293.36 32.414 293.744 31.94 294.272 31.604C294.812 31.256 295.442 31.082 296.162 31.082C296.858 31.082 297.476 31.238 298.016 31.55C298.568 31.862 299 32.294 299.312 32.846C299.636 33.398 299.798 34.022 299.798 34.718V41H298.106V35.258C298.106 34.718 298.01 34.262 297.818 33.89C297.626 33.518 297.35 33.23 296.99 33.026C296.642 32.81 296.24 32.702 295.784 32.702C295.328 32.702 294.92 32.81 294.56 33.026C294.212 33.23 293.936 33.524 293.732 33.908C293.528 34.28 293.426 34.73 293.426 35.258V41H291.752ZM306.819 44.96C306.135 44.96 305.499 44.852 304.911 44.636C304.335 44.42 303.837 44.12 303.417 43.736C303.009 43.364 302.697 42.926 302.481 42.422L304.047 41.702C304.215 42.158 304.533 42.542 305.001 42.854C305.481 43.178 306.081 43.34 306.801 43.34C307.353 43.34 307.851 43.232 308.295 43.016C308.751 42.812 309.111 42.5 309.375 42.08C309.639 41.672 309.771 41.174 309.771 40.586V38.408L310.077 38.732C309.741 39.392 309.255 39.896 308.619 40.244C307.995 40.592 307.305 40.766 306.549 40.766C305.637 40.766 304.821 40.556 304.101 40.136C303.381 39.704 302.817 39.122 302.409 38.39C302.001 37.646 301.797 36.824 301.797 35.924C301.797 35.012 302.001 34.19 302.409 33.458C302.817 32.726 303.375 32.15 304.083 31.73C304.803 31.298 305.619 31.082 306.531 31.082C307.287 31.082 307.971 31.256 308.583 31.604C309.207 31.94 309.705 32.408 310.077 33.008L309.825 33.458V31.298H311.463V40.586C311.463 41.426 311.265 42.176 310.869 42.836C310.473 43.496 309.921 44.012 309.213 44.384C308.517 44.768 307.719 44.96 306.819 44.96ZM306.693 39.146C307.269 39.146 307.785 39.002 308.241 38.714C308.709 38.426 309.081 38.042 309.357 37.562C309.633 37.07 309.771 36.524 309.771 35.924C309.771 35.336 309.633 34.796 309.357 34.304C309.081 33.812 308.709 33.422 308.241 33.134C307.785 32.846 307.269 32.702 306.693 32.702C306.105 32.702 305.571 32.846 305.091 33.134C304.611 33.422 304.233 33.812 303.957 34.304C303.693 34.784 303.561 35.324 303.561 35.924C303.561 36.524 303.693 37.07 303.957 37.562C304.233 38.042 304.605 38.426 305.073 38.714C305.553 39.002 306.093 39.146 306.693 39.146ZM316.072 41L320.878 27.59H322.966L327.772 41H325.882L324.784 37.85H319.06L317.962 41H316.072ZM319.618 36.23H324.226L321.67 28.868H322.174L319.618 36.23ZM329.264 41V31.298H330.902V33.188L330.632 33.026C330.872 32.414 331.256 31.94 331.784 31.604C332.324 31.256 332.954 31.082 333.674 31.082C334.37 31.082 334.988 31.238 335.528 31.55C336.08 31.862 336.512 32.294 336.824 32.846C337.148 33.398 337.31 34.022 337.31 34.718V41H335.618V35.258C335.618 34.718 335.522 34.262 335.33 33.89C335.138 33.518 334.862 33.23 334.502 33.026C334.154 32.81 333.752 32.702 333.296 32.702C332.84 32.702 332.432 32.81 332.072 33.026C331.724 33.23 331.448 33.524 331.244 33.908C331.04 34.28 330.938 34.73 330.938 35.258V41H329.264ZM349.423 41.216C348.475 41.216 347.587 41.048 346.759 40.712C345.931 40.364 345.205 39.878 344.581 39.254C343.969 38.63 343.489 37.898 343.141 37.058C342.793 36.206 342.619 35.282 342.619 34.286C342.619 33.278 342.793 32.354 343.141 31.514C343.489 30.674 343.969 29.942 344.581 29.318C345.205 28.694 345.925 28.214 346.741 27.878C347.569 27.542 348.463 27.374 349.423 27.374C350.383 27.374 351.271 27.548 352.087 27.896C352.915 28.232 353.635 28.712 354.247 29.336C354.871 29.948 355.357 30.674 355.705 31.514C356.065 32.354 356.245 33.278 356.245 34.286C356.245 35.282 356.065 36.206 355.705 37.058C355.357 37.898 354.871 38.63 354.247 39.254C353.635 39.878 352.915 40.364 352.087 40.712C351.271 41.048 350.383 41.216 349.423 41.216ZM349.423 39.578C350.167 39.578 350.845 39.446 351.457 39.182C352.069 38.906 352.597 38.528 353.041 38.048C353.497 37.556 353.845 36.992 354.085 36.356C354.337 35.708 354.463 35.018 354.463 34.286C354.463 33.554 354.337 32.87 354.085 32.234C353.845 31.598 353.497 31.04 353.041 30.56C352.597 30.068 352.069 29.69 351.457 29.426C350.845 29.15 350.167 29.012 349.423 29.012C348.691 29.012 348.019 29.15 347.407 29.426C346.795 29.69 346.261 30.068 345.805 30.56C345.361 31.04 345.013 31.598 344.761 32.234C344.509 32.87 344.383 33.554 344.383 34.286C344.383 35.018 344.509 35.708 344.761 36.356C345.013 36.992 345.361 37.556 345.805 38.048C346.261 38.528 346.795 38.906 347.407 39.182C348.019 39.446 348.691 39.578 349.423 39.578ZM362.057 41.216C361.361 41.216 360.731 41.054 360.167 40.73C359.615 40.406 359.183 39.956 358.871 39.38C358.571 38.792 358.421 38.12 358.421 37.364V31.298H360.095V37.184C360.095 37.664 360.191 38.084 360.383 38.444C360.587 38.804 360.863 39.086 361.211 39.29C361.571 39.494 361.979 39.596 362.435 39.596C362.891 39.596 363.293 39.494 363.641 39.29C364.001 39.086 364.277 38.792 364.469 38.408C364.673 38.024 364.775 37.568 364.775 37.04V31.298H366.467V41H364.829V39.11L365.099 39.272C364.871 39.884 364.481 40.364 363.929 40.712C363.389 41.048 362.765 41.216 362.057 41.216ZM373.003 41.108C372.055 41.108 371.323 40.838 370.807 40.298C370.303 39.758 370.051 38.996 370.051 38.012V32.9H368.287V31.298H368.647C369.079 31.298 369.421 31.166 369.673 30.902C369.925 30.638 370.051 30.29 370.051 29.858V29.066H371.725V31.298H373.903V32.9H371.725V37.958C371.725 38.282 371.773 38.564 371.869 38.804C371.977 39.044 372.151 39.236 372.391 39.38C372.631 39.512 372.949 39.578 373.345 39.578C373.429 39.578 373.531 39.572 373.651 39.56C373.783 39.548 373.903 39.536 374.011 39.524V41C373.855 41.036 373.681 41.06 373.489 41.072C373.297 41.096 373.135 41.108 373.003 41.108ZM380.344 41.216C379.432 41.216 378.61 40.994 377.878 40.55C377.158 40.106 376.588 39.5 376.168 38.732C375.748 37.964 375.538 37.106 375.538 36.158C375.538 35.186 375.748 34.322 376.168 33.566C376.588 32.798 377.158 32.192 377.878 31.748C378.61 31.304 379.432 31.082 380.344 31.082C381.148 31.082 381.862 31.256 382.486 31.604C383.11 31.94 383.602 32.396 383.962 32.972L383.692 33.386V27.374H385.384V41H383.746V38.93L383.962 39.218C383.626 39.854 383.134 40.346 382.486 40.694C381.85 41.042 381.136 41.216 380.344 41.216ZM380.488 39.596C381.1 39.596 381.646 39.446 382.126 39.146C382.606 38.846 382.984 38.438 383.26 37.922C383.548 37.394 383.692 36.806 383.692 36.158C383.692 35.498 383.548 34.91 383.26 34.394C382.984 33.866 382.606 33.452 382.126 33.152C381.646 32.852 381.1 32.702 380.488 32.702C379.888 32.702 379.342 32.858 378.85 33.17C378.37 33.47 377.992 33.878 377.716 34.394C377.44 34.898 377.302 35.486 377.302 36.158C377.302 36.806 377.44 37.394 377.716 37.922C377.992 38.438 378.37 38.846 378.85 39.146C379.33 39.446 379.876 39.596 380.488 39.596ZM390.819 41.216C390.183 41.216 389.619 41.102 389.127 40.874C388.647 40.634 388.269 40.31 387.993 39.902C387.717 39.482 387.579 39.002 387.579 38.462C387.579 37.946 387.687 37.484 387.903 37.076C388.131 36.656 388.479 36.302 388.947 36.014C389.427 35.726 390.027 35.522 390.747 35.402L394.347 34.808V36.212L391.125 36.752C390.501 36.86 390.045 37.058 389.757 37.346C389.481 37.634 389.343 37.988 389.343 38.408C389.343 38.804 389.499 39.134 389.811 39.398C390.135 39.662 390.537 39.794 391.017 39.794C391.629 39.794 392.157 39.668 392.601 39.416C393.057 39.152 393.411 38.798 393.663 38.354C393.927 37.91 394.059 37.418 394.059 36.878V34.412C394.059 33.884 393.861 33.458 393.465 33.134C393.081 32.798 392.571 32.63 391.935 32.63C391.383 32.63 390.891 32.774 390.459 33.062C390.039 33.338 389.727 33.71 389.523 34.178L388.065 33.422C388.245 32.978 388.533 32.582 388.929 32.234C389.325 31.874 389.787 31.592 390.315 31.388C390.843 31.184 391.395 31.082 391.971 31.082C392.715 31.082 393.369 31.226 393.933 31.514C394.497 31.79 394.935 32.18 395.247 32.684C395.571 33.176 395.733 33.752 395.733 34.412V41H394.095V39.164L394.401 39.272C394.197 39.656 393.921 39.992 393.573 40.28C393.225 40.568 392.817 40.796 392.349 40.964C391.881 41.132 391.371 41.216 390.819 41.216ZM402.094 41.108C401.146 41.108 400.414 40.838 399.898 40.298C399.394 39.758 399.142 38.996 399.142 38.012V32.9H397.378V31.298H397.738C398.17 31.298 398.512 31.166 398.764 30.902C399.016 30.638 399.142 30.29 399.142 29.858V29.066H400.816V31.298H402.994V32.9H400.816V37.958C400.816 38.282 400.864 38.564 400.96 38.804C401.068 39.044 401.242 39.236 401.482 39.38C401.722 39.512 402.04 39.578 402.436 39.578C402.52 39.578 402.622 39.572 402.742 39.56C402.874 39.548 402.994 39.536 403.102 39.524V41C402.946 41.036 402.772 41.06 402.58 41.072C402.388 41.096 402.226 41.108 402.094 41.108ZM409.489 41.216C408.553 41.216 407.719 40.994 406.987 40.55C406.255 40.106 405.679 39.5 405.259 38.732C404.839 37.952 404.629 37.082 404.629 36.122C404.629 35.15 404.833 34.286 405.241 33.53C405.661 32.774 406.225 32.18 406.933 31.748C407.653 31.304 408.457 31.082 409.345 31.082C410.065 31.082 410.701 31.214 411.253 31.478C411.817 31.73 412.291 32.078 412.675 32.522C413.071 32.954 413.371 33.452 413.575 34.016C413.791 34.568 413.899 35.144 413.899 35.744C413.899 35.876 413.887 36.026 413.863 36.194C413.851 36.35 413.833 36.5 413.809 36.644H405.853V35.204H412.837L412.045 35.852C412.153 35.228 412.093 34.67 411.865 34.178C411.637 33.686 411.301 33.296 410.857 33.008C410.413 32.72 409.909 32.576 409.345 32.576C408.781 32.576 408.265 32.72 407.797 33.008C407.329 33.296 406.963 33.71 406.699 34.25C406.447 34.778 406.345 35.408 406.393 36.14C406.345 36.848 406.453 37.472 406.717 38.012C406.993 38.54 407.377 38.954 407.869 39.254C408.373 39.542 408.919 39.686 409.507 39.686C410.155 39.686 410.701 39.536 411.145 39.236C411.589 38.936 411.949 38.552 412.225 38.084L413.629 38.804C413.437 39.248 413.137 39.656 412.729 40.028C412.333 40.388 411.859 40.676 411.307 40.892C410.767 41.108 410.161 41.216 409.489 41.216ZM420.492 41.216C419.58 41.216 418.758 40.994 418.026 40.55C417.306 40.106 416.736 39.5 416.316 38.732C415.896 37.964 415.686 37.106 415.686 36.158C415.686 35.186 415.896 34.322 416.316 33.566C416.736 32.798 417.306 32.192 418.026 31.748C418.758 31.304 419.58 31.082 420.492 31.082C421.296 31.082 422.01 31.256 422.634 31.604C423.258 31.94 423.75 32.396 424.11 32.972L423.84 33.386V27.374H425.532V41H423.894V38.93L424.11 39.218C423.774 39.854 423.282 40.346 422.634 40.694C421.998 41.042 421.284 41.216 420.492 41.216ZM420.636 39.596C421.248 39.596 421.794 39.446 422.274 39.146C422.754 38.846 423.132 38.438 423.408 37.922C423.696 37.394 423.84 36.806 423.84 36.158C423.84 35.498 423.696 34.91 423.408 34.394C423.132 33.866 422.754 33.452 422.274 33.152C421.794 32.852 421.248 32.702 420.636 32.702C420.036 32.702 419.49 32.858 418.998 33.17C418.518 33.47 418.14 33.878 417.864 34.394C417.588 34.898 417.45 35.486 417.45 36.158C417.45 36.806 417.588 37.394 417.864 37.922C418.14 38.438 418.518 38.846 418.998 39.146C419.478 39.446 420.024 39.596 420.636 39.596ZM431.432 41V27.59H439.928V29.21H433.196V33.548H439.298V35.168H433.196V41H431.432ZM441.729 41V31.298H443.403V41H441.729ZM441.729 29.75V27.59H443.403V29.75H441.729ZM446 41V27.374H447.674V41H446ZM454.736 41.216C453.8 41.216 452.966 40.994 452.234 40.55C451.502 40.106 450.926 39.5 450.506 38.732C450.086 37.952 449.876 37.082 449.876 36.122C449.876 35.15 450.08 34.286 450.488 33.53C450.908 32.774 451.472 32.18 452.18 31.748C452.9 31.304 453.704 31.082 454.592 31.082C455.312 31.082 455.948 31.214 456.5 31.478C457.064 31.73 457.538 32.078 457.922 32.522C458.318 32.954 458.618 33.452 458.822 34.016C459.038 34.568 459.146 35.144 459.146 35.744C459.146 35.876 459.134 36.026 459.11 36.194C459.098 36.35 459.08 36.5 459.056 36.644H451.1V35.204H458.084L457.292 35.852C457.4 35.228 457.34 34.67 457.112 34.178C456.884 33.686 456.548 33.296 456.104 33.008C455.66 32.72 455.156 32.576 454.592 32.576C454.028 32.576 453.512 32.72 453.044 33.008C452.576 33.296 452.21 33.71 451.946 34.25C451.694 34.778 451.592 35.408 451.64 36.14C451.592 36.848 451.7 37.472 451.964 38.012C452.24 38.54 452.624 38.954 453.116 39.254C453.62 39.542 454.166 39.686 454.754 39.686C455.402 39.686 455.948 39.536 456.392 39.236C456.836 38.936 457.196 38.552 457.472 38.084L458.876 38.804C458.684 39.248 458.384 39.656 457.976 40.028C457.58 40.388 457.106 40.676 456.554 40.892C456.014 41.108 455.408 41.216 454.736 41.216ZM464.638 41V27.59H473.134V29.21H466.402V33.548H472.504V35.168H466.402V41H464.638ZM479.243 41.216C478.307 41.216 477.461 41 476.705 40.568C475.949 40.124 475.349 39.518 474.905 38.75C474.461 37.982 474.239 37.112 474.239 36.14C474.239 35.168 474.455 34.304 474.887 33.548C475.331 32.792 475.931 32.192 476.687 31.748C477.443 31.304 478.295 31.082 479.243 31.082C480.179 31.082 481.025 31.304 481.781 31.748C482.537 32.18 483.131 32.774 483.563 33.53C484.007 34.286 484.229 35.156 484.229 36.14C484.229 37.124 484.001 38 483.545 38.768C483.089 39.524 482.483 40.124 481.727 40.568C480.983 41 480.155 41.216 479.243 41.216ZM479.243 39.596C479.843 39.596 480.383 39.446 480.863 39.146C481.355 38.846 481.739 38.432 482.015 37.904C482.303 37.376 482.447 36.788 482.447 36.14C482.447 35.48 482.303 34.898 482.015 34.394C481.739 33.878 481.355 33.47 480.863 33.17C480.383 32.858 479.843 32.702 479.243 32.702C478.631 32.702 478.079 32.858 477.587 33.17C477.107 33.47 476.723 33.878 476.435 34.394C476.147 34.898 476.003 35.48 476.003 36.14C476.003 36.788 476.147 37.376 476.435 37.904C476.723 38.432 477.107 38.846 477.587 39.146C478.079 39.446 478.631 39.596 479.243 39.596ZM486.412 41V31.298H488.05V33.08L487.87 32.828C488.098 32.276 488.446 31.868 488.914 31.604C489.382 31.328 489.952 31.19 490.624 31.19H491.218V32.774H490.372C489.688 32.774 489.136 32.99 488.716 33.422C488.296 33.842 488.086 34.442 488.086 35.222V41H486.412ZM492.705 41V31.298H494.343V33.278L494.109 32.972C494.349 32.36 494.733 31.892 495.261 31.568C495.789 31.244 496.383 31.082 497.043 31.082C497.799 31.082 498.477 31.292 499.077 31.712C499.689 32.132 500.109 32.684 500.337 33.368L499.869 33.386C500.121 32.63 500.547 32.06 501.147 31.676C501.747 31.28 502.413 31.082 503.145 31.082C503.817 31.082 504.423 31.238 504.963 31.55C505.515 31.862 505.953 32.294 506.277 32.846C506.601 33.398 506.763 34.022 506.763 34.718V41H505.071V35.258C505.071 34.718 504.975 34.262 504.783 33.89C504.591 33.518 504.327 33.23 503.991 33.026C503.667 32.81 503.283 32.702 502.839 32.702C502.407 32.702 502.017 32.81 501.669 33.026C501.333 33.23 501.063 33.524 500.859 33.908C500.667 34.28 500.571 34.73 500.571 35.258V41H498.879V35.258C498.879 34.718 498.783 34.262 498.591 33.89C498.399 33.518 498.135 33.23 497.799 33.026C497.475 32.81 497.091 32.702 496.647 32.702C496.215 32.702 495.825 32.81 495.477 33.026C495.141 33.23 494.871 33.524 494.667 33.908C494.475 34.28 494.379 34.73 494.379 35.258V41H492.705ZM511.985 41.216C511.349 41.216 510.785 41.102 510.293 40.874C509.813 40.634 509.435 40.31 509.159 39.902C508.883 39.482 508.745 39.002 508.745 38.462C508.745 37.946 508.853 37.484 509.069 37.076C509.297 36.656 509.645 36.302 510.113 36.014C510.593 35.726 511.193 35.522 511.913 35.402L515.513 34.808V36.212L512.291 36.752C511.667 36.86 511.211 37.058 510.923 37.346C510.647 37.634 510.509 37.988 510.509 38.408C510.509 38.804 510.665 39.134 510.977 39.398C511.301 39.662 511.703 39.794 512.183 39.794C512.795 39.794 513.323 39.668 513.767 39.416C514.223 39.152 514.577 38.798 514.829 38.354C515.093 37.91 515.225 37.418 515.225 36.878V34.412C515.225 33.884 515.027 33.458 514.631 33.134C514.247 32.798 513.737 32.63 513.101 32.63C512.549 32.63 512.057 32.774 511.625 33.062C511.205 33.338 510.893 33.71 510.689 34.178L509.231 33.422C509.411 32.978 509.699 32.582 510.095 32.234C510.491 31.874 510.953 31.592 511.481 31.388C512.009 31.184 512.561 31.082 513.137 31.082C513.881 31.082 514.535 31.226 515.099 31.514C515.663 31.79 516.101 32.18 516.413 32.684C516.737 33.176 516.899 33.752 516.899 34.412V41H515.261V39.164L515.567 39.272C515.363 39.656 515.087 39.992 514.739 40.28C514.391 40.568 513.983 40.796 513.515 40.964C513.047 41.132 512.537 41.216 511.985 41.216ZM523.26 41.108C522.312 41.108 521.58 40.838 521.064 40.298C520.56 39.758 520.308 38.996 520.308 38.012V32.9H518.544V31.298H518.904C519.336 31.298 519.678 31.166 519.93 30.902C520.182 30.638 520.308 30.29 520.308 29.858V29.066H521.982V31.298H524.16V32.9H521.982V37.958C521.982 38.282 522.03 38.564 522.126 38.804C522.234 39.044 522.408 39.236 522.648 39.38C522.888 39.512 523.206 39.578 523.602 39.578C523.686 39.578 523.788 39.572 523.908 39.56C524.04 39.548 524.16 39.536 524.268 39.524V41C524.112 41.036 523.938 41.06 523.746 41.072C523.554 41.096 523.392 41.108 523.26 41.108ZM527.139 41V38.84H528.885V41H527.139Z" fill="black"/>
<path d="M228.816 88.5044H174.587V168.669H228.816V88.5044Z" fill="white"/>
<path d="M228.816 171.027H181.66C180.357 171.027 179.303 169.973 179.303 168.67C179.303 167.366 180.357 166.312 181.66 166.312H226.459V90.8623H181.66C180.357 90.8623 179.303 89.8078 179.303 88.5045C179.303 87.2013 180.357 86.1467 181.66 86.1467H228.816C230.12 86.1467 231.174 87.2013 231.174 88.5045V168.67C231.174 169.973 230.12 171.027 228.816 171.027Z" fill="#015CAB"/>
<path d="M184.018 72L118 84.3015V172.873L184.018 185.174V72Z" fill="#015CAB"/>
<path opacity="0.2" d="M118 84.3016V85.4805L184.018 73.1789V72L118 84.3016Z" fill="white"/>
<path opacity="0.1" d="M118 172.873L184.018 185.174V183.995L118 171.694V172.873Z" fill="black"/>
<path d="M219.385 97.9358H181.66V102.651H219.385V97.9358Z" fill="#015CAB"/>
<path d="M219.385 112.083H181.66V116.798H219.385V112.083Z" fill="#015CAB"/>
<path d="M219.385 126.229H181.66V130.945H219.385V126.229Z" fill="#015CAB"/>
<path d="M219.385 140.376H181.66V145.092H219.385V140.376Z" fill="#015CAB"/>
<path d="M219.385 154.523H181.66V159.239H219.385V154.523Z" fill="#015CAB"/>
<path d="M228.817 171.027C230.12 171.027 231.174 169.973 231.174 168.67V133.303L184.019 86.1467V171.027H228.817Z" fill="url(#paint0_linear_1044_293)"/>
<path d="M155.43 149.955L160.443 150.313L170.88 110.832L163.417 111.365L157.963 131.808C157.963 131.808 155.19 121.719 152.557 112.14L144.591 112.71L139.34 131.808L134.439 113.435L127.248 113.948L136.407 148.596L142.144 149.006L148.652 126.229C148.652 126.229 152.389 139.31 155.43 149.955Z" fill="white"/>
<path opacity="0.05" d="M184.018 72L118 84.3015V172.873L184.018 185.174V72Z" fill="url(#paint1_linear_1044_293)"/>
<path d="M228.816 86.1468H184.018V72L118 84.3016V172.873L184.018 185.174V171.027H228.816C230.12 171.027 231.174 169.973 231.174 168.67V88.5046C231.174 87.2013 230.12 86.1468 228.816 86.1468Z" fill="url(#paint2_linear_1044_293)"/>
<path d="M202.108 160.289C216.001 173.686 226.152 187.789 236.401 205.647C241.79 199.789 243.138 197.814 238.956 189.394C232.757 176.912 215.61 158.99 205.515 155.255C204.308 154.809 203.198 154.585 202.255 154.613C201.704 154.634 200.957 155.172 200.454 155.877C199.33 157.455 200.538 158.774 202.108 160.289Z" fill="#FF0000"/>
<path d="M240.995 144.316C226.404 164.45 211.066 184.081 192 202.233C198.912 208.376 201.544 208.104 208.609 202.016C220.735 191.558 238.656 166.509 244.884 152.365C245.924 150.005 246.992 146.173 244.318 144.651C243.229 144.029 241.798 143.729 240.995 144.316Z" fill="#FF0000"/>
<path d="M430.838 77.0486V179.51C430.838 184.488 426.802 188.559 421.79 188.559H355.725C350.746 188.559 346.676 184.522 346.676 179.51V97.2987L375.975 68H421.756C426.802 68 430.838 72.0366 430.838 77.0486Z" fill="#EBEBED"/>
<path d="M346.71 97.2987L376.009 68V88.3173C376.009 93.2958 371.972 97.3323 366.994 97.3323H346.71V97.2987Z" fill="#BFBFBF"/>
<path d="M430.839 146.141V176.853H374.596L355.624 171.807H346.71V151.187H355.624V151.153L374.596 146.141H430.839Z" fill="#BFBFBF"/>
<path d="M439.887 173.22H374.596V142.508H439.887C443.89 142.508 447.153 145.771 447.153 149.774V165.954C447.153 169.957 443.924 173.22 439.887 173.22Z" fill="#E95935"/>
<path d="M374.596 173.22L355.624 168.174V147.52L374.596 142.508V173.22Z" fill="#E94921"/>
<path d="M355.623 147.554H342V168.207H355.623V147.554Z" fill="#E95935"/>
<path d="M342 147.554L346.709 144.728V147.554H342Z" fill="#C43E1C"/>
<path d="M342 168.174L346.709 170.999V168.174H342Z" fill="#C43E1C"/>
<path d="M387.781 168.073V148.428H394.206C394.98 148.428 395.686 148.462 396.292 148.496C396.897 148.529 397.435 148.63 397.906 148.731C398.377 148.866 398.815 149 399.185 149.202C399.555 149.404 399.925 149.606 400.261 149.909C401.001 150.514 401.573 151.288 401.976 152.162C402.38 153.071 402.582 154.046 402.582 155.122C402.582 156.132 402.38 157.073 402.01 157.982C401.64 158.89 401.136 159.63 400.496 160.235C399.824 160.875 399.05 161.312 398.175 161.547C397.301 161.816 396.157 161.917 394.744 161.917H392.591V168.073H387.781ZM392.591 157.511H394.61C396.695 157.511 397.738 156.737 397.738 155.19C397.738 154.349 397.469 153.777 396.964 153.407C396.46 153.037 395.585 152.869 394.408 152.869H392.591V157.511Z" fill="white"/>
<path d="M404.802 168.073V148.428H411.395C412.135 148.428 412.807 148.462 413.379 148.496C413.951 148.529 414.489 148.63 414.96 148.731C415.431 148.832 415.902 149 416.306 149.169C416.743 149.37 417.147 149.572 417.55 149.841C418.459 150.413 419.266 151.153 419.939 152.095C421.15 153.777 421.722 155.795 421.722 158.15C421.722 159.63 421.486 161.009 421.049 162.22C420.611 163.431 419.972 164.474 419.165 165.348C418.358 166.223 417.382 166.896 416.239 167.367C415.095 167.838 413.817 168.073 412.437 168.073H404.802ZM409.814 163.666H411.967C413.548 163.666 414.725 163.196 415.532 162.287C416.339 161.379 416.743 160.067 416.743 158.318C416.743 156.535 416.339 155.19 415.499 154.248C414.658 153.306 413.48 152.835 411.967 152.835H409.78V163.666H409.814Z" fill="white"/>
<path d="M424.312 168.073V148.428H435.043V152.835H429.123V156.165H434.841V160.572H429.123V168.039H424.312V168.073Z" fill="white"/>
<path fill-rule="evenodd" clip-rule="evenodd" d="M395 175.273L407.555 175.107C412.404 177.902 416.744 181.523 420.481 186.101C430.146 170.075 441.251 156.944 453.457 146H463.023C445.956 164.96 432.028 185.259 420.891 206.76C414.934 193.989 406.603 183.239 395 175.273Z" fill="#01A601"/>
<defs>
<linearGradient id="paint0_linear_1044_293" x1="162.798" y1="107.367" x2="228.127" y2="172.695" gradientUnits="userSpaceOnUse">
<stop stop-opacity="0.1"/>
<stop offset="1" stop-opacity="0"/>
</linearGradient>
<linearGradient id="paint1_linear_1044_293" x1="117.996" y1="128.585" x2="184.019" y2="128.585" gradientUnits="userSpaceOnUse">
<stop stop-color="white"/>
<stop offset="1"/>
</linearGradient>
<linearGradient id="paint2_linear_1044_293" x1="110.627" y1="100.112" x2="236.104" y2="158.623" gradientUnits="userSpaceOnUse">
<stop stop-color="white" stop-opacity="0.2"/>
<stop offset="1" stop-color="white" stop-opacity="0"/>
</linearGradient>
</defs>
</svg>
