<svg width="90" height="90" viewBox="0 0 90 90" fill="none" xmlns="http://www.w3.org/2000/svg">
<circle cx="45" cy="45" r="45" fill="#FFE0B9"/>
<path fill-rule="evenodd" clip-rule="evenodd" d="M33.1283 28C33.4878 27.9996 33.839 28.1082 34.1356 28.3114C34.4322 28.5147 34.6603 28.803 34.7897 29.1385L46.2098 58.7383C46.3797 59.1785 46.3677 59.6681 46.1766 60.0994C45.9854 60.5308 45.6307 60.8685 45.1906 61.0383C44.7504 61.2082 44.2608 61.1962 43.8295 61.005C43.3981 60.8139 43.0604 60.4592 42.8905 60.0191L39.1514 50.3244H27.1514L23.4407 60.0191C23.3571 60.2372 23.2313 60.4368 23.0706 60.6064C22.9098 60.776 22.7172 60.9122 22.5038 61.0073C22.2904 61.1025 22.0603 61.1547 21.8268 61.1609C21.5932 61.1671 21.3607 61.1273 21.1425 61.0437C20.9243 60.96 20.7247 60.8343 20.5551 60.6735C20.3856 60.5127 20.2493 60.3202 20.1542 60.1067C20.059 59.8933 20.0069 59.6633 20.0006 59.4297C19.9944 59.1961 20.0342 58.9636 20.1179 58.7454L31.4668 29.1456C31.5957 28.8095 31.8235 28.5204 32.1202 28.3165C32.4168 28.1126 32.7683 27.9999 33.1283 28ZM33.1354 34.7382L37.9845 47.3039H28.3147L33.1354 34.7382ZM58.7755 36.7448C52.941 36.7448 48.4939 42.0066 48.4939 48.8515C48.4939 56.0523 53.2967 60.9547 58.7755 60.9547C60.2838 60.9554 61.7758 60.6427 63.1568 60.0364C64.5378 59.4301 65.7778 58.5434 66.7981 57.4326V59.2399C66.7981 59.6645 66.9668 60.0717 67.267 60.372C67.5672 60.6722 67.9744 60.8409 68.399 60.8409C68.8236 60.8409 69.2309 60.6722 69.5311 60.372C69.8313 60.0717 70 59.6645 70 59.2399V38.5663C70 38.1417 69.8313 37.7345 69.5311 37.4342C69.2309 37.134 68.8236 36.9653 68.399 36.9653C67.9744 36.9653 67.5672 37.134 67.267 37.4342C66.9668 37.7345 66.7981 38.1417 66.7981 38.5663V40.3558C65.795 39.2181 64.561 38.3073 63.1783 37.684C61.7955 37.0607 60.2958 36.7393 58.7791 36.7412M66.8017 53.0745V44.1945C65.4142 41.6294 62.4862 39.7688 59.4479 39.7688C55.9685 39.7688 52.1476 42.9992 52.1476 48.848C52.1476 54.3375 55.6128 57.9271 59.4479 57.9271C62.5894 57.9271 65.4426 55.5542 66.8017 53.0745Z" fill="white"/>
</svg>
