<svg width="40" height="40" viewBox="0 0 40 40" fill="none" xmlns="http://www.w3.org/2000/svg">
<path d="M39.3109 17.3333H36.0309V13.3333H39.3109C39.5495 13.3337 39.7699 13.207 39.8893 13.0007C40.0088 12.7943 40.0088 12.5397 39.8897 12.3333C38.8812 10.5911 37.0648 9.47233 35.055 9.35612L33.7643 7.11719C33.4271 6.52865 32.7002 6.28906 32.0791 6.5612L28.6491 8.04525L30.1309 4.62988C30.4115 4.00781 30.1751 3.27474 29.5843 2.93327L27.1403 1.52734C26.554 1.19173 25.8096 1.34733 25.4069 1.88997L23.1735 4.90658L22.7598 1.18197C22.6803 0.508138 22.1094 0.000325678 21.431 1.56813e-07H18.5511C17.873 -0.000325364 17.3021 0.506185 17.2217 1.17936L16.8255 4.88672L16.8096 4.86654L14.6016 1.89518C14.2074 1.3418 13.4561 1.17969 12.8682 1.52148L10.4508 2.91536C9.85807 3.2487 9.61426 3.97689 9.88639 4.59994L11.3643 8.00326L7.96419 6.52214C7.34701 6.2513 6.625 6.48828 6.28841 7.07194L4.96843 9.36003C2.97331 9.48796 1.17415 10.6035 0.172201 12.3333C0.0530601 12.5397 0.0533856 12.7943 0.172526 13.0007C0.291992 13.207 0.512696 13.3337 0.750977 13.3333H4.03093V17.3333H0.750977C0.512696 17.333 0.291992 17.4596 0.172526 17.666C0.0533856 17.8724 0.0530601 18.127 0.172201 18.3333C1.63542 20.8799 4.73112 21.9873 7.47754 20.9466C7.40625 21.291 7.36817 21.6416 7.36426 21.9935C7.36426 22.0479 7.37109 22.1019 7.38444 22.1546L8.72298 27.5146C9.40169 29.4785 10.5352 31.2539 12.0309 32.696V36.6667C12.0332 38.5068 13.5244 39.9977 15.3643 40H24.6976C26.5378 39.9977 28.0286 38.5068 28.0309 36.6667V32.9121C29.8903 31.3532 31.2529 29.2845 31.9508 26.9606C31.9603 26.9307 31.9678 26.8997 31.973 26.8688L32.9411 21.0667C33.5098 21.2435 34.1019 21.3333 34.6976 21.3333C36.8398 21.3317 38.8187 20.1885 39.8897 18.3333C40.0088 18.127 40.0088 17.8724 39.8893 17.666C39.7699 17.4596 39.5495 17.333 39.3109 17.3333ZM10.8311 9.22461C11.3343 9.44531 11.9216 9.33464 12.3099 8.94596C12.6982 8.55697 12.8083 7.96973 12.5869 7.4668L11.1051 4.07682L13.5225 2.67676L15.7184 5.63607C15.7552 5.69759 15.8001 5.75391 15.8516 5.80404C15.8695 5.82194 15.8883 5.83854 15.9082 5.85384C16.2611 6.18522 16.7663 6.29785 17.2262 6.14811C17.7256 5.98893 18.0817 5.54818 18.1325 5.02669L18.5511 1.33333H21.4349L21.8483 5.05339C21.9063 5.60059 22.2943 6.05632 22.8258 6.2002C23.3571 6.34408 23.9222 6.14681 24.2484 5.70345L26.4775 2.68392L28.9131 4.08789L27.4251 7.51725C27.2051 8.02051 27.3161 8.6071 27.7048 8.99479C28.0934 9.38281 28.6803 9.49284 29.1829 9.27214L32.6071 7.7793L33.5677 9.44596C32.5807 9.63574 31.6576 10.0713 30.8838 10.7126C30.5075 10.2624 29.9512 10.0013 29.3643 10H28.0309C27.5374 10.0016 27.0622 10.1872 26.6976 10.5199C26.3887 10.2419 25.9997 10.0677 25.5863 10.0228C23.5739 8.33594 20.9046 7.65365 18.3294 8.16764C15.7542 8.68164 13.5518 10.3366 12.3411 12.6667H10.7363C9.90169 10.9743 8.31348 9.77865 6.45638 9.44401L7.43099 7.74544L10.8311 9.22461ZM27.3643 12C27.3643 11.6318 27.6628 11.3333 28.0309 11.3333H29.3643C29.7324 11.3333 30.0309 11.6318 30.0309 12V18.6667C30.0309 19.0348 29.7324 19.3333 29.3643 19.3333H28.0309C27.6628 19.3333 27.3643 19.0348 27.3643 18.6667V12ZM22.6976 10.5199C22.3333 10.1872 21.8581 10.0016 21.3643 10H20.0309C19.5374 10.0016 19.0622 10.1872 18.6976 10.5199C18.3333 10.1872 17.8581 10.0016 17.3643 10H16.9824C19.0124 9.06836 21.3568 9.11523 23.3477 10.1279C23.1077 10.2158 22.887 10.3486 22.6976 10.5199ZM14.0309 12.6667H13.8802C13.9284 12.5934 13.9805 12.5234 14.0309 12.4521V12.6667ZM15.3643 12C15.3643 11.6318 15.6628 11.3333 16.0309 11.3333H17.3643C17.7324 11.3333 18.0309 11.6318 18.0309 12V16.6667H15.3643V12ZM19.3643 12C19.3643 11.6318 19.6628 11.3333 20.0309 11.3333H21.3643C21.7324 11.3333 22.0309 11.6318 22.0309 12V16.7826C21.8167 16.7077 21.5915 16.6683 21.3643 16.6667H19.3643V12ZM23.3643 12C23.3643 11.6318 23.6628 11.3333 24.0309 11.3333H25.3643C25.7324 11.3333 26.0309 11.6318 26.0309 12V18.6667C26.0309 19.0348 25.7324 19.3333 25.3643 19.3333H24.0309C23.6628 19.3333 23.3643 19.0348 23.3643 18.6667V12ZM2.10091 18.6667H4.69759C5.06576 18.6667 5.36426 18.3682 5.36426 18V12.6667C5.36426 12.2985 5.06576 12 4.69759 12H2.10091C3.21159 10.9105 4.79297 10.4469 6.31608 10.765C7.83919 11.0827 9.10352 12.1396 9.68555 13.5827C9.78744 13.835 10.0322 14 10.3044 14H14.0309V16.6667H10.3044C10.0342 16.6667 9.79069 16.8294 9.6875 17.0794C9.5752 17.3594 9.4349 17.6276 9.26823 17.8792C8.90332 18.1904 8.58138 18.5492 8.31152 18.946C6.47461 20.4548 3.79525 20.3343 2.10091 18.6667ZM30.6657 26.5999C29.9948 28.7689 28.6917 30.6885 26.9229 32.112C26.7796 32.2386 26.6976 32.4206 26.6976 32.612V36.6667C26.6976 37.7712 25.8021 38.6667 24.6976 38.6667H15.3643C14.2598 38.6667 13.3643 37.7712 13.3643 36.6667V32.4173C13.3649 32.2376 13.2926 32.0651 13.1644 31.9395C12.4183 31.2155 10.6169 29.2995 10.0137 27.1719L8.69759 21.9141C8.70443 21.5466 8.76009 21.1816 8.86296 20.8288C9.29753 19.3428 10.5505 18.2409 12.0798 18H21.3643C21.5433 17.9928 21.7168 18.0609 21.8434 18.1875C21.9701 18.3141 22.0381 18.488 22.0309 18.6667C22.0286 20.5068 20.5378 21.9977 18.6976 22H14.0309V23.3333H16.1563L16.3643 23.4606C17.7445 24.3021 18.9355 25.0286 19.3844 26.8288C19.626 27.821 19.626 28.8564 19.3844 29.8486L20.6829 30.1514C20.9749 28.9535 20.9749 27.7031 20.6829 26.5052C20.3734 25.2324 19.6253 24.1094 18.5697 23.3333H18.6976C20.6081 23.3304 22.3236 22.1621 23.0257 20.3854C23.3281 20.5664 23.6732 20.6634 24.0257 20.666H25.3643C25.8581 20.6644 26.3333 20.4788 26.6976 20.1462C27.0619 20.4792 27.5374 20.6647 28.0309 20.6667H29.3643C30.2705 20.6631 31.0609 20.0511 31.291 19.1748C31.4665 19.4176 31.6296 19.6696 31.779 19.9294L30.6657 26.5999ZM34.6976 20C34.1641 20.0013 33.6341 19.9092 33.1325 19.7279C33.1234 19.641 33.098 19.5566 33.057 19.4795C32.6504 18.6527 32.0736 17.9212 31.3643 17.3333V12.0801C32.2262 11.1895 33.4082 10.6797 34.6478 10.6647C35.887 10.6497 37.0811 11.1305 37.9642 12H35.3643C34.9961 12 34.6976 12.2985 34.6976 12.6667V18C34.6976 18.3682 34.9961 18.6667 35.3643 18.6667H37.9642C37.0918 19.5215 35.9189 20.0003 34.6976 20Z" fill="#8D7DFE"/>
</svg>
