<svg width="124" height="40" viewBox="0 0 124 40" fill="none" xmlns="http://www.w3.org/2000/svg">
<path d="M8.98145 39.9949C7.36184 39.9914 5.77319 39.5509 4.383 38.7199C2.99281 37.8889 1.85258 36.6982 1.08252 35.2734C0.312454 33.8486 -0.0589042 32.2424 0.00759101 30.6241C0.0740862 29.0058 0.575971 27.4355 1.46033 26.0787L15.8548 3.99352C17.1309 2.03947 19.1301 0.67149 21.4137 0.189775C23.6973 -0.291939 26.0787 0.15196 28.0354 1.42406C29.0869 2.11231 29.9907 3.00308 30.6943 4.04438C31.3978 5.08569 31.8869 6.25668 32.1331 7.48903L33.44 14.1195C33.8251 16.0973 34.8102 17.9084 36.2612 19.3065L36.976 19.996C38.0551 21.0384 39.4822 21.8519 41.2166 22.4136C45.0031 23.6382 47.5422 27.0806 47.5422 30.9785C47.5422 35.9529 43.4002 40 38.3069 40C33.2135 40 29.0715 35.9516 29.0715 30.9785C29.0716 30.4996 29.1105 30.0215 29.1879 29.5489L29.2587 29.1187C29.3941 28.3002 29.5232 27.526 29.5814 26.7593L29.7357 24.7541C29.7761 24.2323 29.6436 23.7116 29.3589 23.2725C29.0741 22.8334 28.6527 22.5001 28.1598 22.3242C27.6669 22.1482 27.1298 22.1393 26.6313 22.2988C26.1328 22.4583 25.7006 22.7774 25.4014 23.2068L16.5203 35.9364C15.8768 36.9227 15.0449 37.7722 14.0723 38.4361C13.0996 39.1 12.0055 39.5652 10.8526 39.8052C10.2371 39.933 9.61004 39.9966 8.98145 39.9949ZM27.3509 18.741C28.153 18.7412 28.9464 18.9069 29.6815 19.2278C30.4165 19.5487 31.0775 20.0178 31.6229 20.6059C32.1683 21.1939 32.5865 21.8882 32.8513 22.6453C33.116 23.4024 33.2217 24.206 33.1616 25.0058L33.0073 27.0098C32.9364 27.9283 32.7897 28.8126 32.648 29.6665L32.5784 30.0878C32.5313 30.3777 32.5076 30.6709 32.5076 30.9645C32.5076 34.0464 35.1099 36.5538 38.3094 36.5538C41.5089 36.5538 44.1112 34.0464 44.1112 30.9645C44.1112 28.5608 42.5222 26.4291 40.1565 25.6637C37.9197 24.9401 36.0461 23.8596 34.5899 22.4503L33.8752 21.7684C31.9203 19.8858 30.5921 17.4472 30.0709 14.7837L28.7641 8.15195C28.6078 7.36924 28.2971 6.62549 27.8503 5.96409C27.4035 5.30269 26.8295 4.73688 26.1617 4.29967C24.9679 3.52305 23.5147 3.25192 22.1212 3.5458C20.7276 3.83969 19.5077 4.67458 18.7292 5.86715L4.33594 27.9536C3.92939 28.5659 3.64813 29.2526 3.50838 29.9742C3.36863 30.6958 3.37316 31.4379 3.52171 32.1577C3.67026 32.8775 3.95989 33.5608 4.37389 34.1681C4.78788 34.7754 5.31805 35.2947 5.93379 35.696C6.54953 36.0974 7.23865 36.3728 7.96138 36.5064C8.68412 36.64 9.42617 36.6292 10.1447 36.4745C10.8632 36.3198 11.544 36.0244 12.1478 35.6053C12.7515 35.1861 13.2663 34.6516 13.6624 34.0324L13.6927 33.9882L22.5928 21.2371C23.1261 20.4684 23.8375 19.8403 24.6663 19.4065C25.4952 18.9727 26.4167 18.7461 27.3522 18.746L27.3509 18.741Z" fill="url(#paint0_linear_256_233)"/>
<path fill-rule="evenodd" clip-rule="evenodd" d="M121.679 5.58376C122.42 6.33485 123 7.22947 123.382 8.21267C123.79 9.2727 123.993 10.4004 123.98 11.5361C123.995 12.671 123.794 13.7984 123.388 14.8583C123.006 15.8419 122.426 16.737 121.686 17.4885C120.942 18.2367 120.051 18.8207 119.068 19.2027C116.929 20.001 114.573 20.001 112.434 19.2027C111.455 18.8186 110.568 18.2348 109.828 17.4885C109.087 16.7372 108.508 15.8421 108.126 14.8583C107.717 13.799 107.514 12.6716 107.526 11.5361C107.514 10.4003 107.717 9.27244 108.126 8.21267C108.505 7.23003 109.083 6.33614 109.823 5.58688C110.563 4.83762 111.449 4.24911 112.427 3.85814C114.564 3.04336 116.925 3.04336 119.062 3.85814C120.044 4.24667 120.935 4.83419 121.679 5.58376ZM118.193 15.8325C118.901 15.4293 119.483 14.8354 119.871 14.1182C120.279 13.3828 120.482 12.5141 120.482 11.5121C120.503 10.6132 120.293 9.72408 119.871 8.92999C119.484 8.21469 118.902 7.62412 118.193 7.22714C117.439 6.83213 116.6 6.62673 115.749 6.62871C114.898 6.63069 114.06 6.84 113.308 7.23853C112.601 7.63981 112.02 8.22931 111.629 8.94138C111.223 9.66924 111.019 10.5342 111.019 11.5361C110.998 12.4349 111.208 13.324 111.629 14.1182C112.017 14.8354 112.599 15.4293 113.308 15.8325C114.059 16.2336 114.898 16.4434 115.75 16.4434C116.602 16.4434 117.441 16.2336 118.193 15.8325ZM105.349 12.0763C105.873 11.2464 106.135 10.252 106.135 9.09313C106.135 7.95031 105.873 6.96436 105.349 6.13529C104.828 5.30891 104.088 4.64257 103.212 4.20978C102.259 3.74367 101.209 3.5104 100.148 3.52915H94.2504V19.519H97.6788V14.6584H99.9953L102.539 19.519H106.296L103.359 13.9082C104.173 13.484 104.859 12.8519 105.349 12.0763ZM97.6826 6.83996H99.889C100.75 6.83996 101.419 7.03141 101.897 7.41432C102.374 7.79723 102.613 8.35683 102.613 9.09313C102.613 9.82943 102.374 10.3895 101.897 10.7732C101.419 11.157 100.75 11.3484 99.889 11.3476H97.6826V6.83996ZM71.7363 3.52921H68.3079V19.5203H71.7363V3.52921ZM57.6947 3.52926L52.0118 19.5191H55.4643L56.4904 16.5372H62.4453L63.4004 19.5191H66.8757L61.4749 3.52926H57.6947ZM57.5821 13.3668L59.576 7.57384L61.4306 13.3668H57.5821ZM86.4585 3.52922C87.6645 3.52837 88.7133 3.76326 89.6048 4.23389C90.4785 4.68568 91.2011 5.38313 91.6834 6.24036C92.176 7.10992 92.4222 8.1393 92.4222 9.32851C92.4222 10.5177 92.176 11.5471 91.6834 12.4167C91.2008 13.2749 90.4731 13.9695 89.5934 14.4117C88.6927 14.8739 87.6477 15.105 86.4585 15.105H84.0864V19.519H80.6592V3.52922H86.4585ZM86.2054 11.7942C87.0657 11.7942 87.735 11.5787 88.2132 11.1477H88.2081C88.6855 10.7218 88.9242 10.1154 88.9242 9.32851C88.9267 8.49944 88.688 7.87742 88.2081 7.46246C87.7282 7.0475 87.0666 6.84003 86.2232 6.84003H84.0864V11.7942H86.2054ZM61.3029 30.1802C61.7432 29.4844 61.9629 28.6519 61.962 27.6828C61.9612 26.7138 61.7415 25.8876 61.3029 25.2045C60.8669 24.5123 60.2477 23.9544 59.514 23.5927C58.716 23.2021 57.8367 23.0066 56.9484 23.0221H52.0144V36.4134H54.8862V32.3423H56.8256L58.9536 36.4134H62.0999L59.638 31.7097C60.3182 31.3556 60.8925 30.8279 61.3029 30.1802ZM54.8837 25.794H56.732C57.4531 25.794 58.0123 25.9547 58.4134 26.276C58.8144 26.5974 59.013 27.0667 59.013 27.6828C59.013 28.2989 58.8131 28.767 58.4134 29.0884C58.0136 29.4097 57.4531 29.5704 56.732 29.5704H54.8837V25.794ZM72.324 36.4137H63.8098V23.0224H72.324V25.7564H66.6804V28.3321H71.2424V31.0648H66.6804V33.6798H72.324V36.4137ZM81.8807 29.2557C81.2119 28.8761 80.3263 28.5548 79.2239 28.2917C78.3055 28.0825 77.6894 27.8565 77.3756 27.6136C77.2288 27.5106 77.1092 27.3736 77.027 27.2143C76.9449 27.055 76.9025 26.8781 76.9037 26.6989C76.8964 26.5199 76.935 26.342 77.0158 26.1821C77.0966 26.0222 77.217 25.8857 77.3655 25.7855C77.6733 25.5696 78.109 25.4612 78.6724 25.4603C79.1623 25.4642 79.6468 25.5644 80.0981 25.7551C80.5869 25.9606 81.0116 26.2935 81.3278 26.7191L83.5696 25.1656C83.094 24.4393 82.4505 23.8383 81.6935 23.4134C80.9141 22.9681 79.9607 22.745 78.833 22.7441C77.8361 22.7441 76.9775 22.9212 76.2572 23.2755C75.5791 23.5924 75.0032 24.0929 74.5949 24.7202C74.2032 25.3478 74.0019 26.0756 74.0155 26.8153C74.0061 27.4433 74.1407 28.0652 74.4089 28.6332C74.6712 29.1772 75.1199 29.6462 75.755 30.0401C76.3901 30.4339 77.252 30.7616 78.3409 31.023C78.8678 31.1338 79.3821 31.2983 79.8755 31.5139C80.1606 31.633 80.4131 31.8187 80.6118 32.0554C80.7523 32.2531 80.8251 32.491 80.8193 32.7335C80.825 32.9212 80.7871 33.1077 80.7085 33.2783C80.6299 33.4489 80.5128 33.5989 80.3663 33.7165C80.0652 33.9695 79.6195 34.096 79.0291 34.096C78.3795 34.1046 77.7401 33.9343 77.1808 33.6039C76.6046 33.2485 76.1263 32.755 75.7892 32.168L73.5474 33.5596C73.8747 34.2419 74.3319 34.8539 74.8934 35.3611C75.4216 35.8248 76.0365 36.1792 76.7026 36.4036C77.4032 36.6369 78.1376 36.7532 78.876 36.7477C79.8881 36.7477 80.7598 36.5672 81.491 36.2062C82.1817 35.884 82.77 35.3775 83.1914 34.7425C83.5943 34.1152 83.803 33.3828 83.791 32.6373C83.8106 31.9481 83.6552 31.2652 83.3394 30.6524C83.0357 30.1008 82.5495 29.6352 81.8807 29.2557ZM92.6569 33.0801C93.0895 32.5597 93.3059 31.8357 93.3059 30.9079V23.0224H96.2042V30.8484C96.2042 32.1338 95.9934 33.2054 95.5717 34.0631C95.1827 34.8897 94.5377 35.569 93.7322 36C92.9251 36.4327 91.9319 36.649 90.7529 36.649C89.5738 36.649 88.5811 36.4327 87.7748 36C86.9693 35.569 86.3242 34.8897 85.9353 34.0631C85.5136 33.2054 85.3027 32.1338 85.3027 30.8484V23.0224H88.1783V30.9079C88.1758 31.8382 88.3938 32.5623 88.8324 33.0801C89.271 33.598 89.9099 33.8569 90.7491 33.8569C91.5883 33.8594 92.2242 33.6005 92.6569 33.0801ZM108.938 23.0221L105.802 31.988L102.666 23.0221H100.089L97.7294 36.4134H100.601L101.525 30.4357C101.656 29.6362 101.768 28.8396 101.859 28.0459L101.87 27.9422L101.908 28.0851C102.111 28.8391 102.35 29.6096 102.625 30.3965L104.671 36.2553H106.932L108.978 30.3965C109.252 29.6222 109.492 28.8552 109.695 28.0952L109.74 27.9245C109.74 27.9512 109.744 27.978 109.748 28.0063L109.748 28.0063C109.75 28.0207 109.753 28.0356 109.754 28.051C109.853 28.8438 109.961 29.6404 110.078 30.4408L111.003 36.4185H113.894L111.514 23.0221H108.938ZM123.981 23.0221V25.7561H118.337V28.3318H122.899V31.0645H118.337V33.6795H123.981V36.4134H115.466V23.0221H123.981Z" fill="url(#paint1_linear_256_233)"/>
<defs>
<linearGradient id="paint0_linear_256_233" x1="-0.000864994" y1="-0.000494083" x2="47.5675" y2="39.9772" gradientUnits="userSpaceOnUse">
<stop offset="0.5" stop-color="#9885FF"/>
<stop offset="1" stop-color="#79A9FF"/>
</linearGradient>
<linearGradient id="paint1_linear_256_233" x1="51.9954" y1="3.28881" x2="93.9388" y2="-20.5708" gradientUnits="userSpaceOnUse">
<stop offset="0.5" stop-color="#9885FF"/>
<stop offset="1" stop-color="#79A9FF"/>
</linearGradient>
</defs>
</svg>
