<svg width="255" height="154" viewBox="0 0 255 154" fill="none" xmlns="http://www.w3.org/2000/svg">
<g filter="url(#filter0_d_369_937)">
<rect x="7" y="20" width="241" height="127" rx="10" fill="white"/>
</g>
<path d="M24.628 46V38.542H25.834V46H24.628ZM22.372 39.34V38.332H28.084V39.34H22.372ZM31.9128 46L31.9608 44.608L31.9188 44.428V42.58L31.9248 42.286C31.9248 41.834 31.8088 41.502 31.5768 41.29C31.3488 41.078 30.9808 40.972 30.4728 40.972C30.0608 40.972 29.6788 41.03 29.3268 41.146C28.9748 41.262 28.6568 41.396 28.3728 41.548L28.4808 40.564C28.6408 40.472 28.8288 40.382 29.0448 40.294C29.2608 40.206 29.5048 40.134 29.7768 40.078C30.0488 40.022 30.3468 39.994 30.6708 39.994C31.1148 39.994 31.4908 40.048 31.7988 40.156C32.1068 40.26 32.3548 40.412 32.5428 40.612C32.7308 40.812 32.8668 41.052 32.9508 41.332C33.0388 41.612 33.0828 41.924 33.0828 42.268V46H31.9128ZM29.9268 46.132C29.3468 46.132 28.9028 45.99 28.5948 45.706C28.2868 45.418 28.1328 45.01 28.1328 44.482V44.302C28.1328 43.742 28.3048 43.328 28.6488 43.06C28.9968 42.788 29.5428 42.6 30.2868 42.496L32.0508 42.244L32.1168 43.096L30.4248 43.336C30.0208 43.392 29.7328 43.49 29.5608 43.63C29.3888 43.766 29.3027 43.968 29.3027 44.236V44.32C29.3027 44.588 29.3848 44.794 29.5488 44.938C29.7168 45.082 29.9708 45.154 30.3108 45.154C30.6228 45.154 30.8908 45.102 31.1148 44.998C31.3388 44.894 31.5208 44.756 31.6608 44.584C31.8008 44.408 31.8968 44.214 31.9488 44.002L32.1108 44.788H31.8948C31.8308 45.028 31.7248 45.25 31.5768 45.454C31.4288 45.658 31.2208 45.822 30.9528 45.946C30.6888 46.07 30.3468 46.132 29.9268 46.132ZM34.4925 46V40.132H35.6685V46H34.4925ZM35.0805 39.268C34.8485 39.268 34.6745 39.21 34.5585 39.094C34.4465 38.974 34.3905 38.81 34.3905 38.602V38.578C34.3905 38.37 34.4465 38.208 34.5585 38.092C34.6745 37.972 34.8485 37.912 35.0805 37.912C35.3125 37.912 35.4845 37.972 35.5965 38.092C35.7125 38.208 35.7705 38.37 35.7705 38.578V38.602C35.7705 38.814 35.7125 38.978 35.5965 39.094C35.4845 39.21 35.3125 39.268 35.0805 39.268ZM37.2055 46V38.056H38.3815V46H37.2055ZM42.3005 46.15C41.4365 46.15 40.7805 45.92 40.3325 45.46C39.8845 45 39.6605 44.338 39.6605 43.474V42.64C39.6605 41.78 39.8845 41.122 40.3325 40.666C40.7805 40.206 41.4365 39.976 42.3005 39.976C43.1645 39.976 43.8185 40.206 44.2625 40.666C44.7105 41.122 44.9345 41.78 44.9345 42.64V43.474C44.9345 44.338 44.7105 45 44.2625 45.46C43.8185 45.92 43.1645 46.15 42.3005 46.15ZM42.3005 45.196C42.7765 45.196 43.1385 45.054 43.3865 44.77C43.6345 44.486 43.7585 44.078 43.7585 43.546V42.568C43.7585 42.04 43.6345 41.636 43.3865 41.356C43.1385 41.072 42.7765 40.93 42.3005 40.93C41.8245 40.93 41.4625 41.072 41.2145 41.356C40.9665 41.636 40.8425 42.04 40.8425 42.568V43.546C40.8425 44.078 40.9665 44.486 41.2145 44.77C41.4625 45.054 41.8245 45.196 42.3005 45.196ZM47.3212 42.454L47.0692 41.536H47.3572C47.4812 41.072 47.6892 40.708 47.9812 40.444C48.2732 40.176 48.6712 40.042 49.1752 40.042C49.2952 40.042 49.4012 40.052 49.4932 40.072C49.5892 40.088 49.6752 40.108 49.7512 40.132L49.8232 41.278C49.7272 41.246 49.6192 41.222 49.4992 41.206C49.3792 41.186 49.2492 41.176 49.1092 41.176C48.6812 41.176 48.3112 41.286 47.9992 41.506C47.6872 41.726 47.4612 42.042 47.3212 42.454ZM46.1932 46V40.132H47.3392L47.2852 41.842L47.3692 41.926V46H46.1932ZM53.15 46.138C52.214 46.138 51.512 45.916 51.044 45.472C50.58 45.024 50.348 44.38 50.348 43.54V42.58C50.348 41.752 50.564 41.112 50.996 40.66C51.432 40.204 52.066 39.976 52.898 39.976C53.462 39.976 53.932 40.08 54.308 40.288C54.684 40.492 54.966 40.782 55.154 41.158C55.342 41.534 55.436 41.98 55.436 42.496V42.718C55.436 42.854 55.43 42.992 55.418 43.132C55.406 43.272 55.39 43.406 55.37 43.534H54.29C54.298 43.326 54.302 43.13 54.302 42.946C54.306 42.762 54.308 42.594 54.308 42.442C54.308 42.118 54.256 41.844 54.152 41.62C54.048 41.396 53.892 41.226 53.684 41.11C53.476 40.99 53.214 40.93 52.898 40.93C52.43 40.93 52.082 41.064 51.854 41.332C51.626 41.596 51.512 41.974 51.512 42.466V43.018L51.518 43.156V43.678C51.518 43.898 51.55 44.098 51.614 44.278C51.682 44.458 51.788 44.614 51.932 44.746C52.08 44.874 52.27 44.974 52.502 45.046C52.734 45.114 53.016 45.148 53.348 45.148C53.724 45.148 54.076 45.1 54.404 45.004C54.736 44.908 55.048 44.78 55.34 44.62L55.232 45.622C54.968 45.778 54.66 45.904 54.308 46C53.96 46.092 53.574 46.138 53.15 46.138ZM50.972 43.534V42.652H55.13V43.534H50.972ZM58.5841 46.132C57.8841 46.132 57.3501 45.912 56.9821 45.472C56.6181 45.032 56.4361 44.39 56.4361 43.546V42.616C56.4361 41.764 56.6201 41.116 56.9881 40.672C57.3601 40.224 57.9081 40 58.6321 40C58.9801 40 59.2781 40.056 59.5261 40.168C59.7781 40.276 59.9821 40.43 60.1381 40.63C60.2981 40.83 60.4121 41.066 60.4801 41.338H60.8701L60.5401 42.424C60.5281 42.104 60.4581 41.836 60.3301 41.62C60.2021 41.4 60.0261 41.234 59.8021 41.122C59.5781 41.01 59.3161 40.954 59.0161 40.954C58.5641 40.954 58.2181 41.084 57.9781 41.344C57.7381 41.604 57.6181 41.99 57.6181 42.502V43.624C57.6181 44.124 57.7361 44.504 57.9721 44.764C58.2121 45.024 58.5601 45.154 59.0161 45.154C59.2921 45.154 59.5341 45.102 59.7421 44.998C59.9541 44.894 60.1301 44.752 60.2701 44.572C60.4101 44.392 60.5061 44.19 60.5581 43.966L60.8341 44.794H60.4921C60.4281 45.038 60.3201 45.262 60.1681 45.466C60.0201 45.67 59.8181 45.832 59.5621 45.952C59.3061 46.072 58.9801 46.132 58.5841 46.132ZM60.5101 46L60.5581 44.626L60.5401 44.254V41.818L60.5461 41.59L60.5161 39.928V38.056H61.6861V46H60.5101ZM67.9678 46.144C67.6038 46.144 67.2678 46.116 66.9598 46.06C66.6518 46.004 66.3758 45.934 66.1318 45.85C65.8918 45.766 65.6878 45.682 65.5198 45.598L65.4058 44.416C65.7138 44.592 66.0778 44.748 66.4978 44.884C66.9218 45.02 67.3798 45.088 67.8718 45.088C68.4318 45.088 68.8438 44.996 69.1078 44.812C69.3718 44.624 69.5038 44.342 69.5038 43.966V43.876C69.5038 43.632 69.4498 43.432 69.3418 43.276C69.2378 43.116 69.0598 42.98 68.8078 42.868C68.5558 42.752 68.2138 42.642 67.7818 42.538C67.2138 42.398 66.7538 42.234 66.4018 42.046C66.0538 41.854 65.7998 41.616 65.6398 41.332C65.4798 41.044 65.3998 40.686 65.3998 40.258V40.198C65.3998 39.554 65.6138 39.058 66.0418 38.71C66.4698 38.362 67.1118 38.188 67.9678 38.188C68.5158 38.188 68.9838 38.242 69.3718 38.35C69.7638 38.454 70.0858 38.572 70.3378 38.704L70.4458 39.802C70.1538 39.634 69.8178 39.494 69.4378 39.382C69.0578 39.266 68.6298 39.208 68.1538 39.208C67.7818 39.208 67.4838 39.25 67.2598 39.334C67.0358 39.414 66.8738 39.532 66.7738 39.688C66.6738 39.84 66.6238 40.024 66.6238 40.24V40.264C66.6238 40.488 66.6738 40.68 66.7738 40.84C66.8738 41 67.0498 41.142 67.3018 41.266C67.5578 41.386 67.9198 41.506 68.3878 41.626C68.9438 41.766 69.3918 41.924 69.7318 42.1C70.0758 42.272 70.3278 42.498 70.4878 42.778C70.6478 43.054 70.7278 43.418 70.7278 43.87V43.99C70.7278 44.698 70.4978 45.234 70.0378 45.598C69.5778 45.962 68.8878 46.144 67.9678 46.144ZM73.055 40.132V43.756C73.055 44.036 73.093 44.282 73.169 44.494C73.249 44.702 73.379 44.864 73.559 44.98C73.739 45.096 73.981 45.154 74.285 45.154C74.573 45.154 74.819 45.102 75.023 44.998C75.231 44.894 75.401 44.754 75.533 44.578C75.665 44.398 75.757 44.198 75.809 43.978L76.001 44.794H75.749C75.681 45.038 75.569 45.262 75.413 45.466C75.257 45.67 75.049 45.832 74.789 45.952C74.529 46.072 74.207 46.132 73.823 46.132C73.367 46.132 72.995 46.046 72.707 45.874C72.423 45.698 72.213 45.444 72.077 45.112C71.945 44.776 71.879 44.368 71.879 43.888V40.132H73.055ZM76.943 40.132V46H75.767L75.815 44.626L75.767 44.554V40.132H76.943ZM80.7895 44.224C79.9655 44.224 79.3335 44.048 78.8935 43.696C78.4535 43.344 78.2335 42.842 78.2335 42.19V42.094C78.2335 41.682 78.3195 41.326 78.4915 41.026C78.6635 40.722 78.9375 40.486 79.3135 40.318C79.6935 40.146 80.1895 40.05 80.8015 40.03L83.8495 39.928V40.846L82.2175 40.774V40.84C82.4495 40.9 82.6415 40.994 82.7935 41.122C82.9495 41.246 83.0675 41.402 83.1475 41.59C83.2275 41.778 83.2675 42 83.2675 42.256V42.322C83.2675 42.938 83.0575 43.41 82.6375 43.738C82.2215 44.062 81.6055 44.224 80.7895 44.224ZM80.7415 47.326H80.8915C81.2315 47.326 81.5195 47.302 81.7555 47.254C81.9915 47.206 82.1715 47.13 82.2955 47.026C82.4235 46.922 82.4875 46.784 82.4875 46.612V46.594C82.4875 46.39 82.4155 46.236 82.2715 46.132C82.1275 46.032 81.8775 45.966 81.5215 45.934L79.8295 45.772L80.1235 45.76C79.9315 45.792 79.7615 45.842 79.6135 45.91C79.4695 45.974 79.3555 46.058 79.2715 46.162C79.1915 46.27 79.1515 46.402 79.1515 46.558V46.57C79.1515 46.754 79.2135 46.902 79.3375 47.014C79.4655 47.126 79.6475 47.206 79.8835 47.254C80.1235 47.302 80.4095 47.326 80.7415 47.326ZM80.6695 48.262C80.1295 48.262 79.6635 48.214 79.2715 48.118C78.8835 48.026 78.5835 47.876 78.3715 47.668C78.1635 47.464 78.0595 47.192 78.0595 46.852V46.828C78.0595 46.6 78.1095 46.408 78.2095 46.252C78.3135 46.096 78.4535 45.972 78.6295 45.88C78.8095 45.784 79.0095 45.72 79.2295 45.688V45.628C78.9375 45.568 78.7195 45.47 78.5755 45.334C78.4355 45.194 78.3655 45.014 78.3655 44.794V44.788C78.3655 44.636 78.3995 44.506 78.4675 44.398C78.5355 44.286 78.6375 44.198 78.7735 44.134C78.9135 44.066 79.0875 44.022 79.2955 44.002V43.87L80.5315 44.17L80.0815 44.152C79.8455 44.156 79.6815 44.186 79.5895 44.242C79.5015 44.298 79.4575 44.378 79.4575 44.482V44.488C79.4575 44.608 79.5235 44.698 79.6555 44.758C79.7915 44.814 80.0195 44.86 80.3395 44.896L81.7675 45.052C82.3995 45.12 82.8615 45.274 83.1535 45.514C83.4455 45.754 83.5915 46.118 83.5915 46.606V46.636C83.5915 47.012 83.4815 47.32 83.2615 47.56C83.0455 47.8 82.7335 47.976 82.3255 48.088C81.9215 48.204 81.4355 48.262 80.8675 48.262H80.6695ZM80.7715 43.36C81.0795 43.36 81.3355 43.316 81.5395 43.228C81.7475 43.136 81.9035 43 82.0075 42.82C82.1115 42.64 82.1635 42.42 82.1635 42.16V42.07C82.1635 41.814 82.1115 41.598 82.0075 41.422C81.9075 41.246 81.7555 41.112 81.5515 41.02C81.3515 40.928 81.0975 40.882 80.7895 40.882H80.7595C80.4275 40.882 80.1575 40.932 79.9495 41.032C79.7415 41.128 79.5895 41.266 79.4935 41.446C79.4015 41.622 79.3555 41.832 79.3555 42.076V42.16C79.3555 42.42 79.4075 42.64 79.5115 42.82C79.6155 43 79.7715 43.136 79.9795 43.228C80.1915 43.316 80.4555 43.36 80.7715 43.36ZM86.9536 44.224C86.1296 44.224 85.4976 44.048 85.0576 43.696C84.6176 43.344 84.3976 42.842 84.3976 42.19V42.094C84.3976 41.682 84.4836 41.326 84.6556 41.026C84.8276 40.722 85.1016 40.486 85.4776 40.318C85.8576 40.146 86.3536 40.05 86.9656 40.03L90.0136 39.928V40.846L88.3816 40.774V40.84C88.6136 40.9 88.8056 40.994 88.9576 41.122C89.1136 41.246 89.2316 41.402 89.3116 41.59C89.3916 41.778 89.4316 42 89.4316 42.256V42.322C89.4316 42.938 89.2216 43.41 88.8016 43.738C88.3856 44.062 87.7696 44.224 86.9536 44.224ZM86.9056 47.326H87.0556C87.3956 47.326 87.6836 47.302 87.9196 47.254C88.1556 47.206 88.3356 47.13 88.4596 47.026C88.5876 46.922 88.6516 46.784 88.6516 46.612V46.594C88.6516 46.39 88.5796 46.236 88.4356 46.132C88.2916 46.032 88.0416 45.966 87.6856 45.934L85.9936 45.772L86.2876 45.76C86.0956 45.792 85.9256 45.842 85.7776 45.91C85.6336 45.974 85.5196 46.058 85.4356 46.162C85.3556 46.27 85.3156 46.402 85.3156 46.558V46.57C85.3156 46.754 85.3776 46.902 85.5016 47.014C85.6296 47.126 85.8116 47.206 86.0476 47.254C86.2876 47.302 86.5736 47.326 86.9056 47.326ZM86.8336 48.262C86.2936 48.262 85.8276 48.214 85.4356 48.118C85.0476 48.026 84.7476 47.876 84.5356 47.668C84.3276 47.464 84.2236 47.192 84.2236 46.852V46.828C84.2236 46.6 84.2736 46.408 84.3736 46.252C84.4776 46.096 84.6176 45.972 84.7936 45.88C84.9736 45.784 85.1736 45.72 85.3936 45.688V45.628C85.1016 45.568 84.8836 45.47 84.7396 45.334C84.5996 45.194 84.5296 45.014 84.5296 44.794V44.788C84.5296 44.636 84.5636 44.506 84.6316 44.398C84.6996 44.286 84.8016 44.198 84.9376 44.134C85.0776 44.066 85.2516 44.022 85.4596 44.002V43.87L86.6956 44.17L86.2456 44.152C86.0096 44.156 85.8456 44.186 85.7536 44.242C85.6656 44.298 85.6216 44.378 85.6216 44.482V44.488C85.6216 44.608 85.6876 44.698 85.8196 44.758C85.9556 44.814 86.1836 44.86 86.5036 44.896L87.9316 45.052C88.5636 45.12 89.0256 45.274 89.3176 45.514C89.6096 45.754 89.7556 46.118 89.7556 46.606V46.636C89.7556 47.012 89.6456 47.32 89.4256 47.56C89.2096 47.8 88.8976 47.976 88.4896 48.088C88.0856 48.204 87.5996 48.262 87.0316 48.262H86.8336ZM86.9356 43.36C87.2436 43.36 87.4996 43.316 87.7036 43.228C87.9116 43.136 88.0676 43 88.1716 42.82C88.2756 42.64 88.3276 42.42 88.3276 42.16V42.07C88.3276 41.814 88.2756 41.598 88.1716 41.422C88.0716 41.246 87.9196 41.112 87.7156 41.02C87.5156 40.928 87.2616 40.882 86.9536 40.882H86.9236C86.5916 40.882 86.3216 40.932 86.1136 41.032C85.9056 41.128 85.7536 41.266 85.6576 41.446C85.5656 41.622 85.5196 41.832 85.5196 42.076V42.16C85.5196 42.42 85.5716 42.64 85.6756 42.82C85.7796 43 85.9356 43.136 86.1436 43.228C86.3556 43.316 86.6196 43.36 86.9356 43.36ZM93.3102 46.138C92.3742 46.138 91.6722 45.916 91.2042 45.472C90.7402 45.024 90.5082 44.38 90.5082 43.54V42.58C90.5082 41.752 90.7242 41.112 91.1562 40.66C91.5922 40.204 92.2262 39.976 93.0582 39.976C93.6222 39.976 94.0922 40.08 94.4682 40.288C94.8442 40.492 95.1262 40.782 95.3142 41.158C95.5022 41.534 95.5962 41.98 95.5962 42.496V42.718C95.5962 42.854 95.5902 42.992 95.5782 43.132C95.5662 43.272 95.5502 43.406 95.5302 43.534H94.4502C94.4582 43.326 94.4622 43.13 94.4622 42.946C94.4662 42.762 94.4682 42.594 94.4682 42.442C94.4682 42.118 94.4162 41.844 94.3122 41.62C94.2082 41.396 94.0522 41.226 93.8442 41.11C93.6362 40.99 93.3742 40.93 93.0582 40.93C92.5902 40.93 92.2422 41.064 92.0142 41.332C91.7862 41.596 91.6722 41.974 91.6722 42.466V43.018L91.6782 43.156V43.678C91.6782 43.898 91.7102 44.098 91.7742 44.278C91.8422 44.458 91.9482 44.614 92.0922 44.746C92.2402 44.874 92.4302 44.974 92.6622 45.046C92.8942 45.114 93.1762 45.148 93.5082 45.148C93.8842 45.148 94.2362 45.1 94.5642 45.004C94.8962 44.908 95.2082 44.78 95.5002 44.62L95.3922 45.622C95.1282 45.778 94.8202 45.904 94.4682 46C94.1202 46.092 93.7342 46.138 93.3102 46.138ZM91.1322 43.534V42.652H95.2902V43.534H91.1322ZM98.7259 46.138C98.2539 46.138 97.8399 46.09 97.4839 45.994C97.1279 45.894 96.8299 45.786 96.5899 45.67L96.4819 44.596C96.7779 44.744 97.1039 44.874 97.4599 44.986C97.8159 45.094 98.2159 45.148 98.6599 45.148C99.0879 45.148 99.4039 45.086 99.6079 44.962C99.8159 44.834 99.9199 44.646 99.9199 44.398V44.35C99.9199 44.19 99.8779 44.058 99.7939 43.954C99.7099 43.846 99.5599 43.75 99.3439 43.666C99.1319 43.582 98.8299 43.496 98.4379 43.408C97.9459 43.296 97.5579 43.164 97.2739 43.012C96.9899 42.86 96.7859 42.674 96.6619 42.454C96.5419 42.23 96.4819 41.962 96.4819 41.65V41.596C96.4819 41.068 96.6659 40.668 97.0339 40.396C97.4019 40.124 97.9539 39.988 98.6899 39.988C99.1539 39.988 99.5579 40.038 99.9019 40.138C100.246 40.238 100.53 40.352 100.754 40.48L100.862 41.458C100.594 41.314 100.288 41.194 99.9439 41.098C99.6039 40.998 99.2259 40.948 98.8099 40.948C98.5259 40.948 98.2979 40.976 98.1259 41.032C97.9539 41.084 97.8299 41.16 97.7539 41.26C97.6779 41.356 97.6399 41.472 97.6399 41.608V41.65C97.6399 41.798 97.6799 41.928 97.7599 42.04C97.8399 42.148 97.9819 42.246 98.1859 42.334C98.3939 42.418 98.6819 42.5 99.0499 42.58C99.5459 42.684 99.9419 42.806 100.238 42.946C100.534 43.086 100.748 43.266 100.88 43.486C101.012 43.702 101.078 43.982 101.078 44.326V44.416C101.078 44.988 100.882 45.418 100.49 45.706C100.098 45.994 99.5099 46.138 98.7259 46.138ZM104.323 46.12C103.855 46.12 103.479 46.05 103.195 45.91C102.911 45.766 102.705 45.552 102.577 45.268C102.449 44.98 102.385 44.622 102.385 44.194V40.606H103.549V44.056C103.549 44.416 103.631 44.68 103.795 44.848C103.959 45.016 104.235 45.1 104.623 45.1C104.855 45.1 105.077 45.076 105.289 45.028C105.501 44.98 105.697 44.912 105.877 44.824L105.775 45.82C105.583 45.916 105.361 45.99 105.109 46.042C104.857 46.094 104.595 46.12 104.323 46.12ZM101.467 41.14V40.204H105.823L105.721 41.14H101.467ZM102.397 40.306L102.391 38.692L103.567 38.554L103.519 40.306H102.397ZM106.903 46V40.132H108.079V46H106.903ZM107.491 39.268C107.259 39.268 107.085 39.21 106.969 39.094C106.857 38.974 106.801 38.81 106.801 38.602V38.578C106.801 38.37 106.857 38.208 106.969 38.092C107.085 37.972 107.259 37.912 107.491 37.912C107.723 37.912 107.895 37.972 108.007 38.092C108.123 38.208 108.181 38.37 108.181 38.578V38.602C108.181 38.814 108.123 38.978 108.007 39.094C107.895 39.21 107.723 39.268 107.491 39.268ZM111.992 46.15C111.128 46.15 110.472 45.92 110.024 45.46C109.576 45 109.352 44.338 109.352 43.474V42.64C109.352 41.78 109.576 41.122 110.024 40.666C110.472 40.206 111.128 39.976 111.992 39.976C112.856 39.976 113.51 40.206 113.954 40.666C114.402 41.122 114.626 41.78 114.626 42.64V43.474C114.626 44.338 114.402 45 113.954 45.46C113.51 45.92 112.856 46.15 111.992 46.15ZM111.992 45.196C112.468 45.196 112.83 45.054 113.078 44.77C113.326 44.486 113.45 44.078 113.45 43.546V42.568C113.45 42.04 113.326 41.636 113.078 41.356C112.83 41.072 112.468 40.93 111.992 40.93C111.516 40.93 111.154 41.072 110.906 41.356C110.658 41.636 110.534 42.04 110.534 42.568V43.546C110.534 44.078 110.658 44.486 110.906 44.77C111.154 45.054 111.516 45.196 111.992 45.196ZM119.773 46V42.376C119.773 42.092 119.733 41.846 119.653 41.638C119.577 41.43 119.449 41.268 119.269 41.152C119.093 41.036 118.851 40.978 118.543 40.978C118.259 40.978 118.013 41.03 117.805 41.134C117.597 41.238 117.427 41.378 117.295 41.554C117.167 41.73 117.075 41.93 117.019 42.154L116.827 41.338H117.079C117.147 41.09 117.259 40.866 117.415 40.666C117.571 40.462 117.779 40.3 118.039 40.18C118.299 40.06 118.621 40 119.005 40C119.465 40 119.837 40.088 120.121 40.264C120.405 40.436 120.613 40.688 120.745 41.02C120.881 41.352 120.949 41.76 120.949 42.244V46H119.773ZM115.885 46V40.132H117.061L117.013 41.506L117.061 41.578V46H115.885ZM124.261 46.138C123.789 46.138 123.375 46.09 123.019 45.994C122.663 45.894 122.365 45.786 122.125 45.67L122.017 44.596C122.313 44.744 122.639 44.874 122.995 44.986C123.351 45.094 123.751 45.148 124.195 45.148C124.623 45.148 124.939 45.086 125.143 44.962C125.351 44.834 125.455 44.646 125.455 44.398V44.35C125.455 44.19 125.413 44.058 125.329 43.954C125.245 43.846 125.095 43.75 124.879 43.666C124.667 43.582 124.365 43.496 123.973 43.408C123.481 43.296 123.093 43.164 122.809 43.012C122.525 42.86 122.321 42.674 122.197 42.454C122.077 42.23 122.017 41.962 122.017 41.65V41.596C122.017 41.068 122.201 40.668 122.569 40.396C122.937 40.124 123.489 39.988 124.225 39.988C124.689 39.988 125.093 40.038 125.437 40.138C125.781 40.238 126.065 40.352 126.289 40.48L126.397 41.458C126.129 41.314 125.823 41.194 125.479 41.098C125.139 40.998 124.761 40.948 124.345 40.948C124.061 40.948 123.833 40.976 123.661 41.032C123.489 41.084 123.365 41.16 123.289 41.26C123.213 41.356 123.175 41.472 123.175 41.608V41.65C123.175 41.798 123.215 41.928 123.295 42.04C123.375 42.148 123.517 42.246 123.721 42.334C123.929 42.418 124.217 42.5 124.585 42.58C125.081 42.684 125.477 42.806 125.773 42.946C126.069 43.086 126.283 43.266 126.415 43.486C126.547 43.702 126.613 43.982 126.613 44.326V44.416C126.613 44.988 126.417 45.418 126.025 45.706C125.633 45.994 125.045 46.138 124.261 46.138Z" fill="black"/>
<rect x="203" y="35" width="30" height="13" rx="6.5" fill="#6A55DD"/>
<circle cx="226.5" cy="41.5" r="5.5" fill="white"/>
<path d="M25.042 74.144C24.678 74.144 24.342 74.116 24.034 74.06C23.726 74.004 23.45 73.934 23.206 73.85C22.966 73.766 22.762 73.682 22.594 73.598L22.48 72.416C22.788 72.592 23.152 72.748 23.572 72.884C23.996 73.02 24.454 73.088 24.946 73.088C25.506 73.088 25.918 72.996 26.182 72.812C26.446 72.624 26.578 72.342 26.578 71.966V71.876C26.578 71.632 26.524 71.432 26.416 71.276C26.312 71.116 26.134 70.98 25.882 70.868C25.63 70.752 25.288 70.642 24.856 70.538C24.288 70.398 23.828 70.234 23.476 70.046C23.128 69.854 22.874 69.616 22.714 69.332C22.554 69.044 22.474 68.686 22.474 68.258V68.198C22.474 67.554 22.688 67.058 23.116 66.71C23.544 66.362 24.186 66.188 25.042 66.188C25.59 66.188 26.058 66.242 26.446 66.35C26.838 66.454 27.16 66.572 27.412 66.704L27.52 67.802C27.228 67.634 26.892 67.494 26.512 67.382C26.132 67.266 25.704 67.208 25.228 67.208C24.856 67.208 24.558 67.25 24.334 67.334C24.11 67.414 23.948 67.532 23.848 67.688C23.748 67.84 23.698 68.024 23.698 68.24V68.264C23.698 68.488 23.748 68.68 23.848 68.84C23.948 69 24.124 69.142 24.376 69.266C24.632 69.386 24.994 69.506 25.462 69.626C26.018 69.766 26.466 69.924 26.806 70.1C27.15 70.272 27.402 70.498 27.562 70.778C27.722 71.054 27.802 71.418 27.802 71.87V71.99C27.802 72.698 27.572 73.234 27.112 73.598C26.652 73.962 25.962 74.144 25.042 74.144ZM32.091 74.132C31.743 74.132 31.443 74.078 31.191 73.97C30.943 73.858 30.741 73.702 30.585 73.502C30.429 73.298 30.315 73.062 30.243 72.794H29.853L30.183 71.684C30.195 72.012 30.265 72.286 30.393 72.506C30.521 72.722 30.697 72.884 30.921 72.992C31.149 73.1 31.411 73.154 31.707 73.154C32.159 73.154 32.505 73.024 32.745 72.764C32.985 72.5 33.105 72.114 33.105 71.606V70.484C33.105 69.984 32.985 69.604 32.745 69.344C32.509 69.084 32.163 68.954 31.707 68.954C31.435 68.954 31.193 69.006 30.981 69.11C30.769 69.214 30.593 69.356 30.453 69.536C30.317 69.712 30.221 69.914 30.165 70.142L29.889 69.338H30.231C30.299 69.09 30.407 68.866 30.555 68.666C30.703 68.462 30.905 68.3 31.161 68.18C31.421 68.06 31.747 68 32.139 68C32.839 68 33.371 68.22 33.735 68.66C34.103 69.1 34.287 69.742 34.287 70.586V71.516C34.287 72.368 34.103 73.018 33.735 73.466C33.367 73.91 32.819 74.132 32.091 74.132ZM29.037 76.064V68.132H30.213L30.165 69.506L30.183 69.854V72.314L30.177 72.542L30.207 74.204V76.064H29.037ZM38.1266 74.138C37.1906 74.138 36.4886 73.916 36.0206 73.472C35.5566 73.024 35.3246 72.38 35.3246 71.54V70.58C35.3246 69.752 35.5406 69.112 35.9726 68.66C36.4086 68.204 37.0426 67.976 37.8746 67.976C38.4386 67.976 38.9086 68.08 39.2846 68.288C39.6606 68.492 39.9426 68.782 40.1306 69.158C40.3186 69.534 40.4126 69.98 40.4126 70.496V70.718C40.4126 70.854 40.4066 70.992 40.3946 71.132C40.3826 71.272 40.3666 71.406 40.3466 71.534H39.2666C39.2746 71.326 39.2786 71.13 39.2786 70.946C39.2826 70.762 39.2846 70.594 39.2846 70.442C39.2846 70.118 39.2326 69.844 39.1286 69.62C39.0246 69.396 38.8686 69.226 38.6606 69.11C38.4526 68.99 38.1906 68.93 37.8746 68.93C37.4066 68.93 37.0586 69.064 36.8306 69.332C36.6026 69.596 36.4886 69.974 36.4886 70.466V71.018L36.4946 71.156V71.678C36.4946 71.898 36.5266 72.098 36.5906 72.278C36.6586 72.458 36.7646 72.614 36.9086 72.746C37.0566 72.874 37.2466 72.974 37.4786 73.046C37.7106 73.114 37.9926 73.148 38.3246 73.148C38.7006 73.148 39.0526 73.1 39.3806 73.004C39.7126 72.908 40.0246 72.78 40.3166 72.62L40.2086 73.622C39.9446 73.778 39.6366 73.904 39.2846 74C38.9366 74.092 38.5506 74.138 38.1266 74.138ZM35.9486 71.534V70.652H40.1066V71.534H35.9486ZM41.6469 74V66.056H42.8229V74H41.6469ZM44.436 74V66.056H45.612V74H44.436ZM52.3871 74.15C51.4071 74.15 50.6731 73.878 50.1851 73.334C49.7011 72.79 49.4591 72.016 49.4591 71.012V69.308C49.4591 68.308 49.7011 67.538 50.1851 66.998C50.6731 66.454 51.4071 66.182 52.3871 66.182C52.6871 66.182 52.9611 66.208 53.2091 66.26C53.4571 66.312 53.6791 66.38 53.8751 66.464C54.0711 66.548 54.2391 66.636 54.3791 66.728L54.4751 67.832C54.2391 67.672 53.9651 67.532 53.6531 67.412C53.3411 67.292 52.9731 67.232 52.5491 67.232C51.9331 67.232 51.4671 67.414 51.1511 67.778C50.8391 68.142 50.6831 68.658 50.6831 69.326V70.97C50.6831 71.634 50.8411 72.15 51.1571 72.518C51.4771 72.886 51.9531 73.07 52.5851 73.07C53.0011 73.07 53.3691 73.012 53.6891 72.896C54.0131 72.776 54.2951 72.63 54.5351 72.458L54.4391 73.592C54.2991 73.684 54.1271 73.774 53.9231 73.862C53.7231 73.946 53.4931 74.014 53.2331 74.066C52.9771 74.122 52.6951 74.15 52.3871 74.15ZM59.6086 74V70.376C59.6086 70.092 59.5686 69.846 59.4886 69.638C59.4126 69.43 59.2846 69.268 59.1046 69.152C58.9286 69.036 58.6866 68.978 58.3786 68.978C58.0946 68.978 57.8486 69.03 57.6406 69.134C57.4366 69.238 57.2706 69.378 57.1426 69.554C57.0146 69.73 56.9226 69.93 56.8666 70.154L56.6326 69.338H56.9266C56.9946 69.09 57.1066 68.866 57.2626 68.666C57.4186 68.462 57.6266 68.3 57.8866 68.18C58.1466 68.06 58.4646 68 58.8406 68C59.3006 68 59.6726 68.088 59.9566 68.264C60.2406 68.436 60.4486 68.688 60.5806 69.02C60.7166 69.352 60.7846 69.76 60.7846 70.244V74H59.6086ZM55.7206 74V66.056H56.8906V67.928L56.8606 69.62L56.8966 69.704V74H55.7206ZM64.775 74.138C63.839 74.138 63.137 73.916 62.669 73.472C62.205 73.024 61.973 72.38 61.973 71.54V70.58C61.973 69.752 62.189 69.112 62.621 68.66C63.057 68.204 63.691 67.976 64.523 67.976C65.087 67.976 65.557 68.08 65.933 68.288C66.309 68.492 66.591 68.782 66.779 69.158C66.967 69.534 67.061 69.98 67.061 70.496V70.718C67.061 70.854 67.055 70.992 67.043 71.132C67.031 71.272 67.015 71.406 66.995 71.534H65.915C65.923 71.326 65.927 71.13 65.927 70.946C65.931 70.762 65.933 70.594 65.933 70.442C65.933 70.118 65.881 69.844 65.777 69.62C65.673 69.396 65.517 69.226 65.309 69.11C65.101 68.99 64.839 68.93 64.523 68.93C64.055 68.93 63.707 69.064 63.479 69.332C63.251 69.596 63.137 69.974 63.137 70.466V71.018L63.143 71.156V71.678C63.143 71.898 63.175 72.098 63.239 72.278C63.307 72.458 63.413 72.614 63.557 72.746C63.705 72.874 63.895 72.974 64.127 73.046C64.359 73.114 64.641 73.148 64.973 73.148C65.349 73.148 65.701 73.1 66.029 73.004C66.361 72.908 66.673 72.78 66.965 72.62L66.857 73.622C66.593 73.778 66.285 73.904 65.933 74C65.585 74.092 65.199 74.138 64.775 74.138ZM62.597 71.534V70.652H66.755V71.534H62.597ZM70.6056 74.138C69.7336 74.138 69.0856 73.908 68.6616 73.448C68.2416 72.984 68.0316 72.33 68.0316 71.486V70.64C68.0316 69.792 68.2436 69.138 68.6676 68.678C69.0916 68.218 69.7376 67.988 70.6056 67.988C70.8456 67.988 71.0656 68.01 71.2656 68.054C71.4696 68.098 71.6536 68.156 71.8176 68.228C71.9816 68.296 72.1216 68.368 72.2376 68.444L72.3396 69.452C72.1476 69.316 71.9256 69.202 71.6736 69.11C71.4216 69.014 71.1276 68.966 70.7916 68.966C70.2556 68.966 69.8576 69.112 69.5976 69.404C69.3416 69.692 69.2136 70.112 69.2136 70.664V71.456C69.2136 71.996 69.3416 72.412 69.5976 72.704C69.8576 72.996 70.2556 73.142 70.7916 73.142C71.1316 73.142 71.4316 73.096 71.6916 73.004C71.9516 72.908 72.1856 72.792 72.3936 72.656L72.2916 73.676C72.1076 73.792 71.8716 73.898 71.5836 73.994C71.2996 74.09 70.9736 74.138 70.6056 74.138ZM77.3019 74L75.1479 71.354H74.5659V70.442H75.1539L77.2179 68.132H78.5919L76.0239 70.982V70.724L78.6939 74H77.3019ZM73.4979 74V66.056H74.6679V74H73.4979ZM87.7223 74C87.6583 73.936 87.5643 73.844 87.4403 73.724C87.3163 73.604 87.1843 73.476 87.0443 73.34C86.9043 73.2 86.7723 73.072 86.6483 72.956C86.5283 72.84 86.4403 72.754 86.3843 72.698L86.2343 72.536L83.4323 69.914L83.2583 69.704C82.9943 69.432 82.8003 69.176 82.6763 68.936C82.5523 68.696 82.4903 68.412 82.4903 68.084V68.042C82.4903 67.462 82.6723 67.008 83.0363 66.68C83.4043 66.352 83.9623 66.188 84.7103 66.188C85.1863 66.188 85.5923 66.234 85.9283 66.326C86.2643 66.414 86.5443 66.516 86.7683 66.632L86.8823 67.706C86.6223 67.578 86.3263 67.468 85.9943 67.376C85.6663 67.28 85.3123 67.232 84.9323 67.232C84.5003 67.232 84.1903 67.308 84.0023 67.46C83.8183 67.608 83.7263 67.814 83.7263 68.078V68.108C83.7263 68.316 83.7823 68.512 83.8943 68.696C84.0103 68.876 84.1843 69.078 84.4163 69.302L86.9723 71.738L87.2603 72.05C87.3803 72.166 87.5003 72.284 87.6203 72.404C87.7443 72.524 87.8683 72.646 87.9923 72.77C88.1163 72.89 88.2403 73.014 88.3643 73.142C88.4883 73.266 88.6123 73.392 88.7363 73.52C88.8603 73.648 88.9843 73.776 89.1083 73.904V74H87.7223ZM84.4403 74.144C83.5683 74.144 82.9163 73.944 82.4843 73.544C82.0523 73.144 81.8363 72.576 81.8363 71.84V71.648C81.8363 71.088 81.9443 70.63 82.1603 70.274C82.3803 69.914 82.7503 69.596 83.2703 69.32L83.8943 70.148C83.6023 70.288 83.3903 70.468 83.2583 70.688C83.1303 70.908 83.0663 71.196 83.0663 71.552V71.732C83.0663 72.196 83.1903 72.548 83.4383 72.788C83.6903 73.024 84.0603 73.142 84.5483 73.142C84.9603 73.142 85.3103 73.06 85.5983 72.896C85.8903 72.728 86.1383 72.488 86.3423 72.176L86.6543 71.786C86.8543 71.434 87.0083 71.044 87.1163 70.616C87.2283 70.184 87.3063 69.72 87.3503 69.224H88.5023C88.4303 69.888 88.3103 70.5 88.1423 71.06C87.9783 71.62 87.7483 72.114 87.4523 72.542L87.1283 72.878C86.9203 73.146 86.6883 73.374 86.4323 73.562C86.1803 73.75 85.8903 73.894 85.5623 73.994C85.2383 74.094 84.8643 74.144 84.4403 74.144ZM94.7322 74.156C94.1482 74.156 93.6582 74.038 93.2622 73.802C92.8702 73.562 92.5742 73.216 92.3742 72.764C92.1782 72.308 92.0802 71.758 92.0802 71.114V69.38C92.0802 68.352 92.3482 67.562 92.8842 67.01C93.4242 66.458 94.2162 66.182 95.2602 66.182C95.6202 66.182 95.9482 66.21 96.2442 66.266C96.5402 66.322 96.8042 66.394 97.0362 66.482C97.2722 66.57 97.4742 66.664 97.6422 66.764L97.7502 67.838C97.4702 67.674 97.1422 67.53 96.7662 67.406C96.3902 67.278 95.9602 67.214 95.4762 67.214C94.7402 67.214 94.1942 67.402 93.8382 67.778C93.4822 68.15 93.3042 68.692 93.3042 69.404V71.108C93.3042 71.752 93.4542 72.25 93.7542 72.602C94.0542 72.95 94.5102 73.124 95.1222 73.124C95.4222 73.124 95.6802 73.074 95.8962 72.974C96.1162 72.874 96.2962 72.74 96.4362 72.572C96.5762 72.404 96.6782 72.22 96.7422 72.02V70.232L96.9222 70.652H95.2242V69.656H97.9182V72.8L96.7242 72.794C96.6602 73.038 96.5522 73.264 96.4002 73.472C96.2522 73.68 96.0422 73.846 95.7702 73.97C95.5022 74.094 95.1562 74.156 94.7322 74.156ZM96.7962 72.416H97.9182V74H96.7422L96.7962 72.416ZM100.524 70.454L100.272 69.536H100.56C100.684 69.072 100.892 68.708 101.184 68.444C101.476 68.176 101.874 68.042 102.378 68.042C102.498 68.042 102.604 68.052 102.696 68.072C102.792 68.088 102.878 68.108 102.954 68.132L103.026 69.278C102.93 69.246 102.822 69.222 102.702 69.206C102.582 69.186 102.452 69.176 102.312 69.176C101.884 69.176 101.514 69.286 101.202 69.506C100.89 69.726 100.664 70.042 100.524 70.454ZM99.3963 74V68.132H100.542L100.488 69.842L100.572 69.926V74H99.3963ZM107.229 74L107.277 72.608L107.235 72.428V70.58L107.241 70.286C107.241 69.834 107.125 69.502 106.893 69.29C106.665 69.078 106.297 68.972 105.789 68.972C105.377 68.972 104.995 69.03 104.643 69.146C104.291 69.262 103.973 69.396 103.689 69.548L103.797 68.564C103.957 68.472 104.145 68.382 104.361 68.294C104.577 68.206 104.821 68.134 105.093 68.078C105.365 68.022 105.663 67.994 105.987 67.994C106.431 67.994 106.807 68.048 107.115 68.156C107.423 68.26 107.671 68.412 107.859 68.612C108.047 68.812 108.183 69.052 108.267 69.332C108.355 69.612 108.399 69.924 108.399 70.268V74H107.229ZM105.243 74.132C104.663 74.132 104.219 73.99 103.911 73.706C103.603 73.418 103.449 73.01 103.449 72.482V72.302C103.449 71.742 103.621 71.328 103.965 71.06C104.313 70.788 104.859 70.6 105.603 70.496L107.367 70.244L107.433 71.096L105.741 71.336C105.337 71.392 105.049 71.49 104.877 71.63C104.705 71.766 104.619 71.968 104.619 72.236V72.32C104.619 72.588 104.701 72.794 104.865 72.938C105.033 73.082 105.287 73.154 105.627 73.154C105.939 73.154 106.207 73.102 106.431 72.998C106.655 72.894 106.837 72.756 106.977 72.584C107.117 72.408 107.213 72.214 107.265 72.002L107.427 72.788H107.211C107.147 73.028 107.041 73.25 106.893 73.454C106.745 73.658 106.537 73.822 106.269 73.946C106.005 74.07 105.663 74.132 105.243 74.132ZM117.081 74V70.346C117.081 70.07 117.045 69.83 116.973 69.626C116.905 69.418 116.789 69.258 116.625 69.146C116.465 69.034 116.247 68.978 115.971 68.978C115.707 68.978 115.479 69.03 115.287 69.134C115.095 69.238 114.939 69.378 114.819 69.554C114.703 69.73 114.619 69.93 114.567 70.154L114.411 69.338H114.549C114.621 69.102 114.731 68.882 114.879 68.678C115.027 68.474 115.227 68.31 115.479 68.186C115.731 68.062 116.049 68 116.433 68C116.865 68 117.215 68.086 117.483 68.258C117.751 68.426 117.947 68.676 118.071 69.008C118.195 69.336 118.257 69.738 118.257 70.214V74H117.081ZM109.791 74V68.132H110.967L110.919 69.506L110.967 69.578V74H109.791ZM113.439 74V70.346C113.439 70.07 113.403 69.83 113.331 69.626C113.263 69.418 113.147 69.258 112.983 69.146C112.823 69.034 112.605 68.978 112.329 68.978C112.065 68.978 111.837 69.03 111.645 69.134C111.453 69.238 111.297 69.378 111.177 69.554C111.061 69.73 110.977 69.93 110.925 70.154L110.733 69.338H110.985C111.049 69.09 111.153 68.866 111.297 68.666C111.445 68.462 111.641 68.3 111.885 68.18C112.129 68.06 112.429 68 112.785 68C113.329 68 113.741 68.14 114.021 68.42C114.301 68.7 114.477 69.108 114.549 69.644C114.569 69.72 114.583 69.806 114.591 69.902C114.603 69.998 114.609 70.092 114.609 70.184V74H113.439ZM126.96 74V70.346C126.96 70.07 126.924 69.83 126.852 69.626C126.784 69.418 126.668 69.258 126.504 69.146C126.344 69.034 126.126 68.978 125.85 68.978C125.586 68.978 125.358 69.03 125.166 69.134C124.974 69.238 124.818 69.378 124.698 69.554C124.582 69.73 124.498 69.93 124.446 70.154L124.29 69.338H124.428C124.5 69.102 124.61 68.882 124.758 68.678C124.906 68.474 125.106 68.31 125.358 68.186C125.61 68.062 125.928 68 126.312 68C126.744 68 127.094 68.086 127.362 68.258C127.63 68.426 127.826 68.676 127.95 69.008C128.074 69.336 128.136 69.738 128.136 70.214V74H126.96ZM119.67 74V68.132H120.846L120.798 69.506L120.846 69.578V74H119.67ZM123.318 74V70.346C123.318 70.07 123.282 69.83 123.21 69.626C123.142 69.418 123.026 69.258 122.862 69.146C122.702 69.034 122.484 68.978 122.208 68.978C121.944 68.978 121.716 69.03 121.524 69.134C121.332 69.238 121.176 69.378 121.056 69.554C120.94 69.73 120.856 69.93 120.804 70.154L120.612 69.338H120.864C120.928 69.09 121.032 68.866 121.176 68.666C121.324 68.462 121.52 68.3 121.764 68.18C122.008 68.06 122.308 68 122.664 68C123.208 68 123.62 68.14 123.9 68.42C124.18 68.7 124.356 69.108 124.428 69.644C124.448 69.72 124.462 69.806 124.47 69.902C124.482 69.998 124.488 70.092 124.488 70.184V74H123.318ZM132.999 74L133.047 72.608L133.005 72.428V70.58L133.011 70.286C133.011 69.834 132.895 69.502 132.663 69.29C132.435 69.078 132.067 68.972 131.559 68.972C131.147 68.972 130.765 69.03 130.413 69.146C130.061 69.262 129.743 69.396 129.459 69.548L129.567 68.564C129.727 68.472 129.915 68.382 130.131 68.294C130.347 68.206 130.591 68.134 130.863 68.078C131.135 68.022 131.433 67.994 131.757 67.994C132.201 67.994 132.577 68.048 132.885 68.156C133.193 68.26 133.441 68.412 133.629 68.612C133.817 68.812 133.953 69.052 134.037 69.332C134.125 69.612 134.169 69.924 134.169 70.268V74H132.999ZM131.013 74.132C130.433 74.132 129.989 73.99 129.681 73.706C129.373 73.418 129.219 73.01 129.219 72.482V72.302C129.219 71.742 129.391 71.328 129.735 71.06C130.083 70.788 130.629 70.6 131.373 70.496L133.137 70.244L133.203 71.096L131.511 71.336C131.107 71.392 130.819 71.49 130.647 71.63C130.475 71.766 130.389 71.968 130.389 72.236V72.32C130.389 72.588 130.471 72.794 130.635 72.938C130.803 73.082 131.057 73.154 131.397 73.154C131.709 73.154 131.977 73.102 132.201 72.998C132.425 72.894 132.607 72.756 132.747 72.584C132.887 72.408 132.983 72.214 133.035 72.002L133.197 72.788H132.981C132.917 73.028 132.811 73.25 132.663 73.454C132.515 73.658 132.307 73.822 132.039 73.946C131.775 74.07 131.433 74.132 131.013 74.132ZM136.688 70.454L136.436 69.536H136.724C136.848 69.072 137.056 68.708 137.348 68.444C137.64 68.176 138.038 68.042 138.542 68.042C138.662 68.042 138.768 68.052 138.86 68.072C138.956 68.088 139.042 68.108 139.118 68.132L139.19 69.278C139.094 69.246 138.986 69.222 138.866 69.206C138.746 69.186 138.616 69.176 138.476 69.176C138.048 69.176 137.678 69.286 137.366 69.506C137.054 69.726 136.828 70.042 136.688 70.454ZM135.56 74V68.132H136.706L136.652 69.842L136.736 69.926V74H135.56Z" fill="black"/>
<rect x="203" y="63" width="30" height="13" rx="6.5" fill="#6A55DD"/>
<circle cx="226.5" cy="69.5" r="5.5" fill="white"/>
<path d="M23.872 102L22.348 94.332H23.578L24.544 99.654L24.796 100.992H24.892L25.132 99.654L26.086 94.524H27.838L28.786 99.654L29.026 100.992H29.128L29.38 99.654L30.346 94.332H31.57L30.052 102H28.18L27.412 97.818L27.01 95.52H26.914L26.512 97.818L25.75 102H23.872ZM34.6482 102.15C33.7842 102.15 33.1282 101.92 32.6802 101.46C32.2322 101 32.0082 100.338 32.0082 99.474V98.64C32.0082 97.78 32.2322 97.122 32.6802 96.666C33.1282 96.206 33.7842 95.976 34.6482 95.976C35.5122 95.976 36.1662 96.206 36.6102 96.666C37.0582 97.122 37.2822 97.78 37.2822 98.64V99.474C37.2822 100.338 37.0582 101 36.6102 101.46C36.1662 101.92 35.5122 102.15 34.6482 102.15ZM34.6482 101.196C35.1242 101.196 35.4862 101.054 35.7342 100.77C35.9822 100.486 36.1062 100.078 36.1062 99.546V98.568C36.1062 98.04 35.9822 97.636 35.7342 97.356C35.4862 97.072 35.1242 96.93 34.6482 96.93C34.1722 96.93 33.8102 97.072 33.5622 97.356C33.3142 97.636 33.1902 98.04 33.1902 98.568V99.546C33.1902 100.078 33.3142 100.486 33.5622 100.77C33.8102 101.054 34.1722 101.196 34.6482 101.196ZM39.6689 98.454L39.4169 97.536H39.7049C39.8289 97.072 40.0369 96.708 40.3289 96.444C40.6209 96.176 41.0189 96.042 41.5229 96.042C41.6429 96.042 41.7489 96.052 41.8409 96.072C41.9369 96.088 42.0229 96.108 42.0989 96.132L42.1709 97.278C42.0749 97.246 41.9669 97.222 41.8469 97.206C41.7269 97.186 41.5969 97.176 41.4569 97.176C41.0289 97.176 40.6589 97.286 40.3469 97.506C40.0349 97.726 39.8089 98.042 39.6689 98.454ZM38.5409 102V96.132H39.6869L39.6329 97.842L39.7169 97.926V102H38.5409ZM44.8731 102.132C44.1731 102.132 43.6391 101.912 43.2711 101.472C42.9071 101.032 42.7251 100.39 42.7251 99.546V98.616C42.7251 97.764 42.9091 97.116 43.2771 96.672C43.6491 96.224 44.1971 96 44.9211 96C45.2691 96 45.5671 96.056 45.8151 96.168C46.0671 96.276 46.2711 96.43 46.4271 96.63C46.5871 96.83 46.7011 97.066 46.7691 97.338H47.1591L46.8291 98.424C46.8171 98.104 46.7471 97.836 46.6191 97.62C46.4911 97.4 46.3151 97.234 46.0911 97.122C45.8671 97.01 45.6051 96.954 45.3051 96.954C44.8531 96.954 44.5071 97.084 44.2671 97.344C44.0271 97.604 43.9071 97.99 43.9071 98.502V99.624C43.9071 100.124 44.0251 100.504 44.2611 100.764C44.5011 101.024 44.8491 101.154 45.3051 101.154C45.5811 101.154 45.8231 101.102 46.0311 100.998C46.2431 100.894 46.4191 100.752 46.5591 100.572C46.6991 100.392 46.7951 100.19 46.8471 99.966L47.1231 100.794H46.7811C46.7171 101.038 46.6091 101.262 46.4571 101.466C46.3091 101.67 46.1071 101.832 45.8511 101.952C45.5951 102.072 45.2691 102.132 44.8731 102.132ZM46.7991 102L46.8471 100.626L46.8291 100.254V97.818L46.8351 97.59L46.8051 95.928V94.056H47.9751V102H46.7991ZM49.4808 102V96.132H50.6568V102H49.4808ZM50.0688 95.268C49.8368 95.268 49.6628 95.21 49.5468 95.094C49.4348 94.974 49.3788 94.81 49.3788 94.602V94.578C49.3788 94.37 49.4348 94.208 49.5468 94.092C49.6628 93.972 49.8368 93.912 50.0688 93.912C50.3008 93.912 50.4728 93.972 50.5848 94.092C50.7008 94.208 50.7588 94.37 50.7588 94.578V94.602C50.7588 94.814 50.7008 94.978 50.5848 95.094C50.4728 95.21 50.3008 95.268 50.0688 95.268ZM56.0461 102V98.376C56.0461 98.092 56.0061 97.846 55.9261 97.638C55.8501 97.43 55.7221 97.268 55.5421 97.152C55.3661 97.036 55.1241 96.978 54.8161 96.978C54.5321 96.978 54.2861 97.03 54.0781 97.134C53.8701 97.238 53.7001 97.378 53.5681 97.554C53.4401 97.73 53.3481 97.93 53.2921 98.154L53.1001 97.338H53.3521C53.4201 97.09 53.5321 96.866 53.6881 96.666C53.8441 96.462 54.0521 96.3 54.3121 96.18C54.5721 96.06 54.8941 96 55.2781 96C55.7381 96 56.1101 96.088 56.3941 96.264C56.6781 96.436 56.8861 96.688 57.0181 97.02C57.1541 97.352 57.2221 97.76 57.2221 98.244V102H56.0461ZM52.1581 102V96.132H53.3341L53.2861 97.506L53.3341 97.578V102H52.1581ZM60.9965 100.224C60.1725 100.224 59.5405 100.048 59.1005 99.696C58.6605 99.344 58.4405 98.842 58.4405 98.19V98.094C58.4405 97.682 58.5265 97.326 58.6985 97.026C58.8705 96.722 59.1445 96.486 59.5205 96.318C59.9005 96.146 60.3965 96.05 61.0085 96.03L64.0565 95.928V96.846L62.4245 96.774V96.84C62.6565 96.9 62.8485 96.994 63.0005 97.122C63.1565 97.246 63.2745 97.402 63.3545 97.59C63.4345 97.778 63.4745 98 63.4745 98.256V98.322C63.4745 98.938 63.2645 99.41 62.8445 99.738C62.4285 100.062 61.8125 100.224 60.9965 100.224ZM60.9485 103.326H61.0985C61.4385 103.326 61.7265 103.302 61.9625 103.254C62.1985 103.206 62.3785 103.13 62.5025 103.026C62.6305 102.922 62.6945 102.784 62.6945 102.612V102.594C62.6945 102.39 62.6225 102.236 62.4785 102.132C62.3345 102.032 62.0845 101.966 61.7285 101.934L60.0365 101.772L60.3305 101.76C60.1385 101.792 59.9685 101.842 59.8205 101.91C59.6765 101.974 59.5625 102.058 59.4785 102.162C59.3985 102.27 59.3585 102.402 59.3585 102.558V102.57C59.3585 102.754 59.4205 102.902 59.5445 103.014C59.6725 103.126 59.8545 103.206 60.0905 103.254C60.3305 103.302 60.6165 103.326 60.9485 103.326ZM60.8765 104.262C60.3365 104.262 59.8705 104.214 59.4785 104.118C59.0905 104.026 58.7905 103.876 58.5785 103.668C58.3705 103.464 58.2665 103.192 58.2665 102.852V102.828C58.2665 102.6 58.3165 102.408 58.4165 102.252C58.5205 102.096 58.6605 101.972 58.8365 101.88C59.0165 101.784 59.2165 101.72 59.4365 101.688V101.628C59.1445 101.568 58.9265 101.47 58.7825 101.334C58.6425 101.194 58.5725 101.014 58.5725 100.794V100.788C58.5725 100.636 58.6065 100.506 58.6745 100.398C58.7425 100.286 58.8445 100.198 58.9805 100.134C59.1205 100.066 59.2945 100.022 59.5025 100.002V99.87L60.7385 100.17L60.2885 100.152C60.0525 100.156 59.8885 100.186 59.7965 100.242C59.7085 100.298 59.6645 100.378 59.6645 100.482V100.488C59.6645 100.608 59.7305 100.698 59.8625 100.758C59.9985 100.814 60.2265 100.86 60.5465 100.896L61.9745 101.052C62.6065 101.12 63.0685 101.274 63.3605 101.514C63.6525 101.754 63.7985 102.118 63.7985 102.606V102.636C63.7985 103.012 63.6885 103.32 63.4685 103.56C63.2525 103.8 62.9405 103.976 62.5325 104.088C62.1285 104.204 61.6425 104.262 61.0745 104.262H60.8765ZM60.9785 99.36C61.2865 99.36 61.5425 99.316 61.7465 99.228C61.9545 99.136 62.1105 99 62.2145 98.82C62.3185 98.64 62.3705 98.42 62.3705 98.16V98.07C62.3705 97.814 62.3185 97.598 62.2145 97.422C62.1145 97.246 61.9625 97.112 61.7585 97.02C61.5585 96.928 61.3045 96.882 60.9965 96.882H60.9665C60.6345 96.882 60.3645 96.932 60.1565 97.032C59.9485 97.128 59.7965 97.266 59.7005 97.446C59.6085 97.622 59.5625 97.832 59.5625 98.076V98.16C59.5625 98.42 59.6145 98.64 59.7185 98.82C59.8225 99 59.9785 99.136 60.1865 99.228C60.3985 99.316 60.6625 99.36 60.9785 99.36ZM73.0036 102C72.9396 101.936 72.8456 101.844 72.7216 101.724C72.5976 101.604 72.4656 101.476 72.3256 101.34C72.1856 101.2 72.0536 101.072 71.9296 100.956C71.8096 100.84 71.7216 100.754 71.6656 100.698L71.5156 100.536L68.7136 97.914L68.5396 97.704C68.2756 97.432 68.0816 97.176 67.9576 96.936C67.8336 96.696 67.7716 96.412 67.7716 96.084V96.042C67.7716 95.462 67.9536 95.008 68.3176 94.68C68.6856 94.352 69.2436 94.188 69.9916 94.188C70.4676 94.188 70.8736 94.234 71.2096 94.326C71.5456 94.414 71.8256 94.516 72.0496 94.632L72.1636 95.706C71.9036 95.578 71.6076 95.468 71.2756 95.376C70.9476 95.28 70.5936 95.232 70.2136 95.232C69.7816 95.232 69.4716 95.308 69.2836 95.46C69.0996 95.608 69.0076 95.814 69.0076 96.078V96.108C69.0076 96.316 69.0636 96.512 69.1756 96.696C69.2916 96.876 69.4656 97.078 69.6976 97.302L72.2536 99.738L72.5416 100.05C72.6616 100.166 72.7816 100.284 72.9016 100.404C73.0256 100.524 73.1496 100.646 73.2736 100.77C73.3976 100.89 73.5216 101.014 73.6456 101.142C73.7696 101.266 73.8936 101.392 74.0176 101.52C74.1416 101.648 74.2656 101.776 74.3896 101.904V102H73.0036ZM69.7216 102.144C68.8496 102.144 68.1976 101.944 67.7656 101.544C67.3336 101.144 67.1176 100.576 67.1176 99.84V99.648C67.1176 99.088 67.2256 98.63 67.4416 98.274C67.6616 97.914 68.0316 97.596 68.5516 97.32L69.1756 98.148C68.8836 98.288 68.6716 98.468 68.5396 98.688C68.4116 98.908 68.3476 99.196 68.3476 99.552V99.732C68.3476 100.196 68.4716 100.548 68.7196 100.788C68.9716 101.024 69.3416 101.142 69.8296 101.142C70.2416 101.142 70.5916 101.06 70.8796 100.896C71.1716 100.728 71.4196 100.488 71.6236 100.176L71.9356 99.786C72.1356 99.434 72.2896 99.044 72.3976 98.616C72.5096 98.184 72.5876 97.72 72.6316 97.224H73.7836C73.7116 97.888 73.5916 98.5 73.4236 99.06C73.2596 99.62 73.0296 100.114 72.7336 100.542L72.4096 100.878C72.2016 101.146 71.9696 101.374 71.7136 101.562C71.4616 101.75 71.1716 101.894 70.8436 101.994C70.5196 102.094 70.1456 102.144 69.7216 102.144ZM82.0474 102L81.8434 100.446C81.8074 100.162 81.7434 99.92 81.6514 99.72C81.5634 99.516 81.4254 99.358 81.2374 99.246C81.0494 99.134 80.7874 99.078 80.4514 99.078L78.4534 99.072V98.124L80.5774 98.118C81.0694 98.118 81.4214 98 81.6334 97.764C81.8454 97.528 81.9514 97.2 81.9514 96.78V96.612C81.9514 96.2 81.8434 95.882 81.6274 95.658C81.4114 95.434 81.0534 95.322 80.5534 95.322H78.4294V94.332H80.7214C81.5734 94.332 82.1934 94.514 82.5814 94.878C82.9734 95.242 83.1694 95.75 83.1694 96.402V96.594C83.1694 97.078 83.0574 97.474 82.8334 97.782C82.6134 98.09 82.2434 98.284 81.7234 98.364V98.52L81.2194 98.346C81.6634 98.378 82.0054 98.474 82.2454 98.634C82.4894 98.794 82.6674 99.014 82.7794 99.294C82.8914 99.574 82.9774 99.914 83.0374 100.314L83.2954 102H82.0474ZM77.6254 102V94.332H78.8074V98.454L78.8134 98.904V102H77.6254ZM86.9118 102.138C85.9758 102.138 85.2738 101.916 84.8058 101.472C84.3418 101.024 84.1098 100.38 84.1098 99.54V98.58C84.1098 97.752 84.3258 97.112 84.7578 96.66C85.1938 96.204 85.8278 95.976 86.6598 95.976C87.2238 95.976 87.6938 96.08 88.0698 96.288C88.4458 96.492 88.7278 96.782 88.9158 97.158C89.1038 97.534 89.1978 97.98 89.1978 98.496V98.718C89.1978 98.854 89.1918 98.992 89.1798 99.132C89.1678 99.272 89.1518 99.406 89.1318 99.534H88.0518C88.0598 99.326 88.0638 99.13 88.0638 98.946C88.0678 98.762 88.0698 98.594 88.0698 98.442C88.0698 98.118 88.0178 97.844 87.9138 97.62C87.8098 97.396 87.6538 97.226 87.4458 97.11C87.2378 96.99 86.9758 96.93 86.6598 96.93C86.1918 96.93 85.8438 97.064 85.6158 97.332C85.3878 97.596 85.2738 97.974 85.2738 98.466V99.018L85.2798 99.156V99.678C85.2798 99.898 85.3118 100.098 85.3758 100.278C85.4438 100.458 85.5498 100.614 85.6938 100.746C85.8418 100.874 86.0318 100.974 86.2638 101.046C86.4958 101.114 86.7778 101.148 87.1098 101.148C87.4858 101.148 87.8378 101.1 88.1658 101.004C88.4978 100.908 88.8098 100.78 89.1018 100.62L88.9938 101.622C88.7298 101.778 88.4218 101.904 88.0698 102C87.7218 102.092 87.3358 102.138 86.9118 102.138ZM84.7338 99.534V98.652H88.8918V99.534H84.7338ZM93.8112 102L93.8592 100.608L93.8172 100.428V98.58L93.8232 98.286C93.8232 97.834 93.7072 97.502 93.4752 97.29C93.2472 97.078 92.8792 96.972 92.3712 96.972C91.9592 96.972 91.5772 97.03 91.2252 97.146C90.8732 97.262 90.5552 97.396 90.2712 97.548L90.3792 96.564C90.5392 96.472 90.7272 96.382 90.9432 96.294C91.1592 96.206 91.4032 96.134 91.6752 96.078C91.9472 96.022 92.2452 95.994 92.5692 95.994C93.0132 95.994 93.3892 96.048 93.6972 96.156C94.0052 96.26 94.2532 96.412 94.4412 96.612C94.6292 96.812 94.7652 97.052 94.8492 97.332C94.9372 97.612 94.9812 97.924 94.9812 98.268V102H93.8112ZM91.8252 102.132C91.2452 102.132 90.8012 101.99 90.4932 101.706C90.1852 101.418 90.0312 101.01 90.0312 100.482V100.302C90.0312 99.742 90.2032 99.328 90.5472 99.06C90.8952 98.788 91.4412 98.6 92.1852 98.496L93.9492 98.244L94.0152 99.096L92.3232 99.336C91.9192 99.392 91.6312 99.49 91.4592 99.63C91.2872 99.766 91.2012 99.968 91.2012 100.236V100.32C91.2012 100.588 91.2832 100.794 91.4472 100.938C91.6152 101.082 91.8692 101.154 92.2092 101.154C92.5212 101.154 92.7892 101.102 93.0132 100.998C93.2372 100.894 93.4192 100.756 93.5592 100.584C93.6992 100.408 93.7952 100.214 93.8472 100.002L94.0092 100.788H93.7932C93.7292 101.028 93.6232 101.25 93.4752 101.454C93.3272 101.658 93.1192 101.822 92.8512 101.946C92.5872 102.07 92.2452 102.132 91.8252 102.132ZM98.2989 102.132C97.5989 102.132 97.0649 101.912 96.6969 101.472C96.3329 101.032 96.1509 100.39 96.1509 99.546V98.616C96.1509 97.764 96.3349 97.116 96.7029 96.672C97.0749 96.224 97.6229 96 98.3469 96C98.6949 96 98.9929 96.056 99.2409 96.168C99.4929 96.276 99.6969 96.43 99.8529 96.63C100.013 96.83 100.127 97.066 100.195 97.338H100.585L100.255 98.424C100.243 98.104 100.173 97.836 100.045 97.62C99.9169 97.4 99.7409 97.234 99.5169 97.122C99.2929 97.01 99.0309 96.954 98.7309 96.954C98.2789 96.954 97.9329 97.084 97.6929 97.344C97.4529 97.604 97.3329 97.99 97.3329 98.502V99.624C97.3329 100.124 97.4509 100.504 97.6869 100.764C97.9269 101.024 98.2749 101.154 98.7309 101.154C99.0069 101.154 99.2489 101.102 99.4569 100.998C99.6689 100.894 99.8449 100.752 99.9849 100.572C100.125 100.392 100.221 100.19 100.273 99.966L100.549 100.794H100.207C100.143 101.038 100.035 101.262 99.8829 101.466C99.7349 101.67 99.5329 101.832 99.2769 101.952C99.0209 102.072 98.6949 102.132 98.2989 102.132ZM100.225 102L100.273 100.626L100.255 100.254V97.818L100.261 97.59L100.231 95.928V94.056H101.401V102H100.225ZM106.339 102L106.387 100.608L106.345 100.428V98.58L106.351 98.286C106.351 97.834 106.235 97.502 106.003 97.29C105.775 97.078 105.407 96.972 104.899 96.972C104.487 96.972 104.105 97.03 103.753 97.146C103.401 97.262 103.083 97.396 102.799 97.548L102.907 96.564C103.067 96.472 103.255 96.382 103.471 96.294C103.687 96.206 103.931 96.134 104.203 96.078C104.475 96.022 104.773 95.994 105.097 95.994C105.541 95.994 105.917 96.048 106.225 96.156C106.533 96.26 106.781 96.412 106.969 96.612C107.157 96.812 107.293 97.052 107.377 97.332C107.465 97.612 107.509 97.924 107.509 98.268V102H106.339ZM104.353 102.132C103.773 102.132 103.329 101.99 103.021 101.706C102.713 101.418 102.559 101.01 102.559 100.482V100.302C102.559 99.742 102.731 99.328 103.075 99.06C103.423 98.788 103.969 98.6 104.713 98.496L106.477 98.244L106.543 99.096L104.851 99.336C104.447 99.392 104.159 99.49 103.987 99.63C103.815 99.766 103.729 99.968 103.729 100.236V100.32C103.729 100.588 103.811 100.794 103.975 100.938C104.143 101.082 104.397 101.154 104.737 101.154C105.049 101.154 105.317 101.102 105.541 100.998C105.765 100.894 105.947 100.756 106.087 100.584C106.227 100.408 106.323 100.214 106.375 100.002L106.537 100.788H106.321C106.257 101.028 106.151 101.25 106.003 101.454C105.855 101.658 105.647 101.822 105.379 101.946C105.115 102.07 104.773 102.132 104.353 102.132ZM111.954 102.132C111.606 102.132 111.306 102.078 111.054 101.97C110.802 101.858 110.596 101.702 110.436 101.502C110.28 101.298 110.166 101.062 110.094 100.794H109.704L110.046 99.684C110.062 100.012 110.136 100.286 110.268 100.506C110.4 100.722 110.58 100.884 110.808 100.992C111.036 101.1 111.296 101.154 111.588 101.154C112.036 101.154 112.378 101.024 112.614 100.764C112.85 100.5 112.968 100.108 112.968 99.588V98.49C112.968 97.986 112.848 97.604 112.608 97.344C112.372 97.084 112.028 96.954 111.576 96.954C111.3 96.954 111.056 97.006 110.844 97.11C110.632 97.214 110.456 97.356 110.316 97.536C110.18 97.712 110.084 97.914 110.028 98.142L109.77 97.338H110.106C110.174 97.09 110.28 96.866 110.424 96.666C110.572 96.462 110.774 96.3 111.03 96.18C111.286 96.06 111.61 96 112.002 96C112.702 96 113.234 96.22 113.598 96.66C113.966 97.1 114.15 97.742 114.15 98.586V99.516C114.15 100.368 113.964 101.018 113.592 101.466C113.22 101.91 112.674 102.132 111.954 102.132ZM108.9 102V94.056H110.07V95.928L110.04 97.614L110.046 97.818V100.254L110.028 100.626L110.076 102H108.9ZM115.434 102V96.132H116.61V102H115.434ZM116.022 95.268C115.79 95.268 115.616 95.21 115.5 95.094C115.388 94.974 115.332 94.81 115.332 94.602V94.578C115.332 94.37 115.388 94.208 115.5 94.092C115.616 93.972 115.79 93.912 116.022 93.912C116.254 93.912 116.426 93.972 116.538 94.092C116.654 94.208 116.712 94.37 116.712 94.578V94.602C116.712 94.814 116.654 94.978 116.538 95.094C116.426 95.21 116.254 95.268 116.022 95.268ZM118.147 102V94.056H119.323V102H118.147ZM120.86 102V96.132H122.036V102H120.86ZM121.448 95.268C121.216 95.268 121.042 95.21 120.926 95.094C120.814 94.974 120.758 94.81 120.758 94.602V94.578C120.758 94.37 120.814 94.208 120.926 94.092C121.042 93.972 121.216 93.912 121.448 93.912C121.68 93.912 121.852 93.972 121.964 94.092C122.08 94.208 122.138 94.37 122.138 94.578V94.602C122.138 94.814 122.08 94.978 121.964 95.094C121.852 95.21 121.68 95.268 121.448 95.268ZM125.721 102.12C125.253 102.12 124.877 102.05 124.593 101.91C124.309 101.766 124.103 101.552 123.975 101.268C123.847 100.98 123.783 100.622 123.783 100.194V96.606H124.947V100.056C124.947 100.416 125.029 100.68 125.193 100.848C125.357 101.016 125.633 101.1 126.021 101.1C126.253 101.1 126.475 101.076 126.687 101.028C126.899 100.98 127.095 100.912 127.275 100.824L127.173 101.82C126.981 101.916 126.759 101.99 126.507 102.042C126.255 102.094 125.993 102.12 125.721 102.12ZM122.865 97.14V96.204H127.221L127.119 97.14H122.865ZM123.795 96.306L123.789 94.692L124.965 94.554L124.917 96.306H123.795ZM130.992 100.962L130.368 101.232L132.018 96.132H133.224L130.554 104.064H129.366L130.296 101.31L130.824 101.754H129.498L127.656 96.132H128.874L130.338 100.962H130.992Z" fill="black"/>
<rect x="203" y="91" width="30" height="13" rx="6.5" fill="#6A55DD"/>
<circle cx="226.5" cy="97.5" r="5.5" fill="white"/>
<path d="M27.274 130L27.07 128.446C27.034 128.162 26.97 127.92 26.878 127.72C26.79 127.516 26.652 127.358 26.464 127.246C26.276 127.134 26.014 127.078 25.678 127.078L23.68 127.072V126.124L25.804 126.118C26.296 126.118 26.648 126 26.86 125.764C27.072 125.528 27.178 125.2 27.178 124.78V124.612C27.178 124.2 27.07 123.882 26.854 123.658C26.638 123.434 26.28 123.322 25.78 123.322H23.656V122.332H25.948C26.8 122.332 27.42 122.514 27.808 122.878C28.2 123.242 28.396 123.75 28.396 124.402V124.594C28.396 125.078 28.284 125.474 28.06 125.782C27.84 126.09 27.47 126.284 26.95 126.364V126.52L26.446 126.346C26.89 126.378 27.232 126.474 27.472 126.634C27.716 126.794 27.894 127.014 28.006 127.294C28.118 127.574 28.204 127.914 28.264 128.314L28.522 130H27.274ZM22.852 130V122.332H24.034V126.454L24.04 126.904V130H22.852ZM32.1383 130.138C31.2023 130.138 30.5003 129.916 30.0323 129.472C29.5683 129.024 29.3363 128.38 29.3363 127.54V126.58C29.3363 125.752 29.5523 125.112 29.9843 124.66C30.4203 124.204 31.0543 123.976 31.8863 123.976C32.4503 123.976 32.9203 124.08 33.2963 124.288C33.6723 124.492 33.9543 124.782 34.1423 125.158C34.3303 125.534 34.4243 125.98 34.4243 126.496V126.718C34.4243 126.854 34.4183 126.992 34.4063 127.132C34.3943 127.272 34.3783 127.406 34.3583 127.534H33.2783C33.2863 127.326 33.2903 127.13 33.2903 126.946C33.2943 126.762 33.2963 126.594 33.2963 126.442C33.2963 126.118 33.2443 125.844 33.1403 125.62C33.0363 125.396 32.8803 125.226 32.6723 125.11C32.4643 124.99 32.2023 124.93 31.8863 124.93C31.4183 124.93 31.0703 125.064 30.8423 125.332C30.6143 125.596 30.5003 125.974 30.5003 126.466V127.018L30.5063 127.156V127.678C30.5063 127.898 30.5383 128.098 30.6023 128.278C30.6703 128.458 30.7763 128.614 30.9203 128.746C31.0683 128.874 31.2583 128.974 31.4903 129.046C31.7223 129.114 32.0043 129.148 32.3363 129.148C32.7123 129.148 33.0643 129.1 33.3923 129.004C33.7243 128.908 34.0363 128.78 34.3283 128.62L34.2203 129.622C33.9563 129.778 33.6483 129.904 33.2963 130C32.9483 130.092 32.5623 130.138 32.1383 130.138ZM29.9603 127.534V126.652H34.1183V127.534H29.9603ZM37.9689 130.138C37.0969 130.138 36.4489 129.908 36.0249 129.448C35.6049 128.984 35.3949 128.33 35.3949 127.486V126.64C35.3949 125.792 35.6069 125.138 36.0309 124.678C36.4549 124.218 37.1009 123.988 37.9689 123.988C38.2089 123.988 38.4289 124.01 38.6289 124.054C38.8329 124.098 39.0169 124.156 39.1809 124.228C39.3449 124.296 39.4849 124.368 39.6009 124.444L39.7029 125.452C39.5109 125.316 39.2889 125.202 39.0369 125.11C38.7849 125.014 38.4909 124.966 38.1549 124.966C37.6189 124.966 37.2209 125.112 36.9609 125.404C36.7049 125.692 36.5769 126.112 36.5769 126.664V127.456C36.5769 127.996 36.7049 128.412 36.9609 128.704C37.2209 128.996 37.6189 129.142 38.1549 129.142C38.4949 129.142 38.7949 129.096 39.0549 129.004C39.3149 128.908 39.5489 128.792 39.7569 128.656L39.6549 129.676C39.4709 129.792 39.2349 129.898 38.9469 129.994C38.6629 130.09 38.3369 130.138 37.9689 130.138ZM43.1677 130.15C42.3037 130.15 41.6477 129.92 41.1997 129.46C40.7517 129 40.5277 128.338 40.5277 127.474V126.64C40.5277 125.78 40.7517 125.122 41.1997 124.666C41.6477 124.206 42.3037 123.976 43.1677 123.976C44.0317 123.976 44.6857 124.206 45.1297 124.666C45.5777 125.122 45.8017 125.78 45.8017 126.64V127.474C45.8017 128.338 45.5777 129 45.1297 129.46C44.6857 129.92 44.0317 130.15 43.1677 130.15ZM43.1677 129.196C43.6437 129.196 44.0057 129.054 44.2537 128.77C44.5017 128.486 44.6257 128.078 44.6257 127.546V126.568C44.6257 126.04 44.5017 125.636 44.2537 125.356C44.0057 125.072 43.6437 124.93 43.1677 124.93C42.6917 124.93 42.3297 125.072 42.0817 125.356C41.8337 125.636 41.7097 126.04 41.7097 126.568V127.546C41.7097 128.078 41.8337 128.486 42.0817 128.77C42.3297 129.054 42.6917 129.196 43.1677 129.196ZM54.3504 130V126.346C54.3504 126.07 54.3144 125.83 54.2424 125.626C54.1744 125.418 54.0584 125.258 53.8944 125.146C53.7344 125.034 53.5164 124.978 53.2404 124.978C52.9764 124.978 52.7484 125.03 52.5564 125.134C52.3644 125.238 52.2084 125.378 52.0884 125.554C51.9724 125.73 51.8884 125.93 51.8364 126.154L51.6804 125.338H51.8184C51.8904 125.102 52.0004 124.882 52.1484 124.678C52.2964 124.474 52.4964 124.31 52.7484 124.186C53.0004 124.062 53.3184 124 53.7024 124C54.1344 124 54.4844 124.086 54.7524 124.258C55.0204 124.426 55.2164 124.676 55.3404 125.008C55.4644 125.336 55.5264 125.738 55.5264 126.214V130H54.3504ZM47.0604 130V124.132H48.2364L48.1884 125.506L48.2364 125.578V130H47.0604ZM50.7084 130V126.346C50.7084 126.07 50.6724 125.83 50.6004 125.626C50.5324 125.418 50.4164 125.258 50.2524 125.146C50.0924 125.034 49.8744 124.978 49.5984 124.978C49.3344 124.978 49.1064 125.03 48.9144 125.134C48.7224 125.238 48.5664 125.378 48.4464 125.554C48.3304 125.73 48.2464 125.93 48.1944 126.154L48.0024 125.338H48.2544C48.3184 125.09 48.4224 124.866 48.5664 124.666C48.7144 124.462 48.9104 124.3 49.1544 124.18C49.3984 124.06 49.6984 124 50.0544 124C50.5984 124 51.0104 124.14 51.2904 124.42C51.5704 124.7 51.7464 125.108 51.8184 125.644C51.8384 125.72 51.8524 125.806 51.8604 125.902C51.8724 125.998 51.8784 126.092 51.8784 126.184V130H50.7084ZM64.2293 130V126.346C64.2293 126.07 64.1933 125.83 64.1213 125.626C64.0533 125.418 63.9373 125.258 63.7733 125.146C63.6133 125.034 63.3953 124.978 63.1193 124.978C62.8553 124.978 62.6273 125.03 62.4353 125.134C62.2433 125.238 62.0873 125.378 61.9673 125.554C61.8513 125.73 61.7673 125.93 61.7153 126.154L61.5593 125.338H61.6973C61.7693 125.102 61.8793 124.882 62.0273 124.678C62.1753 124.474 62.3753 124.31 62.6273 124.186C62.8793 124.062 63.1973 124 63.5813 124C64.0133 124 64.3633 124.086 64.6313 124.258C64.8993 124.426 65.0953 124.676 65.2193 125.008C65.3433 125.336 65.4053 125.738 65.4053 126.214V130H64.2293ZM56.9393 130V124.132H58.1153L58.0673 125.506L58.1153 125.578V130H56.9393ZM60.5873 130V126.346C60.5873 126.07 60.5513 125.83 60.4793 125.626C60.4113 125.418 60.2953 125.258 60.1313 125.146C59.9713 125.034 59.7533 124.978 59.4773 124.978C59.2133 124.978 58.9853 125.03 58.7933 125.134C58.6013 125.238 58.4453 125.378 58.3253 125.554C58.2093 125.73 58.1253 125.93 58.0733 126.154L57.8813 125.338H58.1333C58.1973 125.09 58.3013 124.866 58.4453 124.666C58.5933 124.462 58.7893 124.3 59.0333 124.18C59.2773 124.06 59.5773 124 59.9333 124C60.4773 124 60.8893 124.14 61.1693 124.42C61.4493 124.7 61.6253 125.108 61.6973 125.644C61.7173 125.72 61.7313 125.806 61.7393 125.902C61.7513 125.998 61.7573 126.092 61.7573 126.184V130H60.5873ZM69.3922 130.138C68.4562 130.138 67.7542 129.916 67.2862 129.472C66.8222 129.024 66.5902 128.38 66.5902 127.54V126.58C66.5902 125.752 66.8062 125.112 67.2382 124.66C67.6742 124.204 68.3082 123.976 69.1402 123.976C69.7042 123.976 70.1742 124.08 70.5502 124.288C70.9262 124.492 71.2082 124.782 71.3962 125.158C71.5842 125.534 71.6782 125.98 71.6782 126.496V126.718C71.6782 126.854 71.6722 126.992 71.6602 127.132C71.6482 127.272 71.6322 127.406 71.6122 127.534H70.5322C70.5402 127.326 70.5442 127.13 70.5442 126.946C70.5482 126.762 70.5502 126.594 70.5502 126.442C70.5502 126.118 70.4982 125.844 70.3942 125.62C70.2902 125.396 70.1342 125.226 69.9262 125.11C69.7182 124.99 69.4562 124.93 69.1402 124.93C68.6722 124.93 68.3242 125.064 68.0962 125.332C67.8682 125.596 67.7542 125.974 67.7542 126.466V127.018L67.7602 127.156V127.678C67.7602 127.898 67.7922 128.098 67.8562 128.278C67.9242 128.458 68.0302 128.614 68.1742 128.746C68.3222 128.874 68.5122 128.974 68.7442 129.046C68.9762 129.114 69.2582 129.148 69.5902 129.148C69.9662 129.148 70.3182 129.1 70.6462 129.004C70.9782 128.908 71.2902 128.78 71.5822 128.62L71.4742 129.622C71.2102 129.778 70.9022 129.904 70.5502 130C70.2022 130.092 69.8162 130.138 69.3922 130.138ZM67.2142 127.534V126.652H71.3722V127.534H67.2142ZM76.7765 130V126.376C76.7765 126.092 76.7365 125.846 76.6565 125.638C76.5805 125.43 76.4525 125.268 76.2725 125.152C76.0965 125.036 75.8545 124.978 75.5465 124.978C75.2625 124.978 75.0165 125.03 74.8085 125.134C74.6005 125.238 74.4305 125.378 74.2985 125.554C74.1705 125.73 74.0785 125.93 74.0225 126.154L73.8305 125.338H74.0825C74.1505 125.09 74.2625 124.866 74.4185 124.666C74.5745 124.462 74.7825 124.3 75.0425 124.18C75.3025 124.06 75.6245 124 76.0085 124C76.4685 124 76.8405 124.088 77.1245 124.264C77.4085 124.436 77.6165 124.688 77.7485 125.02C77.8845 125.352 77.9525 125.76 77.9525 126.244V130H76.7765ZM72.8885 130V124.132H74.0645L74.0165 125.506L74.0645 125.578V130H72.8885ZM81.295 130.132C80.595 130.132 80.061 129.912 79.693 129.472C79.329 129.032 79.147 128.39 79.147 127.546V126.616C79.147 125.764 79.331 125.116 79.699 124.672C80.071 124.224 80.619 124 81.343 124C81.691 124 81.989 124.056 82.237 124.168C82.489 124.276 82.693 124.43 82.849 124.63C83.009 124.83 83.123 125.066 83.191 125.338H83.581L83.251 126.424C83.239 126.104 83.169 125.836 83.041 125.62C82.913 125.4 82.737 125.234 82.513 125.122C82.289 125.01 82.027 124.954 81.727 124.954C81.275 124.954 80.929 125.084 80.689 125.344C80.449 125.604 80.329 125.99 80.329 126.502V127.624C80.329 128.124 80.447 128.504 80.683 128.764C80.923 129.024 81.271 129.154 81.727 129.154C82.003 129.154 82.245 129.102 82.453 128.998C82.665 128.894 82.841 128.752 82.981 128.572C83.121 128.392 83.217 128.19 83.269 127.966L83.545 128.794H83.203C83.139 129.038 83.031 129.262 82.879 129.466C82.731 129.67 82.529 129.832 82.273 129.952C82.017 130.072 81.691 130.132 81.295 130.132ZM83.221 130L83.269 128.626L83.251 128.254V125.818L83.257 125.59L83.227 123.928V122.056H84.397V130H83.221ZM89.3346 130L89.3826 128.608L89.3406 128.428V126.58L89.3466 126.286C89.3466 125.834 89.2306 125.502 88.9986 125.29C88.7706 125.078 88.4026 124.972 87.8946 124.972C87.4826 124.972 87.1006 125.03 86.7486 125.146C86.3966 125.262 86.0786 125.396 85.7946 125.548L85.9026 124.564C86.0626 124.472 86.2506 124.382 86.4666 124.294C86.6826 124.206 86.9266 124.134 87.1986 124.078C87.4706 124.022 87.7686 123.994 88.0926 123.994C88.5366 123.994 88.9126 124.048 89.2206 124.156C89.5286 124.26 89.7766 124.412 89.9646 124.612C90.1526 124.812 90.2886 125.052 90.3726 125.332C90.4606 125.612 90.5046 125.924 90.5046 126.268V130H89.3346ZM87.3486 130.132C86.7686 130.132 86.3246 129.99 86.0166 129.706C85.7086 129.418 85.5546 129.01 85.5546 128.482V128.302C85.5546 127.742 85.7266 127.328 86.0706 127.06C86.4186 126.788 86.9646 126.6 87.7086 126.496L89.4726 126.244L89.5386 127.096L87.8466 127.336C87.4426 127.392 87.1546 127.49 86.9826 127.63C86.8106 127.766 86.7246 127.968 86.7246 128.236V128.32C86.7246 128.588 86.8066 128.794 86.9706 128.938C87.1386 129.082 87.3926 129.154 87.7326 129.154C88.0446 129.154 88.3126 129.102 88.5366 128.998C88.7606 128.894 88.9426 128.756 89.0826 128.584C89.2226 128.408 89.3186 128.214 89.3706 128.002L89.5326 128.788H89.3166C89.2526 129.028 89.1466 129.25 88.9986 129.454C88.8506 129.658 88.6426 129.822 88.3746 129.946C88.1106 130.07 87.7686 130.132 87.3486 130.132ZM94.0218 130.12C93.5538 130.12 93.1778 130.05 92.8938 129.91C92.6098 129.766 92.4038 129.552 92.2758 129.268C92.1478 128.98 92.0838 128.622 92.0838 128.194V124.606H93.2478V128.056C93.2478 128.416 93.3298 128.68 93.4938 128.848C93.6578 129.016 93.9338 129.1 94.3218 129.1C94.5538 129.1 94.7758 129.076 94.9878 129.028C95.1998 128.98 95.3958 128.912 95.5758 128.824L95.4738 129.82C95.2818 129.916 95.0598 129.99 94.8078 130.042C94.5558 130.094 94.2938 130.12 94.0218 130.12ZM91.1658 125.14V124.204H95.5218L95.4198 125.14H91.1658ZM92.0958 124.306L92.0898 122.692L93.2658 122.554L93.2178 124.306H92.0958ZM96.6018 130V124.132H97.7778V130H96.6018ZM97.1898 123.268C96.9578 123.268 96.7838 123.21 96.6678 123.094C96.5558 122.974 96.4998 122.81 96.4998 122.602V122.578C96.4998 122.37 96.5558 122.208 96.6678 122.092C96.7838 121.972 96.9578 121.912 97.1898 121.912C97.4218 121.912 97.5938 121.972 97.7058 122.092C97.8218 122.208 97.8798 122.37 97.8798 122.578V122.602C97.8798 122.814 97.8218 122.978 97.7058 123.094C97.5938 123.21 97.4218 123.268 97.1898 123.268ZM101.691 130.15C100.827 130.15 100.171 129.92 99.7232 129.46C99.2752 129 99.0512 128.338 99.0512 127.474V126.64C99.0512 125.78 99.2752 125.122 99.7232 124.666C100.171 124.206 100.827 123.976 101.691 123.976C102.555 123.976 103.209 124.206 103.653 124.666C104.101 125.122 104.325 125.78 104.325 126.64V127.474C104.325 128.338 104.101 129 103.653 129.46C103.209 129.92 102.555 130.15 101.691 130.15ZM101.691 129.196C102.167 129.196 102.529 129.054 102.777 128.77C103.025 128.486 103.149 128.078 103.149 127.546V126.568C103.149 126.04 103.025 125.636 102.777 125.356C102.529 125.072 102.167 124.93 101.691 124.93C101.215 124.93 100.853 125.072 100.605 125.356C100.357 125.636 100.233 126.04 100.233 126.568V127.546C100.233 128.078 100.357 128.486 100.605 128.77C100.853 129.054 101.215 129.196 101.691 129.196ZM109.472 130V126.376C109.472 126.092 109.432 125.846 109.352 125.638C109.276 125.43 109.148 125.268 108.968 125.152C108.792 125.036 108.55 124.978 108.242 124.978C107.958 124.978 107.712 125.03 107.504 125.134C107.296 125.238 107.126 125.378 106.994 125.554C106.866 125.73 106.774 125.93 106.718 126.154L106.526 125.338H106.778C106.846 125.09 106.958 124.866 107.114 124.666C107.27 124.462 107.478 124.3 107.738 124.18C107.998 124.06 108.32 124 108.704 124C109.164 124 109.536 124.088 109.82 124.264C110.104 124.436 110.312 124.688 110.444 125.02C110.58 125.352 110.648 125.76 110.648 126.244V130H109.472ZM105.584 130V124.132H106.76L106.712 125.506L106.76 125.578V130H105.584ZM113.96 130.138C113.488 130.138 113.074 130.09 112.718 129.994C112.362 129.894 112.064 129.786 111.824 129.67L111.716 128.596C112.012 128.744 112.338 128.874 112.694 128.986C113.05 129.094 113.45 129.148 113.894 129.148C114.322 129.148 114.638 129.086 114.842 128.962C115.05 128.834 115.154 128.646 115.154 128.398V128.35C115.154 128.19 115.112 128.058 115.028 127.954C114.944 127.846 114.794 127.75 114.578 127.666C114.366 127.582 114.064 127.496 113.672 127.408C113.18 127.296 112.792 127.164 112.508 127.012C112.224 126.86 112.02 126.674 111.896 126.454C111.776 126.23 111.716 125.962 111.716 125.65V125.596C111.716 125.068 111.9 124.668 112.268 124.396C112.636 124.124 113.188 123.988 113.924 123.988C114.388 123.988 114.792 124.038 115.136 124.138C115.48 124.238 115.764 124.352 115.988 124.48L116.096 125.458C115.828 125.314 115.522 125.194 115.178 125.098C114.838 124.998 114.46 124.948 114.044 124.948C113.76 124.948 113.532 124.976 113.36 125.032C113.188 125.084 113.064 125.16 112.988 125.26C112.912 125.356 112.874 125.472 112.874 125.608V125.65C112.874 125.798 112.914 125.928 112.994 126.04C113.074 126.148 113.216 126.246 113.42 126.334C113.628 126.418 113.916 126.5 114.284 126.58C114.78 126.684 115.176 126.806 115.472 126.946C115.768 127.086 115.982 127.266 116.114 127.486C116.246 127.702 116.312 127.982 116.312 128.326V128.416C116.312 128.988 116.116 129.418 115.724 129.706C115.332 129.994 114.744 130.138 113.96 130.138Z" fill="black"/>
<rect x="203" y="119" width="30" height="13" rx="6.5" fill="#D9D9D9"/>
<circle cx="209.5" cy="125.5" r="5.5" fill="white"/>
<defs>
<filter id="filter0_d_369_937" x="0" y="13" width="255" height="141" filterUnits="userSpaceOnUse" color-interpolation-filters="sRGB">
<feFlood flood-opacity="0" result="BackgroundImageFix"/>
<feColorMatrix in="SourceAlpha" type="matrix" values="0 0 0 0 0 0 0 0 0 0 0 0 0 0 0 0 0 0 127 0" result="hardAlpha"/>
<feOffset/>
<feGaussianBlur stdDeviation="3.5"/>
<feComposite in2="hardAlpha" operator="out"/>
<feColorMatrix type="matrix" values="0 0 0 0 0 0 0 0 0 0 0 0 0 0 0 0 0 0 0.25 0"/>
<feBlend mode="normal" in2="BackgroundImageFix" result="effect1_dropShadow_369_937"/>
<feBlend mode="normal" in="SourceGraphic" in2="effect1_dropShadow_369_937" result="shape"/>
</filter>
</defs>
</svg>
