<svg width="90" height="90" viewBox="0 0 90 90" fill="none" xmlns="http://www.w3.org/2000/svg">
<circle cx="45" cy="45" r="45" fill="#FFE0B9"/>
<path d="M51 20V31.1111C51 31.8478 51.2927 32.5544 51.8136 33.0753C52.3345 33.5962 53.0411 33.8889 53.7778 33.8889H64.8889" stroke="white" stroke-width="3" stroke-linecap="round" stroke-linejoin="round"/>
<path d="M37.1111 58.8889H53.7778M37.1111 47.7778H53.7778M59.3333 70H31.5556C30.0821 70 28.6691 69.4147 27.6272 68.3728C26.5853 67.3309 26 65.9179 26 64.4444V25.5556C26 24.0821 26.5853 22.6691 27.6272 21.6272C28.6691 20.5853 30.0821 20 31.5556 20H51L64.8889 33.8889V64.4444C64.8889 65.9179 64.3036 67.3309 63.2617 68.3728C62.2198 69.4147 60.8068 70 59.3333 70Z" stroke="white" stroke-width="3" stroke-linecap="round" stroke-linejoin="round"/>
</svg>
