<svg width="90" height="90" viewBox="0 0 90 90" fill="none" xmlns="http://www.w3.org/2000/svg">
<circle cx="45" cy="45" r="45" fill="#FFCDD4"/>
<path d="M53.6449 20.0001L49.1278 31.0362L44.9169 20.4977L40.0872 34.6114L32.001 28.8349L33.5146 38.5922L20 20.903L31.5055 42.2072L23.8319 38.3747L30.1685 56.4265L20.7054 55.1052L26.5861 62.7039L21.0013 61.4354L32.0311 69.7395L32.2307 70H57.7961L69.5342 54.0374L63.9962 54.614L70 47.4896L62.3664 51.289L66.3479 39.4853L60.5168 42.082L51.0703 49.2361L56.8481 40.9846L58.8636 28.7163L52.7167 32.6772L53.6449 20.0001ZM50.4184 39.594L48.9717 51.4968L57.7561 49.2296L51.4262 55.3062L57.5067 59.7085L49.2644 58.3477L53.106 66.3355L45.9746 62.19L41.6539 67.502L41.2579 61.3891L33.8005 61.9989L41.2579 58.0642L33.0057 49.7042L41.0018 51.6613L40.1104 42.7244L45.5819 51.9513L50.4182 39.5941L50.4184 39.594Z" fill="white"/>
</svg>
