<svg width="124" height="40" viewBox="0 0 124 40" fill="none" xmlns="http://www.w3.org/2000/svg">
<path d="M8.98145 39.9949C7.36184 39.9914 5.77319 39.5509 4.383 38.7199C2.99281 37.8889 1.85258 36.6982 1.08252 35.2734C0.312454 33.8486 -0.0589042 32.2424 0.00759101 30.6241C0.0740862 29.0058 0.575971 27.4355 1.46033 26.0787L15.8548 3.99352C17.1309 2.03947 19.1301 0.67149 21.4137 0.189775C23.6973 -0.291939 26.0787 0.15196 28.0354 1.42406C29.0869 2.11231 29.9907 3.00308 30.6943 4.04438C31.3978 5.08569 31.8869 6.25668 32.1331 7.48903L33.44 14.1195C33.8251 16.0973 34.8102 17.9084 36.2612 19.3065L36.976 19.996C38.0551 21.0384 39.4822 21.8519 41.2166 22.4136C45.0031 23.6382 47.5422 27.0806 47.5422 30.9785C47.5422 35.9529 43.4002 40 38.3069 40C33.2135 40 29.0715 35.9516 29.0715 30.9785C29.0716 30.4996 29.1105 30.0215 29.1879 29.5489L29.2587 29.1187C29.3941 28.3002 29.5232 27.526 29.5814 26.7593L29.7357 24.7541C29.7761 24.2323 29.6436 23.7116 29.3589 23.2725C29.0741 22.8334 28.6527 22.5001 28.1598 22.3242C27.6669 22.1482 27.1298 22.1393 26.6313 22.2988C26.1328 22.4583 25.7006 22.7774 25.4014 23.2068L16.5203 35.9364C15.8768 36.9227 15.0449 37.7722 14.0723 38.4361C13.0996 39.1 12.0055 39.5652 10.8526 39.8052C10.2371 39.933 9.61004 39.9966 8.98145 39.9949ZM27.3509 18.741C28.153 18.7412 28.9464 18.9069 29.6815 19.2278C30.4165 19.5487 31.0775 20.0178 31.6229 20.6059C32.1683 21.1939 32.5865 21.8882 32.8513 22.6453C33.116 23.4024 33.2217 24.206 33.1616 25.0058L33.0073 27.0098C32.9364 27.9283 32.7897 28.8126 32.648 29.6665L32.5784 30.0878C32.5313 30.3777 32.5076 30.6709 32.5076 30.9645C32.5076 34.0464 35.1099 36.5538 38.3094 36.5538C41.5089 36.5538 44.1112 34.0464 44.1112 30.9645C44.1112 28.5608 42.5222 26.4291 40.1565 25.6637C37.9197 24.9401 36.0461 23.8596 34.5899 22.4503L33.8752 21.7684C31.9203 19.8858 30.5921 17.4472 30.0709 14.7837L28.7641 8.15195C28.6078 7.36924 28.2971 6.62549 27.8503 5.96409C27.4035 5.30269 26.8295 4.73688 26.1617 4.29967C24.9679 3.52305 23.5147 3.25192 22.1212 3.5458C20.7276 3.83969 19.5077 4.67458 18.7292 5.86715L4.33594 27.9536C3.92939 28.5659 3.64813 29.2526 3.50838 29.9742C3.36863 30.6958 3.37316 31.4379 3.52171 32.1577C3.67026 32.8775 3.95989 33.5608 4.37389 34.1681C4.78788 34.7754 5.31805 35.2947 5.93379 35.696C6.54953 36.0974 7.23865 36.3728 7.96138 36.5064C8.68412 36.64 9.42617 36.6292 10.1447 36.4745C10.8632 36.3198 11.544 36.0244 12.1478 35.6053C12.7515 35.1861 13.2663 34.6516 13.6624 34.0324L13.6927 33.9882L22.5928 21.2371C23.1261 20.4684 23.8375 19.8403 24.6663 19.4065C25.4952 18.9727 26.4167 18.7461 27.3522 18.746L27.3509 18.741Z" fill="url(#paint0_linear_35_179)"/>
<path fill-rule="evenodd" clip-rule="evenodd" d="M121.679 5.58377C122.42 6.33487 122.999 7.22949 123.382 8.21269C123.789 9.27271 123.992 10.4005 123.98 11.5361C123.995 12.671 123.794 13.7984 123.388 14.8583C123.005 15.8419 122.426 16.737 121.685 17.4885C120.942 18.2367 120.05 18.8207 119.067 19.2028C116.928 20.0011 114.573 20.0011 112.433 19.2028C111.455 18.8187 110.567 18.2348 109.827 17.4885C109.086 16.7372 108.507 15.8421 108.125 14.8583C107.717 13.799 107.513 12.6716 107.526 11.5361C107.513 10.4003 107.717 9.27245 108.125 8.21269C108.504 7.23005 109.082 6.33615 109.822 5.58689C110.562 4.83763 111.449 4.24912 112.427 3.85815C114.563 3.04338 116.925 3.04338 119.061 3.85815C120.043 4.24669 120.935 4.8342 121.679 5.58377ZM118.192 15.8325C118.901 15.4293 119.483 14.8354 119.871 14.1183C120.278 13.3828 120.482 12.5141 120.482 11.5121C120.503 10.6133 120.293 9.72409 119.871 8.93001C119.484 8.21471 118.902 7.62413 118.192 7.22716C117.438 6.83214 116.599 6.62674 115.748 6.62873C114.897 6.63071 114.059 6.84002 113.307 7.23855C112.601 7.63983 112.02 8.22933 111.629 8.94139C111.222 9.66926 111.019 10.5342 111.019 11.5361C110.997 12.4349 111.207 13.324 111.629 14.1183C112.017 14.8354 112.598 15.4293 113.307 15.8325C114.059 16.2336 114.898 16.4435 115.75 16.4435C116.602 16.4435 117.44 16.2336 118.192 15.8325ZM105.349 12.0763C105.873 11.2463 106.134 10.252 106.134 9.09311C106.134 7.95028 105.873 6.96434 105.349 6.13526C104.827 5.30888 104.088 4.64255 103.212 4.20976C102.259 3.74364 101.209 3.51038 100.148 3.52912H94.2499V19.5189H97.6783V14.6584H99.9948L102.539 19.5189H106.295L103.359 13.9081C104.172 13.484 104.859 12.8519 105.349 12.0763ZM97.6821 6.83993H99.8885C100.75 6.83993 101.419 7.03139 101.896 7.4143C102.374 7.7972 102.612 8.35681 102.612 9.09311C102.612 9.8294 102.374 10.3894 101.896 10.7732C101.419 11.1569 100.75 11.3484 99.8885 11.3475H97.6821V6.83993ZM71.736 3.52917H68.3075V19.5203H71.736V3.52917ZM57.6946 3.52927L52.0117 19.5191H55.4642L56.4902 16.5372H62.4451L63.4003 19.5191H66.8756L61.4748 3.52927H57.6946ZM57.582 13.3668L59.5759 7.57385L61.4305 13.3668H57.582ZM86.4583 3.52923C87.6644 3.52839 88.7132 3.76328 89.6047 4.2339C90.4784 4.68569 91.2009 5.38314 91.6833 6.24038C92.1758 7.10993 92.4221 8.13932 92.4221 9.32853C92.4221 10.5177 92.1758 11.5471 91.6833 12.4167C91.2007 13.2749 90.473 13.9696 89.5933 14.4118C88.6925 14.874 87.6476 15.1051 86.4583 15.1051H84.0863V19.519H80.6591V3.52923H86.4583ZM86.2053 11.7942C87.0656 11.7942 87.7349 11.5787 88.2131 11.1478H88.208C88.6854 10.7218 88.9241 10.1154 88.9241 9.32853C88.9266 8.49945 88.6879 7.87744 88.208 7.46248C87.7281 7.04752 87.0664 6.84004 86.223 6.84004H84.0863V11.7942H86.2053ZM61.303 30.1801C61.7433 29.4843 61.963 28.6519 61.9621 27.6828C61.9613 26.7137 61.7416 25.8876 61.303 25.2044C60.8671 24.5122 60.2479 23.9544 59.5141 23.5927C58.7161 23.2021 57.8368 23.0065 56.9485 23.0221H52.0145V36.4134H54.8863V32.3422H56.8258L58.9537 36.4134H62.1L59.6381 31.7097C60.3183 31.3556 60.8927 30.8279 61.303 30.1801ZM54.8838 25.794H56.7321C57.4533 25.794 58.0124 25.9546 58.4135 26.276C58.8145 26.5973 59.0132 27.0667 59.0132 27.6828C59.0132 28.2989 58.8133 28.767 58.4135 29.0883C58.0137 29.4097 57.4533 29.5703 56.7321 29.5703H54.8838V25.794ZM72.3237 36.4137H63.8094V23.0225H72.3237V25.7564H66.68V28.3322H71.242V31.0648H66.68V33.6798H72.3237V36.4137ZM81.8801 29.2557C81.2113 28.8762 80.3257 28.5548 79.2233 28.2917C78.3049 28.0825 77.6887 27.8565 77.375 27.6136C77.2282 27.5106 77.1086 27.3736 77.0264 27.2143C76.9442 27.055 76.9019 26.8782 76.9031 26.6989C76.8958 26.5199 76.9343 26.342 77.0152 26.1821C77.096 26.0222 77.2164 25.8857 77.3649 25.7855C77.6727 25.5696 78.1083 25.4612 78.6717 25.4603C79.1617 25.4642 79.6462 25.5644 80.0975 25.7551C80.5863 25.9606 81.011 26.2936 81.3272 26.7191L83.569 25.1656C83.0934 24.4393 82.4499 23.8383 81.6928 23.4134C80.9135 22.9681 79.9601 22.745 78.8324 22.7441C77.8355 22.7441 76.9769 22.9213 76.2566 23.2755C75.5785 23.5924 75.0026 24.0929 74.5943 24.7203C74.2026 25.3479 74.0013 26.0756 74.0148 26.8153C74.0055 27.4434 74.1401 28.0652 74.4083 28.6333C74.6706 29.1773 75.1193 29.6462 75.7544 30.0401C76.3895 30.4339 77.2514 30.7616 78.3403 31.0231C78.8672 31.1338 79.3815 31.2983 79.8749 31.5139C80.16 31.633 80.4125 31.8187 80.6112 32.0554C80.7517 32.2531 80.8245 32.491 80.8186 32.7335C80.8244 32.9212 80.7865 33.1077 80.7079 33.2783C80.6293 33.4489 80.5122 33.5989 80.3657 33.7165C80.0646 33.9695 79.6189 34.096 79.0285 34.096C78.3789 34.1046 77.7395 33.9343 77.1802 33.6039C76.604 33.2485 76.1257 32.755 75.7885 32.168L73.5468 33.5596C73.874 34.2419 74.3313 34.8539 74.8928 35.3611C75.421 35.8249 76.0359 36.1792 76.702 36.4036C77.4026 36.6369 78.137 36.7532 78.8754 36.7477C79.8875 36.7477 80.7592 36.5672 81.4904 36.2062C82.1811 35.884 82.7694 35.3775 83.1907 34.7425C83.5937 34.1152 83.8024 33.3828 83.7904 32.6374C83.81 31.9482 83.6546 31.2653 83.3388 30.6524C83.0351 30.1008 82.5489 29.6352 81.8801 29.2557ZM92.6567 33.0801C93.0894 32.5597 93.3057 31.8357 93.3057 30.9079V23.0225H96.2041V30.8485C96.2041 32.1338 95.9933 33.2054 95.5716 34.0631C95.1826 34.8897 94.5376 35.569 93.7321 36C92.9249 36.4327 91.9318 36.649 90.7527 36.649C89.5736 36.649 88.5809 36.4327 87.7746 36C86.9692 35.569 86.3241 34.8897 85.9352 34.0631C85.5135 33.2054 85.3026 32.1338 85.3026 30.8485V23.0225H88.1782V30.9079C88.1757 31.8382 88.3937 32.5623 88.8323 33.0801C89.2709 33.598 89.9097 33.8569 90.7489 33.8569C91.5881 33.8594 92.2241 33.6005 92.6567 33.0801ZM108.938 23.0221L105.802 31.988L102.666 23.0221H100.089L97.7292 36.4134H100.601L101.525 30.4357C101.656 29.6362 101.768 28.8396 101.859 28.0459L101.87 27.9422L101.908 28.0851C102.111 28.8392 102.35 29.6096 102.625 30.3965L104.671 36.2553H106.932L108.977 30.3965C109.252 29.6223 109.491 28.8552 109.695 28.0953L109.74 27.9245C109.74 27.9513 109.744 27.978 109.748 28.0063L109.748 28.0063C109.75 28.0208 109.752 28.0356 109.754 28.051C109.853 28.8438 109.961 29.6404 110.078 30.4408L111.003 36.4185H113.894L111.514 23.0221H108.938ZM123.981 23.0221V25.756H118.337V28.3318H122.899V31.0644H118.337V33.6794H123.981V36.4134H115.467V23.0221H123.981Z" fill="url(#paint1_linear_35_179)"/>
<defs>
<linearGradient id="paint0_linear_35_179" x1="-0.000864994" y1="-0.000494083" x2="47.5675" y2="39.9772" gradientUnits="userSpaceOnUse">
<stop offset="0.5" stop-color="white"/>
<stop offset="1" stop-color="#FBFBFB"/>
</linearGradient>
<linearGradient id="paint1_linear_35_179" x1="51.9953" y1="3.28883" x2="93.9386" y2="-20.5707" gradientUnits="userSpaceOnUse">
<stop offset="0.5" stop-color="white"/>
<stop offset="1" stop-color="#FBFBFB"/>
</linearGradient>
</defs>
</svg>
