<svg width="161" height="136" viewBox="0 0 161 136" fill="none" xmlns="http://www.w3.org/2000/svg">
<path d="M30.4154 135.574C24.9306 135.562 19.5507 134.069 14.8429 131.252C10.135 128.435 6.27368 124.399 3.6659 119.569C1.05812 114.74 -0.199477 109.295 0.0257067 103.809C0.25089 98.3238 1.95051 93.0006 4.94537 88.4012L53.6918 13.5372C58.0133 6.91336 64.7836 2.27621 72.5168 0.643299C80.2501 -0.989612 88.3146 0.515114 94.9408 4.82727C98.5016 7.1603 101.563 10.1798 103.945 13.7096C106.328 17.2394 107.984 21.2088 108.818 25.3862L113.243 47.8622C114.548 54.5664 117.883 60.7058 122.797 65.4449L125.218 67.7822C128.872 71.3159 133.705 74.0734 139.579 75.9775C152.401 80.1287 161 91.7977 161 105.01C161 121.873 146.973 135.592 129.725 135.592C112.476 135.592 98.4496 121.868 98.4496 105.01C98.4499 103.387 98.5817 101.766 98.8438 100.164L99.0837 98.7064C99.5421 95.9318 99.9791 93.3072 100.176 90.7084L100.699 83.9111C100.836 82.1423 100.387 80.3775 99.4227 78.8889C98.4583 77.4004 97.0314 76.2708 95.3622 75.6743C93.6929 75.0778 91.874 75.0476 90.1858 75.5883C88.4977 76.1291 87.0342 77.2106 86.0209 78.6663L55.9454 121.817C53.7662 125.16 50.9489 128.04 47.6552 130.29C44.3614 132.541 40.6561 134.118 36.7518 134.931C34.6676 135.365 32.5441 135.58 30.4154 135.574Z" fill="#6987DF" fill-opacity="0.2"/>
</svg>
