<svg width="34" height="34" viewBox="0 0 34 34" fill="none" xmlns="http://www.w3.org/2000/svg">
<circle cx="17" cy="17" r="17" fill="#79A9FF"/>
<path d="M16.8151 15.87C16.7151 15.86 16.5951 15.86 16.4851 15.87C14.1051 15.79 12.2151 13.84 12.2151 11.44C12.2151 8.99 14.1951 7 16.6551 7C19.1051 7 21.0951 8.99 21.0951 11.44C21.0851 13.84 19.1951 15.79 16.8151 15.87Z" stroke="white" stroke-width="1.5" stroke-linecap="round" stroke-linejoin="round"/>
<path d="M11.815 19.56C9.395 21.18 9.395 23.82 11.815 25.43C14.565 27.27 19.075 27.27 21.825 25.43C24.245 23.81 24.245 21.17 21.825 19.56C19.085 17.73 14.575 17.73 11.815 19.56Z" stroke="white" stroke-width="1.5" stroke-linecap="round" stroke-linejoin="round"/>
</svg>
