<svg width="36" height="36" viewBox="0 0 36 36" fill="none" xmlns="http://www.w3.org/2000/svg">
<circle cx="18" cy="18" r="18" fill="url(#paint0_linear_1077_1359)"/>
<path d="M18.716 19.6746C20.7197 19.6746 21.9258 18.2426 21.9258 15.8682V14.7114C21.9258 12.3386 20.7279 10.9133 18.7473 10.9133C17.5246 10.9133 16.559 11.4851 16.2772 12.3782H16.1734V8H14.0478V19.5625H16.1405V18.2591H16.2459C16.592 19.1357 17.5246 19.6762 18.716 19.6762V19.6746ZM18.0074 17.9856C16.9199 17.9856 16.1734 17.132 16.1734 15.8764V14.8169C16.1734 13.4575 16.8655 12.6039 17.9827 12.6039C19.1098 12.6039 19.7541 13.4575 19.7541 14.9372V15.6787C19.7541 17.1419 19.118 17.9856 18.0074 17.9856ZM8.80783 19.691C10.0717 19.691 10.7868 19.1044 11.1246 18.4766H11.2218V19.5625H13.2255V13.8266C13.2255 11.6614 11.6651 10.8886 9.74871 10.8886C7.40886 10.8886 6.41195 12.0157 6.31308 13.4163H8.31679C8.42225 12.884 8.83254 12.5067 9.70093 12.5067C10.5693 12.5067 11.1246 12.917 11.1246 13.7771V14.5417H9.04181C7.06282 14.5417 6 15.5551 6 17.0842C6 18.6941 7.14192 19.691 8.80783 19.691ZM9.4999 18.1306C8.77487 18.1306 8.10752 17.7434 8.10752 16.9475C8.10752 16.2966 8.55077 15.8204 9.49166 15.8204H11.1246V16.7069C11.1246 17.5357 10.393 18.1306 9.4999 18.1306ZM24.1602 19.0649C23.2095 18.4058 22.6772 17.2721 22.6772 15.7973V14.7263C22.6772 12.3864 24.1504 10.8737 26.4754 10.8737C28.7032 10.8737 29.967 12.2249 30 13.8496H28.0441C27.9782 13.2713 27.5778 12.571 26.5314 12.571C25.4208 12.571 24.8095 13.4229 24.8095 14.7592V15.7891C24.8095 16.5602 25.0089 17.1633 25.3747 17.5473L24.1602 19.0649Z" fill="white"/>
<path d="M29.0178 16.9488C29.1448 17.0502 29.2504 17.1757 29.3288 17.3179C29.4072 17.4602 29.4568 17.6166 29.4747 17.778C29.4926 17.9395 29.4785 18.1029 29.4332 18.2589C29.3879 18.4149 29.3122 18.5605 29.2106 18.6872L22.6195 26.9261C22.5108 27.0618 22.3748 27.173 22.2202 27.2525C22.0656 27.3319 21.896 27.3779 21.7225 27.3874C21.549 27.3969 21.3754 27.3697 21.2131 27.3075C21.0507 27.2453 20.9034 27.1496 20.7806 27.0267L16.6611 22.9072C16.5397 22.7941 16.4423 22.6576 16.3747 22.506C16.3072 22.3544 16.2709 22.1908 16.268 22.0248C16.265 21.8589 16.2956 21.6941 16.3577 21.5402C16.4199 21.3863 16.5124 21.2465 16.6297 21.1292C16.7471 21.0118 16.8869 20.9193 17.0408 20.8572C17.1946 20.795 17.3595 20.7645 17.5254 20.7674C17.6913 20.7703 17.855 20.8066 18.0066 20.8742C18.1582 20.9417 18.2946 21.0391 18.4078 21.1605L21.5517 24.3029L27.2794 17.1416C27.3808 17.0147 27.5063 16.909 27.6486 16.8306C27.7909 16.7522 27.9472 16.7027 28.1087 16.6848C28.2701 16.6669 28.4335 16.681 28.5895 16.7263C28.7455 16.7716 28.8911 16.8472 29.0178 16.9488Z" fill="white"/>
<defs>
<linearGradient id="paint0_linear_1077_1359" x1="0" y1="18" x2="36" y2="18" gradientUnits="userSpaceOnUse">
<stop stop-color="#8E7BFE"/>
<stop offset="1" stop-color="#7FA7FF"/>
</linearGradient>
</defs>
</svg>
