<svg width="298" height="206" viewBox="0 0 298 206" fill="none" xmlns="http://www.w3.org/2000/svg">
<path d="M11.42 98.7699C11.42 98.7699 29.23 67.3999 77.56 76.7699C125.89 86.1399 140.3 127.64 180.15 126.77C220 125.9 269.15 109.77 288.68 134.4C308.21 159.03 292.07 208.17 232.68 204.78C173.29 201.39 172.48 178.49 139.41 186.97C106.34 195.45 86 213.24 36.86 197.13C-12.28 181.02 -2.13997 119.12 11.42 98.7699Z" fill="#FFE0A3"/>
<path opacity="0.35" d="M258.26 169.54C258.444 169.725 258.569 169.96 258.62 170.216C258.671 170.472 258.644 170.737 258.544 170.978C258.444 171.219 258.275 171.425 258.058 171.57C257.841 171.714 257.586 171.792 257.325 171.792C257.064 171.792 256.809 171.714 256.592 171.57C256.375 171.425 256.206 171.219 256.106 170.978C256.006 170.737 255.979 170.472 256.03 170.216C256.081 169.96 256.206 169.725 256.39 169.54C256.639 169.294 256.975 169.156 257.325 169.156C257.675 169.156 258.011 169.294 258.26 169.54Z" fill="#FF6D5E"/>
<path d="M263.16 164.64C263.344 164.825 263.469 165.06 263.52 165.316C263.571 165.572 263.544 165.837 263.444 166.078C263.344 166.319 263.175 166.525 262.958 166.67C262.741 166.814 262.486 166.892 262.225 166.892C261.964 166.892 261.709 166.814 261.492 166.67C261.275 166.525 261.106 166.319 261.006 166.078C260.906 165.837 260.879 165.572 260.93 165.316C260.981 165.06 261.106 164.825 261.29 164.64C261.539 164.394 261.875 164.256 262.225 164.256C262.575 164.256 262.911 164.394 263.16 164.64Z" fill="#FF6D5E"/>
<path opacity="0.35" d="M268.06 159.74C268.244 159.925 268.369 160.16 268.42 160.416C268.47 160.672 268.444 160.937 268.344 161.178C268.244 161.419 268.075 161.625 267.858 161.77C267.641 161.915 267.386 161.992 267.125 161.992C266.864 161.992 266.609 161.915 266.392 161.77C266.175 161.625 266.006 161.419 265.906 161.178C265.806 160.937 265.779 160.672 265.83 160.416C265.881 160.16 266.006 159.925 266.19 159.74C266.439 159.494 266.775 159.356 267.125 159.356C267.475 159.356 267.811 159.494 268.06 159.74Z" fill="#FF6D5E"/>
<path d="M273 154.84C273.184 155.025 273.309 155.26 273.36 155.516C273.411 155.772 273.384 156.037 273.284 156.278C273.184 156.519 273.015 156.725 272.798 156.87C272.581 157.014 272.326 157.092 272.065 157.092C271.804 157.092 271.549 157.014 271.332 156.87C271.115 156.725 270.946 156.519 270.846 156.278C270.746 156.037 270.719 155.772 270.77 155.516C270.821 155.26 270.946 155.025 271.13 154.84C271.253 154.717 271.398 154.619 271.559 154.553C271.719 154.486 271.891 154.452 272.065 154.452C272.239 154.452 272.411 154.486 272.571 154.553C272.732 154.619 272.877 154.717 273 154.84Z" fill="#FF6D5E"/>
<path d="M277.86 149.94C278.044 150.125 278.169 150.36 278.22 150.616C278.271 150.872 278.244 151.137 278.144 151.378C278.044 151.619 277.875 151.825 277.658 151.97C277.441 152.114 277.186 152.192 276.925 152.192C276.664 152.192 276.409 152.114 276.192 151.97C275.975 151.825 275.806 151.619 275.706 151.378C275.606 151.137 275.579 150.872 275.63 150.616C275.681 150.36 275.806 150.125 275.99 149.94C276.113 149.817 276.258 149.719 276.419 149.653C276.579 149.586 276.751 149.552 276.925 149.552C277.099 149.552 277.271 149.586 277.431 149.653C277.592 149.719 277.737 149.817 277.86 149.94Z" fill="#FF6D5E"/>
<path d="M263 174.29C263.186 174.474 263.312 174.709 263.364 174.966C263.416 175.222 263.39 175.488 263.29 175.73C263.191 175.972 263.022 176.178 262.804 176.324C262.587 176.469 262.331 176.547 262.07 176.547C261.809 176.547 261.553 176.469 261.336 176.324C261.118 176.178 260.949 175.972 260.85 175.73C260.75 175.488 260.724 175.222 260.776 174.966C260.828 174.709 260.954 174.474 261.14 174.29C261.261 174.166 261.406 174.068 261.565 174C261.725 173.933 261.897 173.898 262.07 173.898C262.243 173.898 262.415 173.933 262.575 174C262.734 174.068 262.879 174.166 263 174.29Z" fill="#FF6D5E"/>
<path d="M267.9 169.39C268.085 169.574 268.212 169.809 268.264 170.066C268.316 170.322 268.29 170.588 268.19 170.83C268.091 171.071 267.922 171.278 267.704 171.424C267.487 171.569 267.231 171.647 266.97 171.647C266.708 171.647 266.453 171.569 266.236 171.424C266.018 171.278 265.849 171.071 265.749 170.83C265.65 170.588 265.624 170.322 265.676 170.066C265.728 169.809 265.854 169.574 266.04 169.39C266.161 169.266 266.306 169.167 266.465 169.1C266.625 169.033 266.797 168.998 266.97 168.998C267.143 168.998 267.315 169.033 267.474 169.1C267.634 169.167 267.779 169.266 267.9 169.39Z" fill="#FF6D5E"/>
<path d="M272.8 164.49C272.986 164.674 273.112 164.909 273.164 165.166C273.216 165.422 273.19 165.688 273.09 165.93C272.991 166.171 272.822 166.378 272.604 166.524C272.387 166.669 272.132 166.747 271.87 166.747C271.609 166.747 271.353 166.669 271.136 166.524C270.918 166.378 270.749 166.171 270.65 165.93C270.55 165.688 270.524 165.422 270.576 165.166C270.628 164.909 270.754 164.674 270.94 164.49C271.061 164.366 271.206 164.268 271.365 164.2C271.525 164.133 271.697 164.098 271.87 164.098C272.043 164.098 272.215 164.133 272.375 164.2C272.534 164.268 272.679 164.366 272.8 164.49Z" fill="#FF6D5E"/>
<path opacity="0.35" d="M277.7 159.59C277.886 159.774 278.012 160.009 278.064 160.266C278.116 160.522 278.09 160.788 277.99 161.03C277.891 161.271 277.722 161.478 277.504 161.624C277.287 161.769 277.031 161.847 276.77 161.847C276.508 161.847 276.253 161.769 276.036 161.624C275.818 161.478 275.649 161.271 275.55 161.03C275.45 160.788 275.424 160.522 275.476 160.266C275.528 160.009 275.654 159.774 275.84 159.59C275.961 159.466 276.106 159.367 276.265 159.3C276.425 159.233 276.597 159.198 276.77 159.198C276.943 159.198 277.115 159.233 277.275 159.3C277.434 159.367 277.579 159.466 277.7 159.59Z" fill="#FF6D5E"/>
<path d="M282.37 156.754C282.99 156.371 283.182 155.558 282.799 154.937C282.416 154.317 281.602 154.125 280.982 154.509C280.362 154.892 280.17 155.705 280.554 156.325C280.937 156.946 281.75 157.138 282.37 156.754Z" fill="#FF6D5E"/>
<path d="M267.75 179C267.934 179.185 268.059 179.42 268.11 179.676C268.161 179.932 268.134 180.197 268.034 180.438C267.934 180.679 267.765 180.885 267.548 181.03C267.331 181.175 267.076 181.252 266.815 181.252C266.554 181.252 266.299 181.175 266.082 181.03C265.865 180.885 265.696 180.679 265.596 180.438C265.496 180.197 265.469 179.932 265.52 179.676C265.571 179.42 265.696 179.185 265.88 179C266.129 178.754 266.465 178.616 266.815 178.616C267.165 178.616 267.501 178.754 267.75 179Z" fill="#FF6D5E"/>
<path opacity="0.35" d="M272.65 174.13C272.834 174.315 272.959 174.55 273.01 174.806C273.061 175.062 273.034 175.327 272.934 175.568C272.834 175.809 272.665 176.015 272.448 176.16C272.231 176.304 271.976 176.382 271.715 176.382C271.454 176.382 271.199 176.304 270.982 176.16C270.765 176.015 270.596 175.809 270.496 175.568C270.396 175.327 270.369 175.062 270.42 174.806C270.471 174.55 270.596 174.315 270.78 174.13C271.029 173.884 271.365 173.746 271.715 173.746C272.065 173.746 272.401 173.884 272.65 174.13Z" fill="#FF6D5E"/>
<path opacity="0.35" d="M276.61 171.48C277.339 171.48 277.93 170.889 277.93 170.16C277.93 169.431 277.339 168.84 276.61 168.84C275.881 168.84 275.29 169.431 275.29 170.16C275.29 170.889 275.881 171.48 276.61 171.48Z" fill="#FF6D5E"/>
<path d="M281.52 166.58C282.249 166.58 282.84 165.989 282.84 165.26C282.84 164.531 282.249 163.94 281.52 163.94C280.791 163.94 280.2 164.531 280.2 165.26C280.2 165.989 280.791 166.58 281.52 166.58Z" fill="#FF6D5E"/>
<path d="M287.35 159.43C287.534 159.615 287.659 159.85 287.71 160.106C287.76 160.362 287.734 160.627 287.634 160.868C287.534 161.109 287.365 161.315 287.148 161.46C286.931 161.604 286.676 161.682 286.415 161.682C286.154 161.682 285.899 161.604 285.682 161.46C285.465 161.315 285.296 161.109 285.196 160.868C285.096 160.627 285.069 160.362 285.12 160.106C285.171 159.85 285.296 159.615 285.48 159.43C285.603 159.307 285.748 159.209 285.909 159.143C286.069 159.076 286.241 159.042 286.415 159.042C286.589 159.042 286.761 159.076 286.921 159.143C287.082 159.209 287.227 159.307 287.35 159.43Z" fill="#FF6D5E"/>
<path d="M272.49 183.78C272.676 183.964 272.802 184.199 272.854 184.456C272.906 184.712 272.88 184.978 272.78 185.22C272.681 185.462 272.512 185.668 272.294 185.814C272.077 185.959 271.821 186.037 271.56 186.037C271.299 186.037 271.043 185.959 270.826 185.814C270.608 185.668 270.439 185.462 270.34 185.22C270.24 184.978 270.214 184.712 270.266 184.456C270.318 184.199 270.444 183.964 270.63 183.78C270.751 183.656 270.896 183.558 271.055 183.49C271.215 183.423 271.387 183.388 271.56 183.388C271.733 183.388 271.905 183.423 272.065 183.49C272.224 183.558 272.369 183.656 272.49 183.78Z" fill="#FF6D5E"/>
<path d="M277.39 178.88C277.576 179.064 277.702 179.299 277.754 179.556C277.806 179.812 277.78 180.078 277.68 180.32C277.581 180.561 277.412 180.768 277.194 180.914C276.977 181.059 276.721 181.137 276.46 181.137C276.199 181.137 275.943 181.059 275.726 180.914C275.508 180.768 275.339 180.561 275.24 180.32C275.14 180.078 275.114 179.812 275.166 179.556C275.218 179.299 275.344 179.064 275.53 178.88C275.651 178.756 275.796 178.657 275.955 178.59C276.115 178.523 276.287 178.488 276.46 178.488C276.633 178.488 276.805 178.523 276.965 178.59C277.124 178.657 277.269 178.756 277.39 178.88Z" fill="#FF6D5E"/>
<path d="M282.29 174C282.476 174.184 282.602 174.419 282.654 174.676C282.706 174.932 282.68 175.198 282.58 175.44C282.481 175.681 282.312 175.888 282.094 176.034C281.877 176.179 281.622 176.257 281.36 176.257C281.099 176.257 280.843 176.179 280.626 176.034C280.408 175.888 280.239 175.681 280.14 175.44C280.04 175.198 280.014 174.932 280.066 174.676C280.118 174.419 280.244 174.184 280.43 174C280.551 173.876 280.696 173.778 280.855 173.71C281.015 173.643 281.187 173.608 281.36 173.608C281.533 173.608 281.705 173.643 281.865 173.71C282.024 173.778 282.169 173.876 282.29 174Z" fill="#FF6D5E"/>
<path opacity="0.35" d="M287.19 169.07C287.376 169.254 287.502 169.489 287.554 169.746C287.606 170.002 287.58 170.268 287.48 170.51C287.381 170.751 287.212 170.958 286.994 171.104C286.777 171.249 286.521 171.327 286.26 171.327C285.998 171.327 285.743 171.249 285.526 171.104C285.308 170.958 285.139 170.751 285.04 170.51C284.94 170.268 284.914 170.002 284.966 169.746C285.018 169.489 285.144 169.254 285.33 169.07C285.577 168.825 285.912 168.687 286.26 168.687C286.608 168.687 286.943 168.825 287.19 169.07Z" fill="#FF6D5E"/>
<path d="M292.09 164.17C292.276 164.354 292.402 164.589 292.454 164.846C292.506 165.102 292.48 165.368 292.38 165.61C292.281 165.851 292.112 166.058 291.894 166.204C291.677 166.349 291.421 166.427 291.16 166.427C290.898 166.427 290.643 166.349 290.426 166.204C290.208 166.058 290.039 165.851 289.94 165.61C289.84 165.368 289.814 165.102 289.866 164.846C289.918 164.589 290.044 164.354 290.23 164.17C290.477 163.924 290.812 163.787 291.16 163.787C291.508 163.787 291.843 163.924 292.09 164.17Z" fill="#FF6D5E"/>
<path d="M277.24 188.52C277.488 188.768 277.627 189.104 277.627 189.455C277.627 189.806 277.488 190.142 277.24 190.39C276.992 190.638 276.656 190.777 276.305 190.777C275.954 190.777 275.618 190.638 275.37 190.39C275.247 190.267 275.15 190.122 275.083 189.961C275.017 189.801 274.983 189.629 274.983 189.455C274.983 189.281 275.017 189.11 275.083 188.949C275.15 188.789 275.247 188.643 275.37 188.52C275.493 188.397 275.639 188.3 275.799 188.233C275.959 188.167 276.131 188.133 276.305 188.133C276.479 188.133 276.651 188.167 276.811 188.233C276.971 188.3 277.117 188.397 277.24 188.52Z" fill="#FF6D5E"/>
<path opacity="0.35" d="M282.14 183.62C282.324 183.805 282.449 184.04 282.5 184.296C282.551 184.552 282.524 184.817 282.424 185.058C282.324 185.299 282.155 185.505 281.938 185.65C281.721 185.794 281.466 185.872 281.205 185.872C280.944 185.872 280.689 185.794 280.472 185.65C280.255 185.505 280.086 185.299 279.986 185.058C279.886 184.817 279.859 184.552 279.91 184.296C279.961 184.04 280.086 183.805 280.27 183.62C280.393 183.497 280.538 183.399 280.699 183.333C280.859 183.266 281.031 183.232 281.205 183.232C281.379 183.232 281.551 183.266 281.711 183.333C281.872 183.399 282.017 183.497 282.14 183.62Z" fill="#FF6D5E"/>
<path d="M287 178.72C287.184 178.905 287.309 179.14 287.36 179.396C287.411 179.652 287.384 179.917 287.284 180.158C287.184 180.399 287.015 180.605 286.798 180.75C286.581 180.894 286.326 180.972 286.065 180.972C285.804 180.972 285.549 180.894 285.332 180.75C285.115 180.605 284.946 180.399 284.846 180.158C284.746 179.917 284.719 179.652 284.77 179.396C284.821 179.14 284.946 178.905 285.13 178.72C285.253 178.597 285.398 178.499 285.559 178.433C285.719 178.366 285.891 178.332 286.065 178.332C286.239 178.332 286.411 178.366 286.571 178.433C286.732 178.499 286.877 178.597 287 178.72Z" fill="#FF6D5E"/>
<path d="M291.94 173.82C292.124 174.005 292.249 174.24 292.3 174.496C292.35 174.752 292.324 175.017 292.224 175.258C292.124 175.499 291.955 175.705 291.738 175.85C291.521 175.994 291.266 176.072 291.005 176.072C290.744 176.072 290.489 175.994 290.272 175.85C290.055 175.705 289.886 175.499 289.786 175.258C289.686 175.017 289.659 174.752 289.71 174.496C289.761 174.24 289.886 174.005 290.07 173.82C290.193 173.697 290.338 173.599 290.499 173.533C290.659 173.466 290.831 173.432 291.005 173.432C291.179 173.432 291.351 173.466 291.511 173.533C291.672 173.599 291.817 173.697 291.94 173.82Z" fill="#FF6D5E"/>
<path d="M296.84 168.92C297.024 169.105 297.149 169.34 297.2 169.596C297.251 169.852 297.224 170.117 297.124 170.358C297.024 170.599 296.855 170.805 296.638 170.95C296.421 171.094 296.166 171.172 295.905 171.172C295.644 171.172 295.389 171.094 295.172 170.95C294.955 170.805 294.786 170.599 294.686 170.358C294.586 170.117 294.559 169.852 294.61 169.596C294.661 169.34 294.786 169.105 294.97 168.92C295.093 168.797 295.238 168.699 295.399 168.633C295.559 168.566 295.731 168.532 295.905 168.532C296.079 168.532 296.251 168.566 296.411 168.633C296.572 168.699 296.717 168.797 296.84 168.92Z" fill="#FF6D5E"/>
<path d="M157.4 79.36L157.69 79.48C158.088 79.6394 158.524 79.678 158.944 79.5908C159.364 79.5037 159.748 79.2947 160.05 78.99L211 27.64C211.304 27.3376 211.51 26.9517 211.594 26.5315C211.678 26.1113 211.634 25.6756 211.47 25.28C211.433 25.1807 211.389 25.0839 211.34 24.99L157.4 79.36Z" fill="#E6EDF8"/>
<path d="M152.22 76.7401C152.626 76.9837 153.102 77.0836 153.572 77.0238C154.042 76.9639 154.478 76.7478 154.81 76.4101L208.34 22.4101C208.671 22.0738 208.882 21.6369 208.938 21.1681C208.994 20.6993 208.893 20.2251 208.65 19.8201L152.22 76.7401Z" fill="#E6EDF8"/>
<path d="M147.62 73.55C148.05 73.89 148.48 74.23 148.92 74.55L206.44 16.55C206.11 16.11 205.77 15.68 205.44 15.26L147.62 73.55Z" fill="#E6EDF8"/>
<path d="M169.92 82.4L171.13 82.48C171.431 82.493 171.732 82.4428 172.013 82.3326C172.293 82.2223 172.548 82.0545 172.76 81.84L213.92 40.33C214.137 40.1183 214.306 39.8621 214.415 39.579C214.523 39.2959 214.57 38.9926 214.55 38.69C214.55 38.28 214.5 37.88 214.46 37.48L169.92 82.4Z" fill="#E6EDF8"/>
<path d="M187.94 79.89C189.218 79.4094 190.47 78.8619 191.69 78.25C191.908 78.1426 192.107 78.0008 192.28 77.83L210.08 59.88C210.249 59.7018 210.39 59.4996 210.5 59.28C211.09 58.06 211.63 56.81 212.11 55.52L187.94 79.89Z" fill="#E6EDF8"/>
<path d="M163.24 81.3001L163.93 81.4701C164.287 81.5445 164.657 81.5286 165.006 81.4238C165.355 81.319 165.673 81.1287 165.93 80.8701L212.9 33.5301C213.158 33.2731 213.347 32.9548 213.448 32.605C213.55 32.2552 213.561 31.8853 213.48 31.5301C213.48 31.3001 213.37 31.0701 213.31 30.8401L163.24 81.3001Z" fill="#E6EDF8"/>
<path d="M177.77 82.32C178.43 82.25 179.09 82.1501 179.77 82.0501C180.226 81.9756 180.646 81.7585 180.97 81.43L213.61 48.51C213.941 48.1835 214.158 47.7594 214.23 47.3C214.32 46.65 214.41 45.99 214.47 45.3L177.77 82.32Z" fill="#E6EDF8"/>
<path d="M140 65.5799C140.32 66.0299 140.65 66.4599 141 66.8899L198.71 8.67993C198.277 8.33993 197.837 8.0066 197.39 7.67993L140 65.5799Z" fill="#E6EDF8"/>
<path d="M133.24 33.23C132.917 33.5448 132.703 33.9549 132.63 34.4C132.52 35.07 132.42 35.75 132.34 36.4L168.18 0.290039C167.5 0.380039 166.82 0.480039 166.18 0.600039C165.735 0.673067 165.325 0.886857 165.01 1.21004L133.24 33.23Z" fill="#E6EDF8"/>
<path d="M137.29 21.3C137.138 21.4594 137.007 21.6375 136.9 21.83C136.192 23.1575 135.558 24.5229 135 25.92L157.69 3C156.295 3.59316 154.933 4.26079 153.61 5C153.42 5.10623 153.245 5.23739 153.09 5.39L137.29 21.3Z" fill="#E6EDF8"/>
<path d="M132.74 41.56C132.53 41.7705 132.365 42.0222 132.257 42.2992C132.149 42.5763 132.098 42.8727 132.11 43.17C132.11 43.59 132.11 44.01 132.18 44.43L176.18 0.0699883L174.92 -1.17338e-05C174.621 -0.00894311 174.324 0.0442142 174.047 0.156098C173.77 0.267982 173.519 0.436158 173.31 0.649988L132.74 41.56Z" fill="#E6EDF8"/>
<path d="M135.54 54.3999C135.242 54.6994 135.037 55.0794 134.952 55.4933C134.867 55.9072 134.904 56.337 135.06 56.7299L135.19 57.0599L188.83 2.99991L188.5 2.86991C188.105 2.71683 187.674 2.6826 187.26 2.77145C186.846 2.86029 186.467 3.06832 186.17 3.36991L135.54 54.3999Z" fill="#E6EDF8"/>
<path d="M138.1 59.6499C137.769 59.9843 137.559 60.4187 137.501 60.8854C137.443 61.3521 137.541 61.8249 137.78 62.2299L194.06 5.52991C193.643 5.28999 193.158 5.19426 192.681 5.25752C192.203 5.32079 191.76 5.53953 191.42 5.87991L138.1 59.6499Z" fill="#E6EDF8"/>
<path d="M201.67 11.22L143.55 69.83C143.92 70.22 144.3 70.6 144.69 70.98L202.83 12.35L201.67 11.22Z" fill="#E6EDF8"/>
<path d="M133.68 48.45C133.422 48.7076 133.233 49.0255 133.13 49.3749C133.027 49.7243 133.013 50.0939 133.09 50.45C133.15 50.7 133.2 50.93 133.26 51.17L182.93 1.09002L182.21 0.92002C181.852 0.845953 181.482 0.862997 181.132 0.969586C180.783 1.07617 180.466 1.26889 180.21 1.53002L133.68 48.45Z" fill="#E6EDF8"/>
<path d="M206.69 50.52H64.77V113.37H206.69V50.52Z" fill="#EFEEFF"/>
<path d="M199.19 120.46H72.27V158.17H199.19V120.46Z" fill="white"/>
<path d="M199.19 166.69H72.27V204.4H199.19V166.69Z" fill="white"/>
<path opacity="0.34" d="M142.02 67.55H192.2" stroke="#88959C" stroke-width="2.43" stroke-linecap="round" stroke-linejoin="round"/>
<path opacity="0.34" d="M142.02 86.71H181.25" stroke="#88959C" stroke-width="2.43" stroke-linecap="round" stroke-linejoin="round"/>
<path opacity="0.34" d="M142.02 76.6699H159.96" stroke="#88959C" stroke-width="2.43" stroke-linecap="round" stroke-linejoin="round"/>
<path opacity="0.34" d="M167.87 76.6699H190.98" stroke="#88959C" stroke-width="2.43" stroke-linecap="round" stroke-linejoin="round"/>
<path d="M132.36 103L130 104.23C129.949 104.256 129.892 104.268 129.835 104.264C129.778 104.26 129.724 104.241 129.677 104.208C129.63 104.175 129.594 104.129 129.572 104.077C129.549 104.024 129.542 103.967 129.55 103.91L130.01 101.27C130.016 101.221 130.011 101.172 129.996 101.125C129.98 101.078 129.954 101.035 129.92 101L128 99.1201C127.961 99.0795 127.934 99.0292 127.921 98.9744C127.909 98.9196 127.911 98.8625 127.929 98.8091C127.946 98.7556 127.978 98.708 128.02 98.6712C128.063 98.6344 128.115 98.6098 128.17 98.6001L130.82 98.2201C130.869 98.2123 130.916 98.1928 130.956 98.1632C130.996 98.1336 131.028 98.0948 131.05 98.0501L132.24 95.6401C132.266 95.5897 132.306 95.5476 132.354 95.5181C132.403 95.4887 132.458 95.4731 132.515 95.4731C132.572 95.4731 132.627 95.4887 132.676 95.5181C132.724 95.5476 132.764 95.5897 132.79 95.6401L134 98.0501C134.022 98.0948 134.054 98.1336 134.094 98.1632C134.134 98.1928 134.181 98.2123 134.23 98.2201L136.88 98.6001C136.935 98.6098 136.987 98.6344 137.029 98.6712C137.072 98.708 137.103 98.7556 137.121 98.8091C137.138 98.8625 137.141 98.9196 137.129 98.9744C137.116 99.0292 137.089 99.0795 137.05 99.1201L135.1 101C135.066 101.035 135.04 101.078 135.024 101.125C135.009 101.172 135.004 101.221 135.01 101.27L135.47 103.91C135.478 103.967 135.471 104.024 135.448 104.077C135.426 104.129 135.389 104.175 135.343 104.208C135.296 104.241 135.242 104.26 135.185 104.264C135.128 104.268 135.071 104.256 135.02 104.23L132.65 103C132.606 102.976 132.556 102.963 132.505 102.963C132.454 102.963 132.404 102.976 132.36 103Z" fill="#FFA402"/>
<path d="M145.6 103L143.22 104.24C143.17 104.268 143.113 104.281 143.056 104.277C142.999 104.274 142.944 104.254 142.898 104.22C142.852 104.187 142.816 104.141 142.795 104.087C142.774 104.034 142.769 103.976 142.78 103.92L143.24 101.28C143.246 101.231 143.241 101.182 143.226 101.135C143.21 101.088 143.184 101.046 143.15 101.01L141.23 99.1301C141.188 99.0918 141.157 99.0422 141.142 98.9871C141.126 98.932 141.127 98.8737 141.144 98.819C141.161 98.7644 141.193 98.7157 141.237 98.6787C141.28 98.6417 141.333 98.6179 141.39 98.6101L144.05 98.2301C144.099 98.2223 144.146 98.2028 144.186 98.1732C144.226 98.1436 144.258 98.1048 144.28 98.0601L145.47 95.6501C145.496 95.5997 145.536 95.5576 145.584 95.5281C145.633 95.4987 145.688 95.4832 145.745 95.4832C145.802 95.4832 145.857 95.4987 145.906 95.5281C145.954 95.5576 145.994 95.5997 146.02 95.6501L147.2 98.0601C147.225 98.1026 147.258 98.1396 147.297 98.1689C147.337 98.1981 147.382 98.2189 147.43 98.2301L150.09 98.6101C150.145 98.6198 150.197 98.6444 150.239 98.6812C150.282 98.718 150.314 98.7656 150.331 98.8191C150.348 98.8725 150.351 98.9296 150.339 98.9844C150.326 99.0392 150.299 99.0895 150.26 99.1301L148.34 101C148.304 101.034 148.277 101.077 148.261 101.124C148.245 101.171 148.241 101.221 148.25 101.27L148.7 103.91C148.711 103.966 148.706 104.024 148.685 104.077C148.664 104.131 148.628 104.177 148.582 104.21C148.536 104.244 148.481 104.264 148.424 104.267C148.367 104.271 148.31 104.258 148.26 104.23L145.88 103C145.837 102.975 145.789 102.963 145.74 102.963C145.691 102.963 145.643 102.975 145.6 103Z" fill="#FFA402"/>
<path d="M158.84 103L156.46 104.24C156.41 104.268 156.353 104.281 156.296 104.277C156.239 104.274 156.184 104.254 156.138 104.22C156.092 104.187 156.056 104.141 156.035 104.087C156.014 104.034 156.009 103.976 156.02 103.92L156.47 101.28C156.48 101.232 156.478 101.182 156.464 101.135C156.45 101.088 156.424 101.045 156.39 101.01L154.46 99.1299C154.421 99.0894 154.394 99.0391 154.381 98.9843C154.369 98.9295 154.372 98.8723 154.389 98.8189C154.406 98.7655 154.438 98.7179 154.481 98.6811C154.523 98.6442 154.575 98.6197 154.63 98.6099L157.29 98.2299C157.339 98.2207 157.385 98.2006 157.424 98.1712C157.464 98.1417 157.497 98.1037 157.52 98.0599L158.71 95.6499C158.735 95.5992 158.773 95.5565 158.821 95.5265C158.868 95.4966 158.924 95.4807 158.98 95.4807C159.036 95.4807 159.092 95.4966 159.139 95.5265C159.187 95.5565 159.225 95.5992 159.25 95.6499L160.44 98.0599C160.463 98.1037 160.496 98.1417 160.536 98.1712C160.575 98.2006 160.621 98.2207 160.67 98.2299L163.33 98.6099C163.385 98.6197 163.437 98.6442 163.479 98.6811C163.522 98.7179 163.554 98.7655 163.571 98.8189C163.588 98.8723 163.591 98.9295 163.579 98.9843C163.566 99.0391 163.539 99.0894 163.5 99.1299L161.58 101C161.542 101.033 161.514 101.075 161.498 101.123C161.482 101.17 161.48 101.221 161.49 101.27L161.94 103.91C161.951 103.966 161.946 104.024 161.925 104.077C161.904 104.131 161.868 104.177 161.822 104.21C161.776 104.244 161.721 104.264 161.664 104.267C161.607 104.271 161.55 104.258 161.5 104.23L159.12 103C159.077 102.975 159.029 102.962 158.98 102.962C158.931 102.962 158.883 102.975 158.84 103Z" fill="#FFA402"/>
<path d="M172.08 103L169.7 104.24C169.65 104.268 169.593 104.281 169.536 104.277C169.479 104.274 169.424 104.254 169.378 104.22C169.332 104.187 169.296 104.141 169.275 104.087C169.254 104.034 169.249 103.976 169.26 103.92L169.71 101.28C169.721 101.231 169.718 101.18 169.702 101.133C169.686 101.085 169.658 101.043 169.62 101.01L167.7 99.1299C167.661 99.0894 167.634 99.0391 167.621 98.9843C167.609 98.9295 167.612 98.8723 167.629 98.8189C167.646 98.7655 167.678 98.7179 167.721 98.6811C167.763 98.6442 167.815 98.6197 167.87 98.6099L170.53 98.2299C170.579 98.2207 170.625 98.2006 170.664 98.1712C170.704 98.1417 170.737 98.1037 170.76 98.0599L172 95.6399C172.025 95.5892 172.063 95.5464 172.111 95.5165C172.158 95.4866 172.214 95.4707 172.27 95.4707C172.326 95.4707 172.382 95.4866 172.429 95.5165C172.477 95.5464 172.515 95.5892 172.54 95.6399L173.73 98.0499C173.753 98.0937 173.786 98.1317 173.826 98.1611C173.865 98.1906 173.911 98.2107 173.96 98.2199L176.62 98.5999C176.675 98.6097 176.727 98.6342 176.769 98.6711C176.812 98.7079 176.844 98.7555 176.861 98.8089C176.878 98.8623 176.881 98.9195 176.869 98.9743C176.856 99.0291 176.829 99.0794 176.79 99.1199L174.81 101C174.776 101.035 174.75 101.078 174.736 101.125C174.722 101.172 174.72 101.222 174.73 101.27L175.18 103.91C175.191 103.966 175.186 104.024 175.165 104.077C175.144 104.131 175.108 104.177 175.062 104.21C175.016 104.244 174.961 104.264 174.904 104.267C174.847 104.271 174.79 104.258 174.74 104.23L172.36 103C172.317 102.975 172.269 102.962 172.22 102.962C172.171 102.962 172.123 102.975 172.08 103Z" fill="#FFA402"/>
<path d="M185.31 103L182.94 104.24C182.89 104.268 182.833 104.281 182.776 104.277C182.719 104.274 182.664 104.254 182.618 104.22C182.572 104.187 182.536 104.141 182.515 104.087C182.494 104.034 182.489 103.976 182.5 103.92L182.95 101.28C182.959 101.231 182.955 101.181 182.939 101.134C182.923 101.087 182.896 101.044 182.86 101.01L180.94 99.1301C180.901 99.0895 180.874 99.0392 180.861 98.9844C180.849 98.9296 180.852 98.8725 180.869 98.8191C180.886 98.7656 180.918 98.718 180.961 98.6812C181.003 98.6444 181.055 98.6198 181.11 98.6101L183.76 98.2301C183.809 98.2223 183.856 98.2028 183.896 98.1732C183.936 98.1436 183.968 98.1048 183.99 98.0601L185.18 95.6501C185.206 95.5997 185.246 95.5576 185.294 95.5281C185.343 95.4987 185.398 95.4832 185.455 95.4832C185.512 95.4832 185.567 95.4987 185.616 95.5281C185.664 95.5576 185.704 95.5997 185.73 95.6501L186.92 98.0601C186.942 98.1048 186.974 98.1436 187.014 98.1732C187.054 98.2028 187.101 98.2223 187.15 98.2301L189.81 98.6101C189.867 98.6179 189.92 98.6417 189.963 98.6787C190.007 98.7157 190.039 98.7644 190.056 98.819C190.073 98.8737 190.073 98.932 190.058 98.9871C190.043 99.0422 190.012 99.0918 189.97 99.1301L188.05 101C188.016 101.035 187.99 101.078 187.974 101.125C187.959 101.172 187.954 101.221 187.96 101.27L188.42 103.91C188.431 103.966 188.426 104.024 188.405 104.077C188.384 104.131 188.348 104.177 188.302 104.21C188.256 104.244 188.201 104.264 188.144 104.267C188.087 104.271 188.03 104.258 187.98 104.23L185.6 103C185.556 102.976 185.506 102.963 185.455 102.963C185.404 102.963 185.354 102.976 185.31 103Z" fill="#C2D4D9"/>
<path d="M51.7899 123.3C51.7899 123.3 53.4199 120.3 54.8399 120.3C56.2599 120.3 57.8399 120.5 58.2799 121.52C58.7199 122.54 57.0699 123.95 56.0499 124.52C55.0166 124.907 53.9071 125.048 52.8099 124.93L51.7899 123.3Z" fill="#FF8D68"/>
<path d="M20.37 109.31C20.37 109.31 24.0199 107.79 27.9699 114.18C31.9199 120.57 35.2699 127 35.2699 127L52 121.48L53.82 125.48C53.82 125.48 36.82 135.82 33.4499 136.13C30.0799 136.44 17.3299 116.97 17.3299 116.97C17.3299 116.97 15.1999 111.75 20.37 109.31Z" fill="#E8544A"/>
<path d="M34.5099 198.72L36.5099 200.55C36.5099 200.55 41.8299 202.55 41.3699 203.13C40.9099 203.71 33.7699 203.44 33.7699 203.44L32.3999 202.83L31.4899 203.59H29.1899L30.9999 199L34.5099 198.72Z" fill="#437CD8"/>
<path d="M11.6 198.72L13.6 200.55C13.6 200.55 18.92 202.55 18.46 203.13C18 203.71 10.86 203.44 10.86 203.44L9.49003 202.83L8.58003 203.59H6.28003L8.10003 199L11.6 198.72Z" fill="#437CD8"/>
<path d="M22.2499 141.25C20.7232 142.169 19.5129 143.531 18.7803 145.155C18.0478 146.779 17.8279 148.588 18.1499 150.34C18.8483 154.429 20.7492 158.217 23.6099 161.22C30.5099 168.52 32.5299 171.76 32.5299 171.76L29.6899 199.33H36.5899C36.5899 199.33 44.2899 173.79 44.6999 170.14C45.0599 166.92 34.9799 148.83 32.6199 144.65C32.1268 143.772 31.4877 142.984 30.7299 142.32C28.9999 140.86 25.9999 139.12 22.2499 141.25Z" fill="url(#paint0_linear_1044_361)"/>
<path d="M24.42 142.16C24.42 142.16 22.42 166.08 21.99 170.54C21.56 175 14.29 198.93 14.29 198.93H5.77002L9.83002 169.73V143.37C9.83002 143.37 9.83002 139.32 15.91 139.32C21.99 139.32 24.42 142.16 24.42 142.16Z" fill="url(#paint1_linear_1044_361)"/>
<path d="M32.53 143.68C23.41 147.63 9.12001 146.68 9.12001 146.68C9.12001 146.68 10.03 139.38 9.12001 134.52C9.12001 134.52 5.77001 117.18 9.42001 110.52C9.42001 110.52 10.33 107.78 16.11 107.52C18.411 107.325 20.7172 107.831 22.7251 108.972C24.7331 110.112 26.3489 111.834 27.36 113.91C28.88 117.25 28.88 132.15 30.1 135.8C31.32 139.45 32.53 143.68 32.53 143.68Z" fill="#FF6D5E"/>
<path d="M19.76 104.14C19.5771 105.004 19.6362 105.902 19.9309 106.735C20.2255 107.568 20.7443 108.303 21.43 108.86C21.43 108.86 21.13 109.77 19.15 109.47C17.2494 109.091 15.3727 108.6 13.53 108L14.89 103.43L19.76 104.14Z" fill="#FF7E61"/>
<path d="M13.0699 93.1999C13.0699 93.1999 16.8699 91.2 19.6099 93.8C22.3499 96.4 23.8699 104.45 22.9499 104.6C22.0299 104.75 16.8699 105.06 15.3499 104.6C13.8299 104.14 11.5499 101.71 10.6399 98.8199C9.72993 95.9299 12.3099 93.6499 13.0699 93.1999Z" fill="#FF8D68"/>
<path d="M12.77 108L13.88 106.37L18.44 108.1L20.37 109.31V107.59C19.96 107.08 21.89 108 21.89 108L23.41 110L21.79 109.7L21.48 110.92L19.66 110L19.15 111.83L12.77 108Z" fill="white"/>
<path d="M10.3299 94.41C11.1055 92.857 12.448 91.6614 14.0799 91.0699C16.9199 89.9499 19.6599 90.4599 19.6599 90.7599C19.6599 91.0599 18.5399 91.37 18.5399 91.37C19.2616 91.3873 19.9812 91.2859 20.6699 91.0699C21.3799 90.8599 20.3699 92.4899 19.5599 93.0699C19.5599 93.0699 20.3699 92.4699 20.7699 92.5699C21.1699 92.6699 20.4699 94.39 18.9499 94.8C17.4299 95.21 15.5999 95.51 15.2999 95.91C14.9999 96.31 15.8099 97.23 14.8899 98.55L14.7899 99.3599C14.7899 99.3599 15.7899 100.47 15.5999 100.78C15.4099 101.09 14.9999 100.88 14.9999 100.88C14.9999 100.88 13.7799 99.5599 13.3699 99.7599C13.2203 99.8976 13.1026 100.066 13.0253 100.254C12.9479 100.442 12.9128 100.645 12.9223 100.848C12.9319 101.051 12.9858 101.25 13.0805 101.43C13.1751 101.61 13.308 101.767 13.4699 101.89C14.3899 102.6 14.6899 102.5 14.6899 102.5V104.5C13.1142 103.639 11.6212 102.635 10.2299 101.5C10.2299 101.5 7.48994 98.87 10.3299 94.41Z" fill="url(#paint2_linear_1044_361)"/>
<path d="M81.1432 113.582L73.0507 106.206L63.2153 116.996L71.3078 124.372L81.1432 113.582Z" fill="#A6D0F4"/>
<path opacity="0.53" d="M105.89 117.06C125.127 116.15 139.983 99.8174 139.072 80.5808C138.162 61.3441 121.829 46.4879 102.593 47.3984C83.356 48.309 68.4997 64.6415 69.4103 83.8781C70.3208 103.115 86.6533 117.971 105.89 117.06Z" fill="white"/>
<circle cx="65.98" cy="47.36" r="0.61" fill="#4361C4"/>
<path d="M68.5699 44.7199C77.8192 35.915 89.997 30.8401 102.762 30.4709C115.527 30.1017 127.977 34.4643 137.72 42.7199" stroke="#4361C4" stroke-width="1.22" stroke-linecap="round" stroke-linejoin="round"/>
<circle cx="139.11" cy="43.9701" r="0.61" fill="#4361C4"/>
<path d="M133.19 50.4599C126.906 44.7269 119.063 40.9864 110.653 39.7117C102.243 38.437 93.6434 39.6852 85.9428 43.2985C78.2423 46.9119 71.7864 52.7279 67.3918 60.011C62.9973 67.294 60.8615 75.7169 61.2547 84.2139C61.648 92.711 64.5525 100.901 69.6009 107.747C74.6493 114.593 81.6148 119.788 89.6162 122.674C97.6176 125.561 106.295 126.01 114.552 123.964C122.808 121.918 130.272 117.469 136 111.18C143.675 102.753 147.69 91.624 147.163 80.2383C146.636 68.8526 141.61 58.1418 133.19 50.4599ZM80.7499 108C75.6514 103.355 72.0451 97.3017 70.387 90.6067C68.7289 83.9117 69.0935 76.8753 71.4348 70.3876C73.776 63.8998 77.9887 58.2521 83.5401 54.1587C89.0914 50.0654 95.7319 47.7103 102.622 47.3913C109.512 47.0724 116.342 48.8039 122.247 52.3668C128.153 55.9297 132.87 61.1641 135.8 67.4078C138.731 73.6515 139.744 80.6241 138.712 87.4437C137.679 94.2633 134.647 100.623 130 105.72C123.77 112.551 115.083 116.629 105.847 117.057C96.6114 117.484 87.5841 114.227 80.7499 108Z" fill="#4361C4"/>
<path d="M79.3261 125.504L62.4685 110.138L3.67166 174.641L20.5292 190.008L79.3261 125.504Z" fill="#437CD8"/>
<path d="M20.5328 190.01L3.67517 174.644L-0.00973763 178.686L16.8478 194.052L20.5328 190.01Z" fill="#FF6D5E"/>
<path d="M27.06 149.86C27.06 149.86 30.91 150.47 31.32 151.28C31.73 152.09 31.32 155.34 30.51 155.74C29.7 156.14 28.68 154.12 28.68 154.12C28.68 154.12 25.89 154.66 25.36 152.67C24.83 150.68 27.06 149.86 27.06 149.86Z" fill="#FF8D68"/>
<path d="M9.57999 110.14C8.63513 111.144 8.10932 112.471 8.10999 113.85C8.03336 120.14 9.04841 126.396 11.11 132.34C14.79 142.76 25.41 152.67 25.41 152.67L28.45 150C28.45 150 20.34 134.38 20 131.8C19.66 129.22 19.36 116.03 18.09 112.92C17 110.25 12.64 107 9.57999 110.14Z" fill="#E8544A"/>
<mask id="mask0_1044_361" style="mask-type:luminance" maskUnits="userSpaceOnUse" x="72" y="50" width="65" height="65">
<path d="M104.22 114.1C121.843 114.1 136.13 99.8134 136.13 82.19C136.13 64.5666 121.843 50.28 104.22 50.28C86.5965 50.28 72.3099 64.5666 72.3099 82.19C72.3099 99.8134 86.5965 114.1 104.22 114.1Z" fill="white"/>
</mask>
<g mask="url(#mask0_1044_361)">
<path d="M101.62 73L100.35 83.2H110.07L108.32 70.77L101.62 73Z" fill="url(#paint3_linear_1044_361)"/>
<path d="M111 68.0699C110.62 72.1399 105.36 79.2199 101.29 78.8399C97.2199 78.4599 95.8899 70.7599 96.2899 66.6899C96.5216 64.7786 97.49 63.0331 98.9891 61.825C100.488 60.6168 102.4 60.0415 104.316 60.2213C106.233 60.4011 108.004 61.322 109.253 62.7878C110.501 64.2537 111.128 66.1488 111 68.0699Z" fill="url(#paint4_linear_1044_361)"/>
<path d="M111.35 64.33C111.35 64.33 111.8 60.74 109.27 59.52C106.74 58.3 100.06 59.93 97.6399 56.89C95.2199 53.85 92.0699 58.61 93.6399 61.04C95.2099 63.47 95.7999 66.22 103.4 65C107.15 64.39 107.96 66.92 107.75 68.13C107.54 69.34 106.24 71.37 106.24 71.88C106.24 72.39 107.05 72.38 107.35 71.98C107.65 71.58 108.06 69.35 109.47 69.65C110.88 69.95 109.17 72.99 107.96 73.4C107.849 73.5605 107.781 73.7466 107.761 73.9408C107.742 74.135 107.773 74.3308 107.85 74.51C108.16 75.01 112.91 71.37 113.01 67.93C113.11 64.49 111.35 64.33 111.35 64.33Z" fill="#4361C4"/>
<path d="M100.35 81.0501L103.46 82.4801L109.67 80.5701L111.47 82.7201C111.47 82.7201 123.54 87.2601 123.78 88.4601C124.02 89.6601 117.78 124.08 117.78 124.08V126.71H90.3099L89.8599 88.0001L99.1499 83.2301L100.35 81.0501Z" fill="white"/>
<path d="M107 70.4499C106.385 71.2314 105.926 72.1244 105.65 73.0799C105.09 74.8299 103.82 72.3599 101.27 71.7199C98.7199 71.0799 96.7999 72.2799 96.8799 73.7199C96.9599 75.1599 98.8199 78.9299 101.6 79.1499C102.769 79.2061 103.924 78.8652 104.875 78.1826C105.826 77.5 106.519 76.5158 106.84 75.3899C107.16 73.7199 107.24 72.1199 107.84 71.0899C107.93 70.1299 107 70.4499 107 70.4499Z" fill="#4361C4"/>
<path d="M103.06 85.9901L100.99 111.25L102.98 114.2L105.21 111.25L104.17 85.8301L103.06 85.9901Z" fill="#437CD8"/>
<path d="M112.63 83C112.63 83 106.63 99.62 110.45 124C114.27 148.38 116.15 173.18 116.15 173.18C116.15 173.18 128.91 173.35 132.1 172.51C132.1 172.51 128.1 149.18 124.88 131.89C121.66 114.6 122 116.11 122 115.61C122 115.11 124 96 124 96L125.17 88C125.17 88 116.66 84.05 112.63 83Z" fill="#437CD8"/>
<path d="M97.4099 84.1001C97.4099 84.1001 89.9999 153.26 89.9999 174.07H78.3899C78.3899 174.07 79.9999 145.87 83.3099 132C86.6199 118.13 89.1299 87.2401 89.1299 87.2401C91.7059 85.7608 94.5008 84.7009 97.4099 84.1001Z" fill="#437CD8"/>
<path d="M110.53 83.21L106.75 87.41L103.65 85.64L101.22 87.66L99.0299 83.8" stroke="#218498" stroke-width="0.11" stroke-miterlimit="10"/>
<path d="M125.21 88.0001C125.21 88.0001 133.67 97.5501 133.67 119.49C133.67 141.19 133.33 143.88 133.33 143.88H128.33C128.33 143.88 126.09 123.74 124.52 114.79C122.95 105.84 114.9 100.24 115.57 93.5201C116.24 86.8001 122.13 86.0001 125.21 88.0001Z" fill="#437CD8"/>
<path d="M89.1299 87.24C89.1299 87.24 84.5199 89.59 83.2199 101.13L81.9199 112.68L91.5999 112.97L89.1299 87.24Z" fill="#437CD8"/>
</g>
<path d="M41.75 58.8699H15.67C14.7311 58.8699 13.97 59.631 13.97 60.5699V75.4499C13.97 76.3888 14.7311 77.1499 15.67 77.1499H41.75C42.6889 77.1499 43.45 76.3888 43.45 75.4499V60.5699C43.45 59.631 42.6889 58.8699 41.75 58.8699Z" fill="#DCE1F1"/>
<path d="M14.59 59.2699L29 71.2399L43 59.5099C42.8432 59.3098 42.6428 59.1481 42.414 59.0372C42.1852 58.9263 41.9342 58.8691 41.68 58.8699H15.67C15.2739 58.8709 14.8911 59.0127 14.59 59.2699Z" fill="#437CD8"/>
<path d="M24.19 66.78H50.28C50.5032 66.78 50.7243 66.824 50.9306 66.9094C51.1368 66.9949 51.3242 67.1201 51.4821 67.2779C51.6399 67.4358 51.7652 67.6232 51.8506 67.8295C51.936 68.0357 51.98 68.2568 51.98 68.48V83.36C51.98 83.8082 51.8019 84.2381 51.485 84.555C51.1681 84.872 50.7382 85.05 50.29 85.05H24.18C23.9581 85.05 23.7383 85.0063 23.5333 84.9214C23.3282 84.8365 23.1419 84.712 22.985 84.555C22.828 84.3981 22.7036 84.2118 22.6186 84.0068C22.5337 83.8017 22.49 83.582 22.49 83.36V68.47C22.4926 68.0209 22.6729 67.5911 22.9914 67.2744C23.31 66.9578 23.7409 66.78 24.19 66.78Z" fill="#F0F2F8"/>
<path d="M23.11 67.17L37.55 79.17L51.6 67.42C51.4422 67.221 51.2416 67.0601 51.013 66.9493C50.7845 66.8385 50.534 66.7807 50.28 66.78H24.19C23.7954 66.7792 23.413 66.9172 23.11 67.17Z" fill="#FF6D5E"/>
<path d="M151.409 65.5946C157.157 59.8461 157.157 50.5259 151.409 44.7774C145.66 39.0289 136.34 39.0289 130.592 44.7774C124.843 50.5259 124.843 59.8461 130.592 65.5946C136.34 71.3432 145.66 71.3432 151.409 65.5946Z" fill="#40BFE0"/>
<path d="M135.3 56.1301L139.58 60.4101L147.89 52.0901" stroke="white" stroke-width="3.8" stroke-linecap="round" stroke-linejoin="round"/>
<path d="M104.544 149.297C109.632 144.208 109.632 135.958 104.544 130.869C99.4551 125.781 91.205 125.781 86.1164 130.869C81.0279 135.958 81.0279 144.208 86.1164 149.297C91.205 154.385 99.4551 154.385 104.544 149.297Z" fill="#DCE1F3"/>
<mask id="mask1_1044_361" style="mask-type:luminance" maskUnits="userSpaceOnUse" x="82" y="127" width="27" height="27">
<path d="M104.544 149.297C109.632 144.208 109.632 135.958 104.544 130.869C99.4551 125.781 91.205 125.781 86.1164 130.869C81.0279 135.958 81.0279 144.208 86.1164 149.297C91.205 154.385 99.4551 154.385 104.544 149.297Z" fill="white"/>
</mask>
<g mask="url(#mask1_1044_361)">
<path d="M90.05 154.48C90.49 153.69 90.85 152.98 91.05 152.48C92.43 149.24 90.22 145.09 88.63 144.48C88.63 144.48 86.43 145.25 84.89 149.25C84.1729 151.064 83.3412 152.831 82.4 154.54L90.05 154.48Z" fill="#8B9FBF"/>
<path d="M106.12 154.48C106.286 151.618 106.256 148.748 106.03 145.89C104.67 142.98 96.44 142.47 96.44 142.47C93.8014 142.908 91.2029 143.561 88.67 144.42C88.1679 144.733 87.7626 145.179 87.4995 145.709C87.2364 146.238 87.1258 146.831 87.18 147.42C86.7724 149.733 86.5351 152.072 86.47 154.42L106.12 154.48Z" fill="#8B9FBF"/>
<path d="M93.6801 140L93.8901 144.25C93.9048 144.516 94.0133 144.769 94.1964 144.963C94.3794 145.157 94.6251 145.28 94.8901 145.31C95.4392 145.414 96.0042 145.402 96.5485 145.275C97.0928 145.147 97.6043 144.907 98.0501 144.57C98.2135 144.441 98.3369 144.268 98.4059 144.071C98.475 143.875 98.4868 143.663 98.4401 143.46C98.0101 141.46 97.2501 137.46 97.2501 137.46L93.6801 140Z" fill="#D0CFD4"/>
<path d="M91.48 135.48C91.48 135.48 90.33 141.03 91.29 142.48C92.2 143.48 97.05 141.21 97.53 139.73C98.01 138.25 99.31 135.54 97.21 133.86C95.11 132.18 92.78 132.79 91.48 135.48Z" fill="#D0CFD4"/>
<path d="M104.18 154.48H112.08C110.971 151.994 109.632 149.617 108.08 147.38C107.109 146.217 105.937 145.238 104.62 144.49C103.7 143.92 101.15 145.42 101.04 148.31C100.93 151.2 103.7 153.96 103.7 153.96L104.18 154.48Z" fill="#8B9FBF"/>
<path d="M91.4801 135.48C91.4801 135.48 90.4801 133.48 91.7601 132.37C92.4263 131.84 93.2631 131.571 94.1135 131.613C94.9639 131.655 95.7698 132.006 96.3801 132.6C96.8093 133.019 97.2134 133.463 97.5901 133.93C97.8846 134.005 98.161 134.139 98.4031 134.323C98.6453 134.506 98.8482 134.737 99.0001 135C99.5201 135.86 98.4201 138.06 97.9001 138.69C97.3801 139.32 97.5301 139.34 97.5301 139.34L97.2101 139.04C97.0247 138.165 96.9275 137.274 96.9201 136.38C96.7587 135.974 96.4847 135.623 96.1303 135.368C95.7759 135.113 95.356 134.964 94.9201 134.94C93.8401 134.74 93.7401 135.71 91.4801 135.48Z" fill="#7A86A7"/>
<path d="M97.55 138C97.5714 137.904 97.6129 137.813 97.6716 137.734C97.7304 137.655 97.8051 137.59 97.891 137.541C97.9769 137.493 98.072 137.464 98.17 137.455C98.2681 137.446 98.3669 137.458 98.46 137.49C99.2 137.72 98.46 139.84 97.71 139.69C96.96 139.54 97.55 138 97.55 138Z" fill="#D0CFD4"/>
<path d="M98.21 142.65C97.65 143.546 96.8496 144.267 95.9 144.73C95.67 144.8 95.44 145.3 95.44 145.3L94.98 144.61C94.98 144.61 93.82 144 93.82 143L93.67 143.16L93.51 144.46C93.4888 145.029 93.529 145.599 93.63 146.16L94.75 145.43C95.2274 145.564 95.7326 145.564 96.21 145.43C96.21 145.43 96.75 146.35 97.02 146.43C97.29 146.51 98.75 144.62 98.86 143.96C98.9465 143.522 98.9084 143.068 98.75 142.65H98.21Z" fill="white"/>
</g>
<path opacity="0.34" d="M118.29 129.59H188.55" stroke="#88959C" stroke-width="1.22" stroke-linecap="round" stroke-linejoin="round"/>
<path opacity="0.34" d="M118.29 148.75H173.22" stroke="#88959C" stroke-width="1.22" stroke-linecap="round" stroke-linejoin="round"/>
<path opacity="0.34" d="M118.29 138.71H143.41" stroke="#88959C" stroke-width="1.22" stroke-linecap="round" stroke-linejoin="round"/>
<path opacity="0.34" d="M154.48 138.71H186.84" stroke="#88959C" stroke-width="1.22" stroke-linecap="round" stroke-linejoin="round"/>
<path d="M104.549 194.102C109.638 189.013 109.638 180.763 104.549 175.675C99.4605 170.586 91.2103 170.586 86.1218 175.675C81.0333 180.763 81.0333 189.013 86.1218 194.102C91.2103 199.191 99.4605 199.191 104.549 194.102Z" fill="#DCE1F3"/>
<mask id="mask2_1044_361" style="mask-type:luminance" maskUnits="userSpaceOnUse" x="82" y="171" width="27" height="27">
<path d="M104.549 194.102C109.638 189.013 109.638 180.763 104.549 175.675C99.4605 170.586 91.2103 170.586 86.1218 175.675C81.0333 180.763 81.0333 189.013 86.1218 194.102C91.2103 199.191 99.4605 199.191 104.549 194.102Z" fill="white"/>
</mask>
<g mask="url(#mask2_1044_361)">
<path d="M90.0499 199.29C90.4899 198.5 90.8499 197.79 91.0499 197.23C92.4299 194 90.2199 189.84 88.6299 189.23C88.6299 189.23 86.4299 189.99 84.8899 194C84.1708 195.813 83.3392 197.58 82.3999 199.29H90.0499Z" fill="#8B9FBF"/>
<path d="M106.12 199.29C106.285 196.424 106.255 193.551 106.03 190.69C104.67 187.79 96.4398 187.28 96.4398 187.28C93.8002 187.713 91.2013 188.365 88.6698 189.23C88.1661 189.541 87.7596 189.987 87.4962 190.517C87.2329 191.047 87.1233 191.64 87.1798 192.23C86.7723 194.543 86.535 196.882 86.4698 199.23L106.12 199.29Z" fill="#8B9FBF"/>
<path d="M93.6799 184.79L93.8899 189.05C93.9162 189.306 94.03 189.545 94.2121 189.728C94.3943 189.91 94.6337 190.023 94.8899 190.05C95.4384 190.155 96.003 190.145 96.5472 190.019C97.0915 189.894 97.6034 189.655 98.0499 189.32C98.2134 189.191 98.3368 189.018 98.4058 188.821C98.4748 188.625 98.4867 188.413 98.4399 188.21C98.0099 186.21 97.2499 182.21 97.2499 182.21L93.6799 184.79Z" fill="#D0CFD4"/>
<path d="M91.4799 180.29C91.4799 180.29 90.3299 185.84 91.2899 187.29C92.1999 188.29 97.0499 186.02 97.5299 184.53C98.0099 183.04 99.3099 180.35 97.2099 178.67C95.1099 176.99 92.7799 177.59 91.4799 180.29Z" fill="#D0CFD4"/>
<path d="M104.18 199.29H112.08C110.973 196.802 109.634 194.425 108.08 192.19C107.109 191.027 105.937 190.048 104.62 189.3C103.7 188.72 101.15 190.23 101.04 193.11C100.93 195.99 103.7 198.77 103.7 198.77L104.18 199.29Z" fill="#8B9FBF"/>
<path d="M97.5499 182.81C97.5725 182.715 97.6147 182.625 97.674 182.547C97.7333 182.469 97.8082 182.405 97.8939 182.358C97.9797 182.311 98.0743 182.282 98.1718 182.274C98.2693 182.265 98.3674 182.278 98.4599 182.31C99.1999 182.53 98.4599 184.65 97.7099 184.51C96.9599 184.37 97.5499 182.81 97.5499 182.81Z" fill="#D0CFD4"/>
<path d="M98.2099 187.45C97.6529 188.348 96.8517 189.07 95.8999 189.53C95.6699 189.61 95.4399 190.11 95.4399 190.11L94.9799 189.42C94.9799 189.42 93.8199 188.84 93.8199 187.84L93.6699 187.99L93.5099 189.3C93.4892 189.869 93.5295 190.439 93.6299 191L94.7499 190.26C95.2273 190.394 95.7325 190.394 96.2099 190.26C96.2099 190.26 96.7499 191.19 97.0199 191.26C97.2899 191.33 98.7499 189.45 98.8599 188.8C98.9475 188.361 98.9094 187.907 98.7499 187.49L98.2099 187.45Z" fill="white"/>
<path d="M91.6099 177.87C91.6099 177.87 89.7099 179.39 91.1499 180.76C92.3699 181.9 94.4999 180.38 94.8799 180.98C95.2599 181.58 95.0299 182.28 95.9399 182.58C96.8499 182.88 96.9399 182.81 96.9399 183.27C96.9399 183.73 96.6399 183.95 96.9399 184.03C97.2399 184.11 97.3999 183.72 97.4699 183.42C97.5399 183.12 98.3799 182.66 98.3799 182.66L98.7699 182.96C99.1725 182.44 99.3844 181.797 99.3699 181.14C99.4499 179.84 98.6899 179.54 98.6899 179.54C98.7043 179.149 98.6203 178.762 98.4455 178.412C98.2708 178.063 98.0109 177.763 97.6899 177.54C96.5499 176.65 93.5099 176.5 91.6099 177.87Z" fill="#7A86A7"/>
</g>
<path opacity="0.34" d="M118.29 174.4H188.55" stroke="#88959C" stroke-width="1.22" stroke-linecap="round" stroke-linejoin="round"/>
<path opacity="0.34" d="M118.29 193.55H173.22" stroke="#88959C" stroke-width="1.22" stroke-linecap="round" stroke-linejoin="round"/>
<path opacity="0.34" d="M118.29 183.52H143.41" stroke="#88959C" stroke-width="1.22" stroke-linecap="round" stroke-linejoin="round"/>
<path opacity="0.34" d="M154.48 183.52H186.84" stroke="#88959C" stroke-width="1.22" stroke-linecap="round" stroke-linejoin="round"/>
<path d="M211.81 124.62L205.53 119.39L204.31 123.05L210.94 129.67L211.81 124.62Z" fill="#FF8D68"/>
<path d="M205.53 119.39C205.53 119.39 203.62 117.47 202.74 117.64C201.86 117.81 202.74 119.04 202.74 119.04C202.74 119.04 198.74 119.21 198.74 120.04C198.74 120.87 201.01 122.83 202.23 123.04C202.923 123.145 203.627 123.145 204.32 123.04L205.53 119.39Z" fill="#FF8D68"/>
<path d="M227.87 114.91C227.87 114.91 222.51 116.21 220.48 119.45C218.45 122.69 216.02 126.75 216.02 126.75L209.73 122.09L207.1 127.76C207.1 127.76 212.17 133.64 215.21 134.25C218.25 134.86 225.14 130.8 225.14 130.8C225.14 130.8 232.42 118.88 227.87 114.91Z" fill="#E6EDF8"/>
<path d="M216 165.47C216 165.47 238.2 161.22 253.71 167.3L242.46 125.94L238.81 116.82C238.81 116.82 231.63 111.22 224.88 117.97C218.13 124.72 218.43 148.14 218.43 148.14L216 165.47Z" fill="#D0D9E7"/>
<path d="M234 97.0501C234 97.0501 238.26 95.8301 241.6 100.39C244.94 104.95 242.21 107.39 246.17 110.12C250.13 112.85 256.17 111.65 258.03 116.21C259.89 120.77 259.85 125.33 263.5 128.07C267.15 130.81 267.76 136.89 265.02 142.07C262.28 147.25 253.16 154.84 242.21 146.02C231.26 137.2 237.65 133.25 234.31 127.47C230.97 121.69 227.92 121.39 227.61 117.13C227.3 112.87 229.61 101.94 229.38 100.26C229.15 98.5801 232.14 96.7401 234 97.0501Z" fill="url(#paint5_linear_1044_361)"/>
<path d="M237.62 201.66C236.478 202.878 235.234 203.996 233.9 205C234.14 205.48 237.98 205.48 239.43 204.76C240.441 204.157 241.302 203.333 241.95 202.35L241.83 204.15H242.55C242.857 203.127 243.097 202.084 243.27 201.03C243.162 200.495 242.913 199.998 242.55 199.59L237.62 201.66Z" fill="#2B4177"/>
<path d="M236.54 166.12L239.19 198.54L242.31 198.3C242.31 198.3 245.91 174.53 244.47 166.36C243.03 158.19 236.54 166.12 236.54 166.12Z" fill="#FF8D68"/>
<path d="M239.19 198.54C238.668 199.913 237.891 201.176 236.9 202.26C235.58 203.46 238.9 203.46 240.39 202.26C241.88 201.06 241.95 200.34 242.39 200.1C242.83 199.86 242.27 198.3 242.27 198.3L239.19 198.54Z" fill="#FF8D68"/>
<path d="M215.94 201.12C214.609 202.135 213.194 203.035 211.71 203.81C211.86 204.32 215.65 204.97 217.19 204.5C218.287 204.079 219.275 203.416 220.08 202.56L219.66 204.31L220.37 204.43C220.849 203.458 221.263 202.456 221.61 201.43C221.593 200.884 221.43 200.352 221.14 199.89L215.94 201.12Z" fill="#2B4177"/>
<path d="M220.87 165.9L218 198.3L221.12 198.59C221.12 198.59 228.67 175.77 228.63 167.48C228.59 159.19 220.87 165.9 220.87 165.9Z" fill="#FF8D68"/>
<path d="M218 198.3C217.256 199.569 216.279 200.685 215.12 201.59C213.62 202.59 216.93 203.12 218.55 202.18C220.17 201.24 220.42 200.55 220.93 200.39C221.44 200.23 221.12 198.59 221.12 198.59L218 198.3Z" fill="#FF8D68"/>
<path d="M224.36 138.23L224.2 142C222.663 145.402 221.587 148.994 221 152.68C220.25 158.26 219.95 169.43 219.95 169.43L218.29 189.65C220.215 190.327 222.285 190.482 224.29 190.1C224.29 190.1 227.61 178.79 228.52 174.86C229.43 170.93 229.27 163.39 229.27 163.39L231.99 152.83C231.99 152.83 235.92 168.22 236.07 170.33C236.22 172.44 238.07 190.41 238.07 190.41C239.961 190.854 241.935 190.802 243.8 190.26C243.8 190.26 245.61 173.96 245.46 164.9C245.16 158.11 244.71 154.64 244.71 154.64C244.71 154.64 246.07 151.17 244.26 144.53C242.6 140.75 241.54 139.85 241.54 139.85L240.54 137.78L224.36 138.23Z" fill="#4385FF"/>
<path d="M236.88 112.38C236.88 112.38 242.37 115.54 243.63 117.52C244.89 119.5 248.63 130.22 248.63 130.22C246.079 131.114 243.411 131.63 240.71 131.75C240.855 133.264 241.096 134.766 241.43 136.25C241.79 137.33 240.53 137.78 240.53 137.78C240.53 137.78 231.7 140.21 225.13 138.78C225.13 138.78 224.32 138.6 224.32 138.24C224.32 137.88 224.41 136.98 224.41 136.98C224.41 136.98 223.78 130.86 223.6 129.78C223.42 128.7 221.43 125.78 221.6 124.58C221.77 123.38 224.85 117.98 224.85 117.98C225.771 116.885 226.774 115.862 227.85 114.92C228.944 114.323 230.093 113.831 231.28 113.45L236.88 112.38Z" fill="#4361C4"/>
<path d="M230.64 110.41C230.64 110.55 231.15 113.6 229.46 115.77C227.77 117.94 234.46 117.88 236 115.63C237.41 113.63 237.27 113.28 237.27 113.28C236.659 111.317 236.388 109.264 236.47 107.21C236.37 105.05 230.54 106.36 230.64 110.41Z" fill="#FF8D68"/>
<path d="M233 97.3799C233 97.3799 231 97.5199 229.36 100.25C227.72 102.98 227.27 109.37 227.86 110.25C228.45 111.13 230.69 111.25 233.92 110.81C237.34 110.35 239.05 107.21 240.04 105.11C241.91 101.09 239.05 96.0499 233 97.3799Z" fill="#FF8D68"/>
<path d="M238.25 97.62C238.25 97.62 232.2 95.11 228.15 99.11C225.79 102.27 228.84 103.61 229.49 103.81C230.14 104.01 229.49 102.81 229.49 102.81C230.657 103.744 232.027 104.392 233.49 104.7C235.79 105.13 233.71 103.89 233.71 103.89C234.381 104.217 235.073 104.501 235.78 104.74C236.23 104.83 235.06 107.37 235.17 108.01C235.28 108.65 237 105.6 237 105.6L237.1 107.54L236.8 109.54C236.8 109.54 239.8 107.95 240.8 106.08C241.2 105.36 241.452 104.567 241.54 103.747C241.628 102.928 241.551 102.1 241.313 101.311C241.075 100.522 240.682 99.7892 240.155 99.1552C239.629 98.5212 238.981 97.9991 238.25 97.62Z" fill="url(#paint6_linear_1044_361)"/>
<path d="M236.42 106C236.42 106 237.35 105 237.98 105.53C238.61 106.06 236.98 108.53 235.98 108.4C234.98 108.27 235.84 106.6 236.42 106Z" fill="#FF7759"/>
<path d="M236.88 112.38C236.88 112.38 238.88 114.08 237.31 118.94C235.74 123.8 233.66 125.94 233.96 133.54C234.26 141.14 243.39 168.21 247.34 171.86C247.34 171.86 255.55 172.77 260.72 168.86C262.24 164.91 249.78 147.86 249.47 140.27C249.16 132.68 248.56 124.15 245.21 118.98C241.86 113.81 238.28 112.5 236.88 112.38Z" fill="#E6EDF8"/>
<path d="M230.31 113.47C230.31 113.47 224.23 118.34 222.4 129.59C220.57 140.84 218.76 166.08 218.15 167.59C217.54 169.1 215.15 168.51 213.59 167.9C212.03 167.29 215.41 144.78 217.23 137.79C219.05 130.8 218.76 126.79 219.67 123.19C220.58 119.59 224.84 115 230.31 113.47Z" fill="#E6EDF8"/>
<path d="M260.83 122.09L268.73 118.44C268.73 118.44 269.54 116 270.56 116.61C271.58 117.22 271.77 119.61 271.37 120.26C270.97 120.91 263.06 126.55 263.06 126.55L260.83 122.09Z" fill="#FF8D68"/>
<path d="M240.55 114.38C240.55 114.38 254.13 123.3 255.35 123.71C256.57 124.12 262.04 120.87 262.04 120.87L264.88 126.34C264.88 126.34 258.39 130.8 255.96 131.82C253.53 132.84 240.75 125.33 240.75 125.33C239.283 121.84 239.211 117.921 240.55 114.38Z" fill="#E6EDF8"/>
<path d="M273.09 108H270.35V205.62H273.09V108Z" fill="#A6D0F4"/>
<path d="M292.86 86.8101H251.09V109.11H292.86V86.8101Z" fill="#FF6D5E"/>
<path d="M272 116.21C272 116.21 273.52 115.7 274 116.31C274.48 116.92 273.7 119.86 272.89 120.06C272.08 120.26 271.77 117.42 272 116.21Z" fill="#FF8D68"/>
<path d="M263.54 96.8301L261.706 91.2231H263.052L264.646 96.1893H263.973L265.639 91.2231H266.841L268.443 96.1893H267.794L269.428 91.2231H270.669L268.835 96.8301H267.441L266.024 92.4726H266.392L264.934 96.8301H263.54ZM272.587 93.4819H275.287V94.4912H272.587V93.4819ZM272.683 95.7888H275.735V96.8301H271.394V91.2231H275.631V92.2644H272.683V95.7888ZM276.463 93.546L276.992 91.6236L277.168 92.3525C276.938 92.3525 276.749 92.2857 276.599 92.1522C276.455 92.0134 276.383 91.8265 276.383 91.5915C276.383 91.3619 276.458 91.1777 276.607 91.0388C276.757 90.8947 276.941 90.8226 277.16 90.8226C277.384 90.8226 277.569 90.8947 277.713 91.0388C277.857 91.1777 277.929 91.3619 277.929 91.5915C277.929 91.661 277.924 91.7304 277.913 91.7998C277.908 91.8639 277.889 91.9413 277.857 92.0321C277.83 92.1229 277.785 92.243 277.721 92.3925L277.256 93.546H276.463ZM278.864 96.8301V91.2231H281.291C281.793 91.2231 282.226 91.3058 282.589 91.4714C282.952 91.6316 283.232 91.8639 283.43 92.1683C283.627 92.4726 283.726 92.8358 283.726 93.2576C283.726 93.6741 283.627 94.0346 283.43 94.339C283.232 94.638 282.952 94.8676 282.589 95.0278C282.226 95.188 281.793 95.2681 281.291 95.2681H279.585L280.162 94.6994V96.8301H278.864ZM282.428 96.8301L281.027 94.7955H282.412L283.83 96.8301H282.428ZM280.162 94.8436L279.585 94.2348H281.219C281.619 94.2348 281.918 94.1494 282.116 93.9785C282.314 93.8023 282.412 93.562 282.412 93.2576C282.412 92.9479 282.314 92.7076 282.116 92.5367C281.918 92.3658 281.619 92.2804 281.219 92.2804H279.585L280.162 91.6636V94.8436ZM285.948 93.4819H288.647V94.4912H285.948V93.4819ZM286.044 95.7888H289.096V96.8301H284.754V91.2231H288.991V92.2644H286.044V95.7888Z" fill="white"/>
<path d="M264.45 98.7431H265.747V104.35H264.45V98.7431ZM261.902 104.35H260.605V98.7431H261.902V104.35ZM264.546 102.051H261.806V100.954H264.546V102.051ZM267.074 104.35V98.7431H268.371V104.35H267.074ZM269.702 104.35V98.7431H272.129C272.631 98.7431 273.064 98.8259 273.427 98.9914C273.79 99.1516 274.07 99.3839 274.268 99.6883C274.465 99.9927 274.564 100.356 274.564 100.778C274.564 101.194 274.465 101.555 274.268 101.859C274.07 102.158 273.79 102.388 273.427 102.548C273.064 102.708 272.631 102.788 272.129 102.788H270.423L271 102.219V104.35H269.702ZM273.267 104.35L271.865 102.316H273.25L274.668 104.35H273.267ZM271 102.364L270.423 101.755H272.057C272.458 101.755 272.757 101.669 272.954 101.499C273.152 101.322 273.25 101.082 273.25 100.778C273.25 100.468 273.152 100.228 272.954 100.057C272.757 99.8859 272.458 99.8004 272.057 99.8004H270.423L271 99.1836V102.364ZM275.592 104.35V98.7431H276.89V104.35H275.592ZM278.221 104.35V98.7431H279.294L282.602 102.78H282.081V98.7431H283.363V104.35H282.298L278.981 100.313H279.502V104.35H278.221ZM287.397 104.446C286.954 104.446 286.545 104.377 286.171 104.238C285.803 104.094 285.48 103.891 285.202 103.629C284.93 103.368 284.716 103.06 284.561 102.708C284.412 102.356 284.337 101.968 284.337 101.547C284.337 101.125 284.412 100.738 284.561 100.385C284.716 100.033 284.932 99.7257 285.21 99.464C285.488 99.2023 285.814 99.0021 286.187 98.8632C286.561 98.7191 286.972 98.647 287.421 98.647C287.918 98.647 288.363 98.7297 288.759 98.8953C289.159 99.0608 289.496 99.3011 289.768 99.6162L288.935 100.385C288.732 100.172 288.51 100.014 288.27 99.9126C288.03 99.8058 287.768 99.7524 287.485 99.7524C287.213 99.7524 286.964 99.7951 286.74 99.8805C286.516 99.966 286.321 100.089 286.155 100.249C285.995 100.409 285.87 100.599 285.779 100.818C285.693 101.037 285.651 101.28 285.651 101.547C285.651 101.808 285.693 102.049 285.779 102.267C285.87 102.486 285.995 102.679 286.155 102.844C286.321 103.004 286.513 103.127 286.732 103.213C286.956 103.298 287.202 103.341 287.469 103.341C287.725 103.341 287.974 103.301 288.214 103.221C288.46 103.135 288.697 102.994 288.927 102.796L289.664 103.733C289.359 103.963 289.004 104.139 288.598 104.262C288.198 104.385 287.797 104.446 287.397 104.446ZM288.478 103.565V101.458H289.664V103.733L288.478 103.565Z" fill="white"/>
<path d="M183.21 40.3699H244.57V72.0699C244.57 72.4173 244.432 72.7505 244.186 72.9962C243.941 73.2419 243.607 73.3799 243.26 73.3799H184.52C184.173 73.3799 183.839 73.2419 183.594 72.9962C183.348 72.7505 183.21 72.4173 183.21 72.0699V40.3699Z" fill="white"/>
<path d="M244.57 36.5701H183.21V43.2901H244.57V36.5701Z" fill="#6FA4FF"/>
<path d="M229.37 40.0699C229.37 40.3802 229.247 40.6778 229.027 40.8972C228.808 41.1166 228.51 41.2399 228.2 41.2399C227.89 41.2399 227.592 41.1166 227.373 40.8972C227.153 40.6778 227.03 40.3802 227.03 40.0699C227.03 39.7596 227.153 39.462 227.373 39.2426C227.592 39.0232 227.89 38.8999 228.2 38.8999C228.51 38.8999 228.808 39.0232 229.027 39.2426C229.247 39.462 229.37 39.7596 229.37 40.0699Z" fill="white"/>
<path d="M235.07 40.0699C235.07 40.3013 235.001 40.5275 234.873 40.7199C234.744 40.9123 234.561 41.0623 234.348 41.1508C234.134 41.2394 233.899 41.2626 233.672 41.2174C233.445 41.1723 233.236 41.0608 233.073 40.8972C232.909 40.7336 232.798 40.5251 232.752 40.2982C232.707 40.0712 232.73 39.836 232.819 39.6222C232.908 39.4084 233.058 39.2256 233.25 39.0971C233.442 38.9685 233.669 38.8999 233.9 38.8999C234.21 38.8999 234.508 39.0232 234.727 39.2426C234.947 39.462 235.07 39.7596 235.07 40.0699Z" fill="#456BFF"/>
<path d="M240.77 40.0699C240.77 40.3013 240.701 40.5275 240.573 40.7199C240.444 40.9123 240.261 41.0623 240.048 41.1508C239.834 41.2394 239.599 41.2626 239.372 41.2174C239.145 41.1723 238.936 41.0608 238.773 40.8972C238.609 40.7336 238.498 40.5251 238.452 40.2982C238.407 40.0712 238.43 39.836 238.519 39.6222C238.608 39.4084 238.758 39.2256 238.95 39.0971C239.142 38.9685 239.369 38.8999 239.6 38.8999C239.91 38.8999 240.208 39.0232 240.427 39.2426C240.647 39.462 240.77 39.7596 240.77 40.0699Z" fill="#FF6E41"/>
<path d="M227.03 47.28H187.49V48.45H227.03V47.28Z" fill="#E6EDF8"/>
<path d="M207.21 50.98H187.49V52.15H207.21V50.98Z" fill="#E6EDF8"/>
<path d="M212.86 54.5801H187.49V55.7501H212.86V54.5801Z" fill="#E6EDF8"/>
<path d="M241.45 58.8201H187.49V59.9901H241.45V58.8201Z" fill="#E6EDF8"/>
<path d="M214.4 62.52H187.49V63.69H214.4V62.52Z" fill="#E6EDF8"/>
<path d="M222.11 66.1299H187.49V67.2999H222.11V66.1299Z" fill="#E6EDF8"/>
<path opacity="0.35" d="M33.1599 37.72C33.2603 37.8195 33.34 37.9379 33.3944 38.0683C33.4487 38.1988 33.4767 38.3387 33.4767 38.48C33.4767 38.6214 33.4487 38.7613 33.3944 38.8917C33.34 39.0222 33.2603 39.1405 33.1599 39.24C33.0613 39.3401 32.9438 39.4196 32.8142 39.4738C32.6846 39.5281 32.5454 39.556 32.4049 39.556C32.2644 39.556 32.1253 39.5281 31.9957 39.4738C31.8661 39.4196 31.7486 39.3401 31.6499 39.24C31.5496 39.1405 31.4699 39.0222 31.4155 38.8917C31.3611 38.7613 31.3331 38.6214 31.3331 38.48C31.3331 38.3387 31.3611 38.1988 31.4155 38.0683C31.4699 37.9379 31.5496 37.8195 31.6499 37.72C31.7486 37.6199 31.8661 37.5405 31.9957 37.4862C32.1253 37.432 32.2644 37.4041 32.4049 37.4041C32.5454 37.4041 32.6846 37.432 32.8142 37.4862C32.9438 37.5405 33.0613 37.6199 33.1599 37.72Z" fill="#40BFE0"/>
<path d="M37.15 33.7399C37.3479 33.9434 37.4586 34.2161 37.4586 34.4999C37.4586 34.7838 37.3479 35.0565 37.15 35.2599C37 35.4086 36.8093 35.5096 36.602 35.5501C36.3947 35.5906 36.18 35.5688 35.9851 35.4876C35.7901 35.4063 35.6236 35.2691 35.5064 35.0934C35.3893 34.9176 35.3268 34.7111 35.3268 34.4999C35.3268 34.2887 35.3893 34.0822 35.5064 33.9065C35.6236 33.7307 35.7901 33.5936 35.9851 33.5123C36.18 33.431 36.3947 33.4093 36.602 33.4498C36.8093 33.4903 37 33.5913 37.15 33.7399Z" fill="#40BFE0"/>
<path opacity="0.35" d="M41.13 29.76C41.3279 29.9634 41.4386 30.2361 41.4386 30.52C41.4386 30.8038 41.3279 31.0765 41.13 31.28C40.9799 31.4286 40.7893 31.5296 40.582 31.5701C40.3747 31.6106 40.16 31.5888 39.9651 31.5076C39.7701 31.4263 39.6036 31.2892 39.4864 31.1134C39.3693 30.9377 39.3068 30.7312 39.3068 30.52C39.3068 30.3087 39.3693 30.1022 39.4864 29.9265C39.6036 29.7507 39.7701 29.6136 39.9651 29.5323C40.16 29.4511 40.3747 29.4293 40.582 29.4698C40.7893 29.5103 40.9799 29.6113 41.13 29.76Z" fill="#40BFE0"/>
<path d="M45.11 25.7799C45.2587 25.93 45.3597 26.1206 45.4002 26.3279C45.4407 26.5352 45.4189 26.7499 45.3377 26.9448C45.2564 27.1398 45.1192 27.3063 44.9435 27.4235C44.7677 27.5406 44.5612 27.6031 44.35 27.6031C44.1388 27.6031 43.9323 27.5406 43.7566 27.4235C43.5808 27.3063 43.4437 27.1398 43.3624 26.9448C43.2811 26.7499 43.2594 26.5352 43.2999 26.3279C43.3404 26.1206 43.4414 25.93 43.59 25.7799C43.6895 25.6796 43.8079 25.5999 43.9383 25.5455C44.0688 25.4911 44.2087 25.4631 44.35 25.4631C44.4914 25.4631 44.6313 25.4911 44.7617 25.5455C44.8922 25.5999 45.0105 25.6796 45.11 25.7799Z" fill="#40BFE0"/>
<path d="M49.09 21.8C49.2387 21.95 49.3396 22.1407 49.3801 22.3479C49.4207 22.5552 49.3989 22.7699 49.3176 22.9648C49.2364 23.1598 49.0992 23.3263 48.9235 23.4435C48.7477 23.5606 48.5412 23.6232 48.33 23.6232C48.1188 23.6232 47.9123 23.5606 47.7366 23.4435C47.5608 23.3263 47.4237 23.1598 47.3424 22.9648C47.2611 22.7699 47.2394 22.5552 47.2799 22.3479C47.3204 22.1407 47.4213 21.95 47.57 21.8C47.6695 21.6996 47.7879 21.6199 47.9183 21.5655C48.0488 21.5112 48.1887 21.4832 48.33 21.4832C48.4713 21.4832 48.6113 21.5112 48.7417 21.5655C48.8722 21.6199 48.9905 21.6996 49.09 21.8Z" fill="#40BFE0"/>
<path d="M36.9999 41.58C37.1 41.6786 37.1795 41.7961 37.2337 41.9258C37.288 42.0554 37.3159 42.1945 37.3159 42.335C37.3159 42.4755 37.288 42.6146 37.2337 42.7442C37.1795 42.8738 37.1 42.9914 36.9999 43.09C36.9004 43.1904 36.7821 43.27 36.6516 43.3244C36.5212 43.3788 36.3812 43.4068 36.2399 43.4068C36.0986 43.4068 35.9587 43.3788 35.8282 43.3244C35.6978 43.27 35.5794 43.1904 35.4799 43.09C35.3798 42.9914 35.3004 42.8738 35.2461 42.7442C35.1919 42.6146 35.1639 42.4755 35.1639 42.335C35.1639 42.1945 35.1919 42.0554 35.2461 41.9258C35.3004 41.7961 35.3798 41.6786 35.4799 41.58C35.5794 41.4796 35.6978 41.3999 35.8282 41.3456C35.9587 41.2912 36.0986 41.2632 36.2399 41.2632C36.3812 41.2632 36.5212 41.2912 36.6516 41.3456C36.7821 41.3999 36.9004 41.4796 36.9999 41.58Z" fill="#40BFE0"/>
<path d="M40.9999 37.6C41.1 37.6986 41.1795 37.8162 41.2337 37.9458C41.288 38.0754 41.3159 38.2145 41.3159 38.355C41.3159 38.4955 41.288 38.6346 41.2337 38.7642C41.1795 38.8939 41.1 39.0114 40.9999 39.11C40.9004 39.2104 40.7821 39.2901 40.6516 39.3444C40.5212 39.3988 40.3812 39.4268 40.2399 39.4268C40.0986 39.4268 39.9587 39.3988 39.8282 39.3444C39.6978 39.2901 39.5794 39.2104 39.4799 39.11C39.3798 39.0114 39.3004 38.8939 39.2461 38.7642C39.1919 38.6346 39.1639 38.4955 39.1639 38.355C39.1639 38.2145 39.1919 38.0754 39.2461 37.9458C39.3004 37.8162 39.3798 37.6986 39.4799 37.6C39.5794 37.4996 39.6978 37.42 39.8282 37.3656C39.9587 37.3112 40.0986 37.2832 40.2399 37.2832C40.3812 37.2832 40.5212 37.3112 40.6516 37.3656C40.7821 37.42 40.9004 37.4996 40.9999 37.6Z" fill="#40BFE0"/>
<path d="M45 33.6199C45.1 33.7186 45.1795 33.8361 45.2338 33.9657C45.288 34.0953 45.3159 34.2344 45.3159 34.3749C45.3159 34.5154 45.288 34.6545 45.2338 34.7842C45.1795 34.9138 45.1 35.0313 45 35.1299C44.8505 35.28 44.6599 35.3824 44.4522 35.424C44.2445 35.4657 44.0291 35.4448 43.8333 35.3639C43.6375 35.2831 43.4702 35.1459 43.3524 34.9699C43.2346 34.7938 43.1718 34.5868 43.1718 34.3749C43.1718 34.1631 43.2346 33.9561 43.3524 33.78C43.4702 33.6039 43.6375 33.4668 43.8333 33.3859C44.0291 33.3051 44.2445 33.2842 44.4522 33.3258C44.6599 33.3675 44.8505 33.4698 45 33.6199Z" fill="#40BFE0"/>
<path opacity="0.35" d="M49 29.64C49.1 29.7386 49.1795 29.8561 49.2338 29.9857C49.288 30.1153 49.3159 30.2544 49.3159 30.395C49.3159 30.5355 49.288 30.6746 49.2338 30.8042C49.1795 30.9338 49.1 31.0513 49 31.15C48.8505 31.3 48.6599 31.4024 48.4522 31.4441C48.2445 31.4857 48.0291 31.4648 47.8333 31.3839C47.6375 31.3031 47.4702 31.1659 47.3524 30.9899C47.2346 30.8138 47.1718 30.6068 47.1718 30.395C47.1718 30.1831 47.2346 29.9761 47.3524 29.8C47.4702 29.624 47.6375 29.4868 47.8333 29.406C48.0291 29.3251 48.2445 29.3042 48.4522 29.3458C48.6599 29.3875 48.8505 29.4899 49 29.64Z" fill="#40BFE0"/>
<path d="M52.9399 25.6499C53.0403 25.7494 53.12 25.8678 53.1744 25.9982C53.2287 26.1286 53.2567 26.2686 53.2567 26.4099C53.2567 26.5512 53.2287 26.6911 53.1744 26.8216C53.12 26.952 53.0403 27.0704 52.9399 27.1699C52.8413 27.27 52.7238 27.3494 52.5941 27.4037C52.4645 27.4579 52.3254 27.4859 52.1849 27.4859C52.0444 27.4859 51.9053 27.4579 51.7757 27.4037C51.6461 27.3494 51.5285 27.27 51.4299 27.1699C51.2284 26.9697 51.1146 26.6975 51.1137 26.4134C51.1127 26.1293 51.2247 25.8565 51.4249 25.6549C51.6252 25.4533 51.8973 25.3396 52.1814 25.3386C52.4655 25.3377 52.7384 25.4497 52.9399 25.6499Z" fill="#40BFE0"/>
<path d="M40.87 45.43C40.9704 45.5295 41.0501 45.6478 41.1045 45.7783C41.1588 45.9087 41.1868 46.0487 41.1868 46.19C41.1868 46.3313 41.1588 46.4712 41.1045 46.6017C41.0501 46.7321 40.9704 46.8505 40.87 46.95C40.7714 47.0501 40.6539 47.1295 40.5242 47.1838C40.3946 47.238 40.2555 47.266 40.115 47.266C39.9745 47.266 39.8354 47.238 39.7058 47.1838C39.5762 47.1295 39.4586 47.0501 39.36 46.95C39.2596 46.8505 39.18 46.7321 39.1256 46.6017C39.0712 46.4712 39.0432 46.3313 39.0432 46.19C39.0432 46.0487 39.0712 45.9087 39.1256 45.7783C39.18 45.6478 39.2596 45.5295 39.36 45.43C39.4586 45.3299 39.5762 45.2504 39.7058 45.1962C39.8354 45.1419 39.9745 45.114 40.115 45.114C40.2555 45.114 40.3946 45.1419 40.5242 45.1962C40.6539 45.2504 40.7714 45.3299 40.87 45.43Z" fill="#40BFE0"/>
<path opacity="0.35" d="M44.1 43.2799C44.691 43.2799 45.17 42.8008 45.17 42.2099C45.17 41.6189 44.691 41.1399 44.1 41.1399C43.5091 41.1399 43.03 41.6189 43.03 42.2099C43.03 42.8008 43.5091 43.2799 44.1 43.2799Z" fill="#40BFE0"/>
<path opacity="0.35" d="M48.83 37.47C48.9304 37.5695 49.01 37.6879 49.0644 37.8183C49.1188 37.9488 49.1468 38.0887 49.1468 38.23C49.1468 38.3714 49.1188 38.5113 49.0644 38.6417C49.01 38.7722 48.9304 38.8905 48.83 38.99C48.7314 39.0901 48.6138 39.1696 48.4842 39.2238C48.3546 39.2781 48.2155 39.306 48.075 39.306C47.9345 39.306 47.7954 39.2781 47.6658 39.2238C47.5361 39.1696 47.4186 39.0901 47.32 38.99C47.2196 38.8905 47.1399 38.7722 47.0855 38.6417C47.0312 38.5113 47.0032 38.3714 47.0032 38.23C47.0032 38.0887 47.0312 37.9488 47.0855 37.8183C47.1399 37.6879 47.2196 37.5695 47.32 37.47C47.4186 37.3699 47.5361 37.2905 47.6658 37.2362C47.7954 37.182 47.9345 37.1541 48.075 37.1541C48.2155 37.1541 48.3546 37.182 48.4842 37.2362C48.6138 37.2905 48.7314 37.3699 48.83 37.47Z" fill="#40BFE0"/>
<path d="M52.82 33.4901C52.9192 33.5899 52.9977 33.7082 53.0511 33.8384C53.1045 33.9685 53.1318 34.1079 53.1313 34.2486C53.1308 34.3893 53.1027 34.5285 53.0484 34.6583C52.9941 34.7881 52.9148 34.9059 52.815 35.0051C52.7152 35.1042 52.5969 35.1828 52.4667 35.2362C52.3366 35.2896 52.1972 35.3168 52.0565 35.3163C51.9158 35.3159 51.7766 35.2877 51.6468 35.2335C51.517 35.1792 51.3992 35.0999 51.3 35.0001C51.0985 34.7985 50.9852 34.5251 50.9852 34.2401C50.9852 33.955 51.0985 33.6816 51.3 33.4801C51.5016 33.2785 51.775 33.1653 52.06 33.1653C52.3451 33.1653 52.6185 33.2785 52.82 33.4801V33.4901Z" fill="#40BFE0"/>
<path d="M56.8 29.5101C56.9154 29.6057 57.0095 29.7244 57.0761 29.8587C57.1427 29.9929 57.1804 30.1397 57.1866 30.2894C57.1929 30.4391 57.1677 30.5885 57.1125 30.7278C57.0574 30.8672 56.9736 30.9934 56.8666 31.0983C56.7596 31.2032 56.6317 31.2845 56.4913 31.3368C56.3509 31.3892 56.201 31.4114 56.0515 31.4022C55.9019 31.3929 55.7559 31.3523 55.623 31.2831C55.4901 31.2138 55.3733 31.1174 55.28 31.0001C55.0784 30.7985 54.9652 30.5251 54.9652 30.2401C54.9652 29.955 55.0784 29.6816 55.28 29.4801C55.4816 29.2785 55.755 29.1653 56.04 29.1653C56.3251 29.1653 56.5984 29.2785 56.8 29.4801V29.5101Z" fill="#40BFE0"/>
<path d="M44.73 49.29C44.8301 49.3886 44.9096 49.5061 44.9638 49.6357C45.0181 49.7653 45.046 49.9044 45.046 50.0449C45.046 50.1855 45.0181 50.3246 44.9638 50.4542C44.9096 50.5838 44.8301 50.7013 44.73 50.7999C44.6305 50.9003 44.5122 50.98 44.3817 51.0344C44.2513 51.0888 44.1113 51.1168 43.97 51.1168C43.8287 51.1168 43.6888 51.0888 43.5583 51.0344C43.4279 50.98 43.3095 50.9003 43.21 50.7999C43.1099 50.7013 43.0305 50.5838 42.9762 50.4542C42.922 50.3246 42.894 50.1855 42.894 50.0449C42.894 49.9044 42.922 49.7653 42.9762 49.6357C43.0305 49.5061 43.1099 49.3886 43.21 49.29C43.3095 49.1896 43.4279 49.1099 43.5583 49.0555C43.6888 49.0011 43.8287 48.9731 43.97 48.9731C44.1113 48.9731 44.2513 49.0011 44.3817 49.0555C44.5122 49.1099 44.6305 49.1896 44.73 49.29Z" fill="#40BFE0"/>
<path d="M48.71 45.31C48.8101 45.4086 48.8895 45.5261 48.9438 45.6557C48.998 45.7854 49.026 45.9245 49.026 46.065C49.026 46.2055 48.998 46.3446 48.9438 46.4742C48.8895 46.6038 48.8101 46.7213 48.71 46.82C48.6105 46.9203 48.4921 47 48.3617 47.0544C48.2312 47.1088 48.0913 47.1368 47.95 47.1368C47.8087 47.1368 47.6687 47.1088 47.5383 47.0544C47.4079 47 47.2895 46.9203 47.19 46.82C47.0899 46.7213 47.0104 46.6038 46.9562 46.4742C46.902 46.3446 46.874 46.2055 46.874 46.065C46.874 45.9245 46.902 45.7854 46.9562 45.6557C47.0104 45.5261 47.0899 45.4086 47.19 45.31C47.2895 45.2096 47.4079 45.1299 47.5383 45.0755C47.6687 45.0212 47.8087 44.9932 47.95 44.9932C48.0913 44.9932 48.2312 45.0212 48.3617 45.0755C48.4921 45.1299 48.6105 45.2096 48.71 45.31Z" fill="#40BFE0"/>
<path d="M52.69 41.3199C52.8387 41.4699 52.9396 41.6606 52.9801 41.8679C53.0206 42.0752 52.9989 42.2898 52.9176 42.4848C52.8363 42.6797 52.6992 42.8463 52.5234 42.9634C52.3477 43.0806 52.1412 43.1431 51.93 43.1431C51.7188 43.1431 51.5123 43.0806 51.3365 42.9634C51.1608 42.8463 51.0236 42.6797 50.9424 42.4848C50.8611 42.2898 50.8393 42.0752 50.8798 41.8679C50.9204 41.6606 51.0213 41.4699 51.17 41.3199C51.3735 41.122 51.6461 41.0112 51.93 41.0112C52.2138 41.0112 52.4865 41.122 52.69 41.3199Z" fill="#40BFE0"/>
<path opacity="0.35" d="M55.91 39.17C56.5009 39.17 56.98 38.691 56.98 38.1C56.98 37.5091 56.5009 37.03 55.91 37.03C55.319 37.03 54.84 37.5091 54.84 38.1C54.84 38.691 55.319 39.17 55.91 39.17Z" fill="#40BFE0"/>
<path d="M60.6499 33.36C60.7986 33.51 60.8996 33.7007 60.9401 33.908C60.9806 34.1153 60.9588 34.33 60.8776 34.5249C60.7963 34.7199 60.6592 34.8864 60.4834 35.0036C60.3077 35.1207 60.1012 35.1832 59.8899 35.1832C59.6787 35.1832 59.4722 35.1207 59.2965 35.0036C59.1207 34.8864 58.9836 34.7199 58.9023 34.5249C58.821 34.33 58.7993 34.1153 58.8398 33.908C58.8803 33.7007 58.9813 33.51 59.1299 33.36C59.2294 33.2596 59.3478 33.18 59.4783 33.1256C59.6087 33.0712 59.7486 33.0432 59.8899 33.0432C60.0313 33.0432 60.1712 33.0712 60.3016 33.1256C60.4321 33.18 60.5505 33.2596 60.6499 33.36Z" fill="#40BFE0"/>
<path d="M48.58 53.1399C48.6804 53.2394 48.76 53.3578 48.8144 53.4883C48.8688 53.6187 48.8968 53.7586 48.8968 53.8999C48.8968 54.0413 48.8688 54.1812 48.8144 54.3116C48.76 54.4421 48.6804 54.5605 48.58 54.6599C48.4814 54.76 48.3638 54.8395 48.2342 54.8937C48.1046 54.948 47.9655 54.9759 47.825 54.9759C47.6845 54.9759 47.5454 54.948 47.4158 54.8937C47.2861 54.8395 47.1686 54.76 47.07 54.6599C46.9696 54.5605 46.8899 54.4421 46.8355 54.3116C46.7812 54.1812 46.7532 54.0413 46.7532 53.8999C46.7532 53.7586 46.7812 53.6187 46.8355 53.4883C46.8899 53.3578 46.9696 53.2394 47.07 53.1399C47.1686 53.0399 47.2861 52.9604 47.4158 52.9062C47.5454 52.8519 47.6845 52.824 47.825 52.824C47.9655 52.824 48.1046 52.8519 48.2342 52.9062C48.3638 52.9604 48.4814 53.0399 48.58 53.1399Z" fill="#40BFE0"/>
<path opacity="0.35" d="M52.56 49.16C52.7101 49.3094 52.8124 49.5001 52.8541 49.7078C52.8957 49.9154 52.8748 50.1308 52.794 50.3266C52.7131 50.5224 52.576 50.6898 52.3999 50.8075C52.2239 50.9253 52.0168 50.9882 51.805 50.9882C51.5932 50.9882 51.3861 50.9253 51.2101 50.8075C51.034 50.6898 50.8969 50.5224 50.816 50.3266C50.7351 50.1308 50.7142 49.9154 50.7559 49.7078C50.7975 49.5001 50.8999 49.3094 51.05 49.16C51.1486 49.0599 51.2661 48.9804 51.3958 48.9262C51.5254 48.8719 51.6645 48.844 51.805 48.844C51.9455 48.844 52.0846 48.8719 52.2142 48.9262C52.3438 48.9804 52.4614 49.0599 52.56 49.16Z" fill="#40BFE0"/>
<path d="M56.54 45.18C56.6901 45.3294 56.7924 45.5201 56.8341 45.7278C56.8757 45.9355 56.8548 46.1508 56.7739 46.3466C56.6931 46.5424 56.556 46.7098 56.3799 46.8276C56.2038 46.9453 55.9968 47.0082 55.785 47.0082C55.5731 47.0082 55.3661 46.9453 55.19 46.8276C55.014 46.7098 54.8768 46.5424 54.796 46.3466C54.7151 46.1508 54.6942 45.9355 54.7359 45.7278C54.7775 45.5201 54.8799 45.3294 55.03 45.18C55.1286 45.0799 55.2461 45.0004 55.3757 44.9462C55.5054 44.8919 55.6445 44.864 55.785 44.864C55.9255 44.864 56.0646 44.8919 56.1942 44.9462C56.3238 45.0004 56.4413 45.0799 56.54 45.18Z" fill="#40BFE0"/>
<path d="M60.5199 41.2C60.67 41.3495 60.7724 41.5401 60.8141 41.7478C60.8557 41.9555 60.8348 42.1709 60.7539 42.3666C60.6731 42.5624 60.5359 42.7298 60.3599 42.8476C60.1838 42.9653 59.9768 43.0282 59.7649 43.0282C59.5531 43.0282 59.3461 42.9653 59.17 42.8476C58.994 42.7298 58.8568 42.5624 58.776 42.3666C58.6951 42.1709 58.6742 41.9555 58.7158 41.7478C58.7575 41.5401 58.8598 41.3495 59.0099 41.2C59.1086 41.0999 59.2261 41.0205 59.3557 40.9662C59.4853 40.912 59.6244 40.884 59.7649 40.884C59.9055 40.884 60.0446 40.912 60.1742 40.9662C60.3038 41.0205 60.4213 41.0999 60.5199 41.2Z" fill="#40BFE0"/>
<path d="M64.4999 37.22C64.65 37.3695 64.7524 37.5601 64.794 37.7678C64.8357 37.9755 64.8148 38.1909 64.7339 38.3867C64.6531 38.5824 64.5159 38.7498 64.3399 38.8676C64.1638 38.9854 63.9567 39.0482 63.7449 39.0482C63.5331 39.0482 63.3261 38.9854 63.15 38.8676C62.9739 38.7498 62.8368 38.5824 62.7559 38.3867C62.6751 38.1909 62.6542 37.9755 62.6958 37.7678C62.7375 37.5601 62.8398 37.3695 62.9899 37.22C63.0886 37.1199 63.2061 37.0405 63.3357 36.9862C63.4653 36.932 63.6044 36.9041 63.7449 36.9041C63.8854 36.9041 64.0245 36.932 64.1542 36.9862C64.2838 37.0405 64.4013 37.1199 64.4999 37.22Z" fill="#40BFE0"/>
<defs>
<linearGradient id="paint0_linear_1044_361" x1="44.4299" y1="133.82" x2="19.6899" y2="190.59" gradientUnits="userSpaceOnUse">
<stop stop-color="#4361C4"/>
<stop offset="1"/>
</linearGradient>
<linearGradient id="paint1_linear_1044_361" x1="4.42002" y1="140.78" x2="27.71" y2="205.69" gradientUnits="userSpaceOnUse">
<stop stop-color="#4361C4"/>
<stop offset="1"/>
</linearGradient>
<linearGradient id="paint2_linear_1044_361" x1="12.9499" y1="89.5599" x2="19.2399" y2="107" gradientUnits="userSpaceOnUse">
<stop stop-color="#4361C4"/>
<stop offset="1"/>
</linearGradient>
<linearGradient id="paint3_linear_1044_361" x1="100.5" y1="71.24" x2="107.54" y2="81.79" gradientUnits="userSpaceOnUse">
<stop stop-color="#FFB58E"/>
<stop offset="0.33" stop-color="#FEB38B"/>
<stop offset="0.59" stop-color="#FCAD81"/>
<stop offset="0.83" stop-color="#F9A370"/>
<stop offset="1" stop-color="#F5985F"/>
</linearGradient>
<linearGradient id="paint4_linear_1044_361" x1="95.9399" y1="60.1999" x2="106.99" y2="73.5199" gradientUnits="userSpaceOnUse">
<stop stop-color="#FFB58E"/>
<stop offset="0.33" stop-color="#FEB38B"/>
<stop offset="0.59" stop-color="#FCAD81"/>
<stop offset="0.83" stop-color="#F9A370"/>
<stop offset="1" stop-color="#F5985F"/>
</linearGradient>
<linearGradient id="paint5_linear_1044_361" x1="227.61" y1="87.4201" x2="261.06" y2="155.54" gradientUnits="userSpaceOnUse">
<stop stop-color="#4361C4"/>
<stop offset="1"/>
</linearGradient>
<linearGradient id="paint6_linear_1044_361" x1="227.45" y1="87.49" x2="260.9" y2="155.62" gradientUnits="userSpaceOnUse">
<stop stop-color="#4361C4"/>
<stop offset="1"/>
</linearGradient>
</defs>
</svg>
