<?xml version="1.0" standalone="no"?>
<!DOCTYPE svg PUBLIC "-//W3C//DTD SVG 20010904//EN"
 "http://www.w3.org/TR/2001/REC-SVG-20010904/DTD/svg10.dtd">
<svg version="1.0" xmlns="http://www.w3.org/2000/svg"
 width="217.000000pt" height="232.000000pt" viewBox="0 0 217.000000 232.000000"
 preserveAspectRatio="xMidYMid meet">

<g transform="translate(0.000000,232.000000) scale(0.100000,-0.100000)"
fill="#000000" stroke="none">
<path d="M965 2020 c-97 -26 -140 -45 -212 -97 -73 -51 -137 -82 -173 -83 -24
-1 -24 -1 -6 -15 11 -8 33 -15 49 -15 l28 0 -29 -52 c-51 -90 -74 -180 -75
-293 -1 -75 3 -107 16 -130 l16 -30 1 30 1 30 16 -32 c15 -30 15 -35 -5 -85
l-22 -53 34 37 35 36 33 -44 c61 -84 77 -101 78 -82 0 15 7 14 53 -9 28 -15
65 -38 82 -52 16 -14 4 2 -28 37 -31 35 -57 67 -57 73 0 5 -11 9 -23 9 -24 0
-65 35 -55 46 7 6 49 -16 60 -31 4 -5 8 -1 8 10 0 11 -5 27 -11 35 -9 13 -10
12 -5 -2 8 -25 3 -22 -22 11 l-22 30 33 -11 c17 -5 48 -17 67 -25 19 -9 40
-18 45 -20 6 -2 -6 9 -25 26 l-34 31 44 0 45 1 -32 14 c-34 14 -53 41 -53 74
0 32 24 25 39 -11 8 -18 13 -36 12 -40 -3 -21 53 -5 78 21 16 16 32 27 36 23
4 -4 0 8 -9 25 -18 36 -46 47 -105 41 -38 -3 -39 -2 -24 14 10 11 30 18 55 18
40 0 98 -23 98 -40 0 -5 14 -25 30 -43 17 -19 30 -45 30 -58 1 -23 2 -22 17 6
8 17 17 32 19 34 2 2 24 -15 51 -37 26 -23 48 -40 49 -39 2 1 -4 29 -12 62
-15 64 -17 146 -6 208 l7 38 37 -49 37 -50 -32 -9 c-18 -5 -33 -16 -35 -26 -3
-15 0 -16 23 -7 37 14 77 12 99 -5 18 -14 16 -15 -30 -15 -55 0 -66 -5 -83
-37 -13 -26 -14 -36 -2 -28 5 3 12 -3 15 -13 4 -11 18 -24 32 -30 30 -14 77
-16 56 -3 -11 7 -11 11 2 24 9 8 16 23 16 32 0 10 6 15 18 13 9 -2 16 -11 16
-21 -1 -9 3 -14 8 -11 6 4 5 -3 -2 -16 -6 -12 -28 -31 -48 -43 -28 -16 -32
-23 -19 -25 16 -3 87 9 132 23 18 5 17 4 -2 -11 -22 -16 -34 -62 -13 -49 6 4
9 9 6 13 -2 4 14 20 36 35 l39 28 -27 -47 -28 -47 49 7 c70 11 76 15 64 37 -6
13 -6 25 1 38 5 11 10 32 10 46 0 24 3 26 24 21 21 -5 24 -2 30 36 4 22 4 68
0 101 -6 55 -6 59 12 53 10 -3 25 -2 32 3 10 6 3 15 -24 36 -20 15 -42 43 -50
61 -18 43 -18 44 5 44 26 0 91 62 91 87 0 17 -9 21 -49 26 -69 8 -148 44 -201
90 -121 105 -297 142 -465 97z m7 -485 c3 -27 1 -34 -10 -30 -7 3 -25 5 -38 5
l-25 0 28 34 c15 19 30 33 34 30 4 -2 9 -20 11 -39z m408 -107 c0 -4 -9 -3
-20 4 -11 7 -20 19 -20 27 0 11 5 10 20 -4 11 -10 20 -22 20 -27z m-310 -20
c0 -26 -17 -22 -24 5 -11 40 -7 53 9 31 8 -10 15 -27 15 -36z"/>
<path d="M1571 1314 c0 -11 3 -14 6 -6 3 7 2 16 -1 19 -3 4 -6 -2 -5 -13z"/>
<path d="M1413 1214 c-3 -8 -12 -13 -19 -10 -7 3 -16 -3 -19 -13 -3 -10 -14
-26 -25 -36 -29 -26 -24 -38 8 -21 23 13 82 96 67 96 -3 0 -8 -7 -12 -16z"/>
<path d="M1889 1143 c-13 -16 -12 -17 4 -4 9 7 17 15 17 17 0 8 -8 3 -21 -13z"/>
<path d="M1330 1086 c0 -2 8 -10 18 -17 15 -13 16 -12 3 4 -13 16 -21 21 -21
13z"/>
<path d="M910 1041 c-8 -5 -42 -14 -75 -20 -119 -22 -279 -125 -336 -217 -14
-23 -38 -44 -66 -56 -34 -15 -43 -24 -43 -44 0 -14 -13 -42 -29 -62 -16 -20
-36 -55 -45 -77 -30 -79 -45 -224 -30 -282 l6 -23 281 0 281 0 -49 53 -50 52
55 -52 c33 -31 65 -53 78 -53 12 0 22 4 22 8 0 5 -12 87 -27 183 -26 168 -31
275 -22 449 4 62 5 66 36 80 25 12 33 21 33 43 0 15 -1 27 -2 26 -2 0 -10 -4
-18 -8z m-255 -591 c10 -11 16 -20 13 -20 -3 0 -13 9 -23 20 -10 11 -16 20
-13 20 3 0 13 -9 23 -20z m-100 -10 c0 -7 -6 -14 -13 -16 -7 -1 -8 0 -2 3 16
8 11 26 -6 19 -9 -3 -12 -2 -9 5 9 13 30 6 30 -11z"/>
<path d="M1195 1002 c-28 -26 -41 -40 -30 -32 11 8 35 28 53 44 l32 30 0 -26
c0 -19 8 -29 30 -38 27 -11 30 -17 28 -54 -1 -22 4 -72 10 -111 9 -58 8 -95
-9 -222 -11 -84 -26 -190 -34 -236 -8 -45 -15 -85 -15 -89 0 -5 142 -8 316 -8
l317 0 -6 112 c-6 132 -24 197 -72 267 -19 28 -35 54 -34 58 4 25 -6 36 -46
53 -25 11 -45 25 -45 32 0 8 -4 7 -10 -3 -7 -12 -1 -40 20 -97 27 -75 28 -82
12 -91 -24 -13 -180 -61 -197 -61 -17 0 -22 15 -39 132 -12 83 -14 88 -59 132
l-47 45 0 90 0 90 -50 7 c-28 4 -53 11 -56 15 -9 15 -17 10 -69 -39z m175
-685 c0 -2 -12 -14 -27 -28 l-28 -24 24 28 c23 25 31 32 31 24z"/>
<path d="M1789 1023 l-24 -28 28 24 c25 23 32 31 24 31 -2 0 -14 -12 -28 -27z"/>
<path d="M980 995 c13 -14 26 -25 28 -25 3 0 -5 11 -18 25 -13 14 -26 25 -28
25 -3 0 5 -11 18 -25z"/>
<path d="M1055 939 l-70 -5 93 -2 c89 -2 116 2 70 9 -13 2 -54 1 -93 -2z"/>
<path d="M1235 820 c-13 -6 -15 -9 -5 -9 8 0 22 4 30 9 18 12 2 12 -25 0z"/>
</g>
</svg>
