<svg width="59" height="48" viewBox="0 0 59 48" fill="none" xmlns="http://www.w3.org/2000/svg">
<path d="M35 34.5674C35 29.3809 35 26.7904 36.6115 25.1789C38.223 23.5674 40.8135 23.5674 46 23.5674C51.1865 23.5674 53.777 23.5674 55.3885 25.1789C57 26.7904 57 29.3809 57 34.5674C57 39.7539 57 42.3444 55.3885 43.9559C53.777 45.5674 51.1865 45.5674 46 45.5674C40.8135 45.5674 38.223 45.5674 36.6115 43.9559C35 42.3444 35 39.7539 35 34.5674Z" stroke="black" stroke-width="3" stroke-linecap="round" stroke-linejoin="round"/>
<path d="M35 34.5674V23.1906C35 13.1064 41.919 4.55388 51.5 1.56738M2 34.5674C2 29.3809 2 26.7904 3.6115 25.1789C5.223 23.5674 7.8135 23.5674 13 23.5674C18.1865 23.5674 20.777 23.5674 22.3885 25.1789C24 26.7904 24 29.3809 24 34.5674C24 39.7539 24 42.3444 22.3885 43.9559C20.777 45.5674 18.1865 45.5674 13 45.5674C7.8135 45.5674 5.223 45.5674 3.6115 43.9559C2 42.3444 2 39.7539 2 34.5674Z" stroke="black" stroke-width="3" stroke-linecap="round" stroke-linejoin="round"/>
<path d="M2 34.5674V23.1906C2 13.1064 8.919 4.55388 18.5 1.56738" stroke="black" stroke-width="3" stroke-linecap="round" stroke-linejoin="round"/>
</svg>
